<?xml version="1.0" encoding="utf-8" ?>
<svg baseProfile="full" height="200mm" version="1.1" viewBox="0,0,200,200" width="200mm" xmlns="http://www.w3.org/2000/svg" xmlns:ev="http://www.w3.org/2001/xml-events" xmlns:xlink="http://www.w3.org/1999/xlink"><defs /><rect fill="#1a1a1a" height="200" width="200" x="0" y="0" /><text alignment-baseline="middle" fill="#e1ed5e" style="dominant-baseline: central; font-size:9.0px; font-family:Arial;" text-anchor="middle" x="100.0" y="100.0">2018</text><line stroke="#e1ed5e" stroke-width="0.3" x1="100.0" x2="100.0" y1="15.0" y2="10.0" /><path d="M 100.0 14.0 a86.0,86.0 0 0,1 42.46469731375804,11.215312516191453" fill="none" id="id49" stroke="none" /><text fill="#e1ed5e" style="font-size:6.75px; font-family:Arial;" text-anchor="middle"><textPath startOffset="22.20632615414155" xlink:href="#id49">January</textPath></text><line stroke="#e1ed5e" stroke-width="0.3" x1="143.23703022742887" x2="145.7803849466894" y1="26.81831364943548" y2="22.513508569990506" /><path d="M 143.74570117128098 25.957352633546492 a86.0,86.0 0 0,1 28.547481713284135,27.462654790039103" fill="none" id="id50" stroke="none" /><text fill="#e1ed5e" style="font-size:6.75px; font-family:Arial;" text-anchor="middle"><textPath startOffset="19.985693538727396" xlink:href="#id50">February</textPath></text><line stroke="#e1ed5e" stroke-width="0.3" x1="172.23445277983987" x2="176.4835382374775" y1="55.19839476539836" y2="52.563006222186495" /><path d="M 173.08426987136738 54.67131705675599 a86.0,86.0 0 0,1 12.851231095245387,41.99856678651699" fill="none" id="id51" stroke="none" /><text fill="#e1ed5e" style="font-size:6.75px; font-family:Arial;" text-anchor="middle"><textPath startOffset="22.20632615414155" xlink:href="#id51">March</textPath></text><line stroke="#e1ed5e" stroke-width="0.3" x1="184.98032266829074" x2="189.97916517819016" y1="98.17113171792111" y2="98.06355123074" /><path d="M 185.9800911702706 98.14961562048488 a86.0,86.0 0 0,1 -9.607161424134198,41.387399972396054" fill="none" id="id52" stroke="none" /><text fill="#e1ed5e" style="font-size:6.75px; font-family:Arial;" text-anchor="middle"><textPath startOffset="21.466115282336823" xlink:href="#id52">April</textPath></text><line stroke="#e1ed5e" stroke-width="0.3" x1="174.80103733775053" x2="179.2010983576182" y1="140.37084112569926" y2="142.7455964860345" /><path d="M 175.68104954172406 140.8457921977663 a86.0,86.0 0 0,1 -30.038265399797805,32.042727171017184" fill="none" id="id53" stroke="none" /><text fill="#e1ed5e" style="font-size:6.75px; font-family:Arial;" text-anchor="middle"><textPath startOffset="22.206326154141568" xlink:href="#id53">May</textPath></text><path d="M 117.55443506779139 111.5257021239791 l 30.159364312324463 19.801710961932535 a57.07901069518716,57.07901069518716 0 0,0 -0.5463192331409933,0.8166731279788422 l -29.81404197377275 -20.317921004117185" fill="#6eff28" stroke="none" /><path d="M 116.93607887273984 112.41649034213515 l 28.584727506500304 20.956562359207297 a56.44381684491978,56.44381684491978 0 0,0 -0.5812066408304609,0.7786212748242111 l -28.21975959897475 -21.445496513540824" fill="#75ff27" stroke="none" /><path d="M 116.27256486870786 113.27417163493432 l 27.343021349408 22.304778708099036 a56.28659759358289,56.28659759358289 0 0,0 -0.6188952636543211,0.745499214096296 l -26.955030085860137 -22.7721391793091" fill="#77ff27" stroke="none" /><path d="M 115.80600337817218 113.82643327865902 l 27.388972297617475 23.958731944029275 a57.38923796791445,57.38923796791445 0 0,0 -0.6568093081435151,0.7379322204869089 l -26.972504139825624 -24.426638334257053" fill="#6aff28" stroke="none" /><path d="M 115.07121518719521 114.62390073753431 l 25.61300634486971 24.852810986034257 a56.68877005347594,56.68877005347594 0 0,0 -0.6855545051976772,0.6944630943238529 l -25.181411214616496 -25.290014574338777" fill="#72ff27" stroke="none" /><path d="M 114.0293411484842 115.62618273729858 l 23.84987995242314 26.564510653407574 a56.699999999999996,56.699999999999996 0 0,0 -0.7318556471522132,0.6457775172148201 l -23.389081952364343 -26.971111312394683" fill="#72ff27" stroke="none" /><path d="M 113.20401910651253 116.32954008644616 l 22.729712703239564 28.11005889546823 a57.14989973262032,57.14989973262032 0 0,0 -0.7702786148225162,0.6119559175178013 l -22.2424765956997 -28.49714872699116" fill="#6dff28" stroke="none" /><path d="M 112.63410532772338 116.77436683061366 l 23.270484976788346 30.896342970196798 a59.67944518716577,59.67944518716577 0 0,0 -0.8258925584986595,0.6109755704748053 l -22.735207447871122 -31.29232848941137" fill="#50ff2b" stroke="none" /><line stroke="#e1ed5e" stroke-width="0.3" x1="143.8653032363475" x2="146.44561519142675" y1="172.8068346515853" y2="177.08958963109032" /><path d="M 144.38136562736335 173.6633856474863 a86.0,86.0 0 0,1 -40.68145358897372,12.25698825130547" fill="none" id="id54" stroke="none" /><text fill="#e1ed5e" style="font-size:6.75px; font-family:Arial;" text-anchor="middle"><textPath startOffset="21.466115282336833" xlink:href="#id54">June</textPath></text><path d="M 110.8373102113329 117.98757091392108 l 20.761490107065207 34.45954469301611 a61.230581550802135,61.230581550802135 0 0,0 -0.9074725835345913,0.5361507978497856 l -20.165249652502233 -34.811814063159645" fill="#3fff2d" stroke="none" /><path d="M 110.5260780823613 118.17145234162733 l 20.308435273475535 35.05899926045385 a61.51624331550803,61.51624331550803 0 0,0 -0.9208431876478806,0.5228787944774063 l -19.701943318906455 -35.40338122072588" fill="#3cff2e" stroke="none" /><path d="M 109.89434966115114 118.52300852407294 l 17.95169690359591 33.607002597904376 a59.10110294117647,59.10110294117647 0 0,0 -0.9014581401322339,0.4716002933743357 l -17.37054786093718 -33.911032310223426" fill="#57ff2a" stroke="none" /><path d="M 109.2508944713604 118.85261126421891 l 11.817770337043351 24.08370680952457 a47.8269385026738,47.8269385026738 0 0,0 -0.7421996850644432,0.3563009522315167 l -11.401457983978675 -24.283562038255646" fill="#e1ff1b" stroke="none" /><path d="M 108.92500713936063 119.00905698771935 l 16.187910676431237 34.47805830914284 a59.08917112299466,59.08917112299466 0 0,0 -0.9244135151180646,0.42435290517095414 l -15.592029165545753 -34.75159828464786" fill="#57ff2a" stroke="none" /><path d="M 108.59647513512805 119.15986991738527 l 9.863823123799499 21.984541916235084 a45.09595588235294,45.09595588235294 0 0,0 -0.7109685071044338,0.31166770007613637 l -9.48393394203731 -22.15107416960568" fill="#fff817" stroke="none" /><path d="M 108.2653958097858 119.30500536409082 l 17.329429964694956 40.47534396707157 a65.02911096256685,65.02911096256685 0 0,0 -1.0328125937867891,0.4317157479664594 l -16.630145911410708 -40.767644758058" fill="#33ff4f" stroke="none" /><path d="M 107.59598834532513 119.57807347666477 l 15.147040529650171 39.04032746785597 a62.87576871657754,62.87576871657754 0 0,0 -1.01238903788878,0.38279890744310446 l -14.472781271001118 -39.2952746254057" fill="#30ff33" stroke="none" /><path d="M 107.2578585660854 119.70592522655815 l 11.549746654646535 31.358897654148166 a54.418215240641715,54.418215240641715 0 0,0 -0.881783532944344,0.31617620255844825 l -11.008243561072456 -31.553061397746575" fill="#8eff24" stroke="none" /><path d="M 106.57524785965236 119.94407469862006 l 13.613971579465383 41.29396669467961 a64.4802473262032,64.4802473262032 0 0,0 -1.0571034675080346,0.3384511480688307 l -12.90114676686641 -41.52219068940815" fill="#32ff48" stroke="none" /><path d="M 106.2309692047433 120.05430185196036 l 13.006939960583312 41.86268485186792 a64.83679812834225,64.83679812834225 0 0,0 -1.0686494480659563,0.3219753124371788 l -12.28441553807711 -42.08037553341082" fill="#32ff4d" stroke="none" /><path d="M 105.53697534728816 120.25689768951611 l 11.338400486396996 41.481278895018804 a64.00297459893048,64.00297459893048 0 0,0 -1.065221490991389,0.28133467741829815 l -10.62268855259411 -41.67030492174069" fill="#31ff42" stroke="none" /><path d="M 103.7750983002368 120.6578951692458 l 6.646671235233119 36.37156616379343 a57.973897058823525,57.973897058823525 0 0,0 -0.9832125269177856,0.1709441006932958 l -6.019609736843283 -36.48058884300774" fill="#63ff29" stroke="none" /><path d="M 103.41894727170886 120.7198165907248 l 7.136252542295791 43.24776958246506 a64.83258689839573,64.83258689839573 0 0,0 -1.102660709980537,0.17221292553611275 l -6.3907559687067375 -43.36420081534828" fill="#32ff4d" stroke="none" /><path d="M 102.70371172650421 120.8252237178851 l 5.5959242104110825 43.10236644230455 a64.46410427807487,64.46410427807487 0 0,0 -1.1016380582360603,0.13339302702845654 l -4.853158729123642 -43.19230499805836" fill="#32ff48" stroke="none" /><path d="M 102.34483914955558 120.86867818915974 l 4.659427366232551 41.4681281102374 a62.72907754010695,62.72907754010695 0 0,0 -1.0740634061153365,0.11133106362416605 l -3.944931363511612 -41.54218854231733" fill="#2fff31" stroke="none" /><path d="M 101.62511606390274 120.93702456842531 l 3.265331802463385 42.06858432501983 a63.195120320855615,63.195120320855615 0 0,0 -1.085262558321747,0.07484606004153464 l -2.5407064833627073 -42.11855872957764" fill="#30ff37" stroke="none" /><path d="M 101.26447882468166 120.96189622390904 l 2.6190179560276516 43.416767075262925 a64.4956885026738,64.4956885026738 0 0,0 -1.1087482421596573,0.05730961954593937 l -1.8712816454545145 -43.455416501571065" fill="#32ff48" stroke="none" /><line stroke="#e1ed5e" stroke-width="0.3" x1="102.19456741930631" x2="102.32365962044197" y1="184.97166512339345" y2="189.96999836594603" /><path d="M 102.22038585953345 185.97133177190398 a86.0,86.0 0 0,1 -42.740103519485714,-10.115201625700543" fill="none" id="id55" stroke="none" /><text fill="#e1ed5e" style="font-size:6.75px; font-family:Arial;" text-anchor="middle"><textPath startOffset="22.20632615414155" xlink:href="#id55">July</textPath></text><path d="M 99.81925306533755 120.99922214144158 l -0.3325211989157686 38.63239249844619 a59.63382352941176,59.63382352941176 0 0,0 -1.0263841747312619,-0.01767013437344514 l 0.9974650635396983 -38.62094488679358" fill="#51ff2b" stroke="none" /><path d="M 99.45781275523022 120.99299961872073 l -0.7919521777464473 30.663671869550544 a51.67389705882353,51.67389705882353 0 0,0 -0.8889870170005933,-0.03061851034343908 l 1.3196595464216838 -30.645496560781012" fill="#afff20" stroke="none" /><path d="M 99.09653310690486 120.98055641714683 l -1.8537679155749858 43.04870785444723 a64.08860294117648,64.08860294117648 0 0,0 -1.1017500162130989,-0.05694789120108901 l 2.5945060002015734 -43.01042015648394" fill="#31ff43" stroke="none" /><path d="M 98.37488393609728 120.93702456842531 l -3.2338288841123006 41.66271954394741 a62.78803475935829,62.78803475935829 0 0,0 -1.0768317855440228,-0.09291357752858719 l 3.9505049873978653 -41.60088171414016" fill="#30ff31" stroke="none" /><path d="M 97.65516085044442 120.86867818915974 l -4.8487699927474575 43.15324597470966 a64.42479946524064,64.42479946524064 0 0,0 -1.100966371594685,-0.13331169513035604 l 5.590863787393531 -43.06338875085396" fill="#32ff47" stroke="none" /><path d="M 97.2962882734958 120.8252237178851 l -5.176722382227465 39.87348232374609 a61.208121657754006,61.208121657754006 0 0,0 -1.0436608739428483,-0.1446418872689306 l 5.862311847357144 -39.778465870984554" fill="#3fff2d" stroke="none" /><path d="M 94.11515582081647 120.15858648285463 l -11.65285689304505 39.91696573406436 a62.58308823529412,62.58308823529412 0 0,0 -1.0315034769071203,-0.3107835360400693 l 12.338235344392416 -39.71046682891857" fill="#30ff2f" stroke="none" /><path d="M 93.76903079525671 120.05430185196036 l -11.713680643689703 37.70034479502722 a60.47817513368984,60.47817513368984 0 0,0 -0.9914926088752988,-0.3174446230572548 l 12.360894597655943 -37.493127325310255" fill="#47ff2c" stroke="none" /><path d="M 93.42475214034765 119.94407469862007 l -12.425724080229385 37.68976843614224 a60.68522727272727,60.68522727272727 0 0,0 -0.989256669477994,-0.3356095730887194 l 13.072650482644605 -37.4702958761554" fill="#45ff2d" stroke="none" /><path d="M 92.7421414339146 119.70592522655815 l -14.56374707856401 39.54225731123323 a63.138970588235296,63.138970588235296 0 0,0 -1.0166269612582375,-0.38440132743674765 l 15.242244260582531 -39.28570773368985" fill="#30ff36" stroke="none" /><path d="M 92.40401165467489 119.57807347666478 l -14.863206473163734 38.30876710198328 a62.09107620320856,62.09107620320856 0 0,0 -0.9930992315493657,-0.3951746794658196 l 15.520426780754958 -38.047245578111394" fill="#35ff2f" stroke="none" /><path d="M 91.7346041902142 119.30500536409082 l -16.789913988207257 39.21522780811203 a63.65835561497327,63.65835561497327 0 0,0 -1.0036174014001338,-0.4399563751771315 l 17.462452064265136 -38.92040687964045" fill="#31ff3d" stroke="none" /><path d="M 91.40352486487194 119.15986991738527 l -16.718592634958764 37.262488991401455 a61.84120989304812,61.84120989304812 0 0,0 -0.9674674585871804,-0.44411685895504815 l 17.357528089313362 -36.96918506211233" fill="#38ff2e" stroke="none" /><path d="M 91.07499286063937 119.00905698771935 l -15.468719760221399 32.94627901778617 a57.39695855614973,57.39695855614973 0 0,0 -0.8907115089887768,-0.4275956527638799 l 16.033543937210418 -32.67512908852272" fill="#6aff28" stroke="none" /><path d="M 90.42595943632237 118.69057910512821 l -13.444935239439937 26.247395129016443 a50.49054144385026,50.49054144385026 0 0,0 -0.770122845753726,-0.4028918746448499 l 13.894748987720158 -26.012073835426875" fill="#beff1e" stroke="none" /><path d="M 90.10565033884886 118.52300852407294 l -19.48842962001867 36.48388831352493 a62.362700534759355,62.362700534759355 0 0,0 -0.9424999304761882,-0.5139261099545884 l 20.1135523623635 -36.14302155181057" fill="#32ff2f" stroke="none" /><line stroke="#e1ed5e" stroke-width="0.3" x1="58.666819895761336" x2="56.23545636021788" y1="174.27360380694188" y2="178.64263932499728" /><path d="M 58.180547188652646 175.14741091055294 a86.0,86.0 0 0,1 -31.652253787137756,-30.449443065178592" fill="none" id="id56" stroke="none" /><text fill="#e1ed5e" style="font-size:6.75px; font-family:Arial;" text-anchor="middle"><textPath startOffset="22.20632615414155" xlink:href="#id56">August</textPath></text><path d="M 89.4739219176387 118.17145234162733 l -21.173529725498465 36.55243513304949 a63.242145721925134,63.242145721925134 0 0,0 -0.9372851263699075,-0.5537645736454445 l 21.799582722896755 -36.182551987110294" fill="#30ff37" stroke="none" /><path d="M 88.8546689885994 117.79835938074946 l -20.64344766008684 32.96622594125579 a59.89632352941177,59.89632352941177 0 0,0 -0.8691190366617528,-0.5547128901415174 l 21.207848498795517 -32.60599862229047" fill="#4eff2c" stroke="none" /><path d="M 88.24862548938628 117.40417183066458 l -24.46579615692344 36.23464811750527 a64.72098930481283,64.72098930481283 0 0,0 -0.9179381468968597,-0.6313662276425566 l 25.08589118844319 -35.80814110049762" fill="#32ff4b" stroke="none" /><path d="M 87.95078237400918 117.19931262002967 l -21.71356002534001 30.99440300289974 a58.84351604278075,58.84351604278075 0 0,0 -0.8245732716512373,-0.5883111355449313 l 22.24386062484013 -30.61604760551059" fill="#59ff2a" stroke="none" /><path d="M 87.36589467227662 116.77436683061367 l -25.74283413099356 34.178893698580595 a63.7889037433155,63.7889037433155 0 0,0 -0.8713906630881667,-0.668145202451925 l 26.327353522575216 -33.7307091543013" fill="#31ff3f" stroke="none" /><path d="M 87.07902340077011 116.55440617244103 l -22.309413473135553 28.58290851832566 a57.25868983957219,57.25868983957219 0 0,0 -0.7717449112338879,-0.6131208320675615 l 22.798115877086797 -28.194653772252966" fill="#6cff28" stroke="none" /><path d="M 86.24171649860922 115.8653595955263 l -27.77315531139707 32.0266039054344 a63.39164438502674,63.39164438502674 0 0,0 -0.8182280939232223,-0.7219911591380487 l 28.32032575822688 -31.543789604524058" fill="#30ff39" stroke="none" /><path d="M 85.18274418774928 114.88116024355367 l -29.485942883068457 29.61311099268666 a62.7894385026738,62.7894385026738 0 0,0 -0.7593317407263367,-0.769199044401395 l 29.991315248850327 -29.101171454304602" fill="#30ff31" stroke="none" /><path d="M 84.43433777217949 114.09645910891817 l -31.231731300894 28.283847917302293 a63.13546122994653,63.13546122994653 0 0,0 -0.7225737799994327,-0.8118193017814187 l 31.713963930541773 -27.74205444578001" fill="#30ff36" stroke="none" /><path d="M 84.19399662182784 113.82643327865904 l -28.926782318802584 25.303944085545876 a59.43238636363636,59.43238636363636 0 0,0 -0.6669374771749721,-0.7757989597025099 l 29.358062305548334 -24.802268026681837" fill="#53ff2b" stroke="none" /><path d="M 83.72743513129214 113.27417163493432 l -5.844417850238453 4.767521670755488 a28.542312834224596,28.542312834224596 0 0,0 -0.30728122287356363,-0.38338057218270366 l 5.925616985166878 -4.666213264994525" fill="#ff0000" stroke="none" /><line stroke="#e1ed5e" stroke-width="0.3" x1="26.63291911575756" x2="22.317208475507996" y1="142.92168965132927" y2="145.44649492493687" /><path d="M 25.769776987707644 143.4266507060508 a86.0,86.0 0 0,1 -11.730757126820373,-40.83630448921669" fill="none" id="id57" stroke="none" /><text fill="#e1ed5e" style="font-size:6.75px; font-family:Arial;" text-anchor="middle"><textPath startOffset="21.46611528233685" xlink:href="#id57">September</textPath></text><path d="M 81.87401531095188 110.60418214915194 l -35.736420816252014 20.906754705759482 a62.40270721925133,62.40270721925133 0 0,0 -0.5344286822890473,-0.931821454698656 l 36.09100149469344 -20.288513405202522" fill="#32ff2f" stroke="none" /><path d="M 81.18737489456691 109.33194174019688 l -36.741836498528826 18.225668970200694 a62.01387032085562,62.01387032085562 0 0,0 -0.466127974993533,-0.9603616910323284 l 37.050117730137075 -17.59051832320308" fill="#36ff2e" stroke="none" /><path d="M 80.73074385275274 108.34839909993369 l -38.51919151627201 16.688427478844716 a62.97894385026738,62.97894385026738 0 0,0 -0.42240583080261795,-0.9984426073521245 l 38.800748328266934 -16.022910345826432" fill="#30ff34" stroke="none" /><path d="M 80.45479744820244 107.68017299344265 l -38.75986123691032 15.23046070831973 a62.64485294117647,62.64485294117647 0 0,0 -0.38573037330083354,-1.0070202862925577 l 39.01628588980466 -14.561016855194016" fill="#2fff2f" stroke="none" /><path d="M 80.20201598880116 107.00284435728193 l -34.27790660869429 12.124610502683012 a57.359057486631016,57.359057486631016 0 0,0 -0.3212357661372507,-0.9336615035238434 l 34.48153320577477 -11.532776296069871" fill="#6bff28" stroke="none" /><path d="M 79.97269907076064 106.31721596034903 l -38.62283726330349 12.182810097864284 a61.49869652406418,61.49869652406418 0 0,0 -0.3097578865722043,-1.012306695789339 l 38.82682192238182 -11.516176429522897" fill="#3cff2e" stroke="none" /><path d="M 79.86692584326677 105.97154293290107 l -35.10570226707651 10.412478821937905 a57.6173462566845,57.6173462566845 0 0,0 -0.2738397809285706,-0.9532722018165848 l 35.27973468489119 -9.806649144616724" fill="#68ff28" stroke="none" /><path d="M 79.67330655649465 105.27499134158121 l -25.695739509147817 6.668315424887237 a47.54689171122995,47.54689171122995 0 0,0 -0.19876567298495487,-0.7939700593483451 l 25.806716496427832 -6.2250175261415" fill="#e5ff1a" stroke="none" /><path d="M 79.58551787078972 104.9243191809786 l -40.95109635404653 9.878098693955705 a63.12563502673796,63.12563502673796 0 0,0 -0.24570731820761357,-1.0585006960804337 l 41.115064238184694 -9.171729340526698" fill="#30ff36" stroke="none" /><path d="M 79.4281124754447 104.21870165774334 l -41.85540284282431 8.583337680986828 a63.7264371657754,63.7264371657754 0 0,0 -0.2111167859449988,-1.07647994321073 l 41.99694956174498 -7.861594010708143" fill="#31ff3e" stroke="none" /><path d="M 79.35854240842038 103.8639653848113 l -37.447136299162494 7.009894421375572 a59.0975935828877,59.0975935828877 0 0,0 -0.17856916962033123,-1.001510734901852 l 37.56225191112202 -6.364264935740507" fill="#57ff2a" stroke="none" /><path d="M 79.29508885075956 103.50808413554451 l -40.40156509445536 6.845336767563339 a61.977372994652406,61.977372994652406 0 0,0 -0.16916353758806624,-1.053381510040112 l 40.513410386404715 -6.1488760278300125" fill="#37ff2e" stroke="none" /><path d="M 79.1416061653843 102.43462659150553 l -41.32220709067549 4.8231970783722895 a62.60274064171122,62.60274064171122 0 0,0 -0.11571877673513295,-1.0714121546059072 l 41.399108168911674 -4.1111886018816" fill="#30ff2f" stroke="none" /><path d="M 79.07016306316243 101.71520430193888 l -40.34379965435272 3.3061824099505706 a61.479044117647064,61.479044117647064 0 0,0 -0.0773565674102565,-1.055468902233932 l 40.39473278042731 -2.611240371219878" fill="#3cff2e" stroke="none" /><path d="M 79.04373962182676 101.35467743843564 l -37.17144700969359 2.4028772170861608 a58.24903074866311,58.24903074866311 0 0,0 -0.05606787946165984,-1.001129652059014 l 37.207301240042774 -1.762675848691709" fill="#60ff29" stroke="none" /><line stroke="#e1ed5e" stroke-width="0.3" x1="15.007084014347285" x2="10.007500721073583" y1="101.09737516637583" y2="101.16192664675087" /><path d="M 14.007167355692545 101.11028546245083 a86.0,86.0 0 0,1 10.666146001902534,-42.60595125391555" fill="none" id="id58" stroke="none" /><text fill="#e1ed5e" style="font-size:6.75px; font-family:Arial;" text-anchor="middle"><textPath startOffset="22.20632615414155" xlink:href="#id58">October</textPath></text><path d="M 79.00175016825051 100.2711162175752 l -40.90728563479327 0.5281691875007858 a61.91069518716578,61.91069518716578 0 0,0 -0.0045864112529250736,-1.0657204527610362 l 40.9103163433357 0.1760607434639257" fill="#37ff2e" stroke="none" /><path d="M 79.00486145842228 99.54816195383935 l -41.747485708309625 -0.8984509598356151 a62.757152406417106,62.757152406417106 0 0,0 0.032539002404510436,-1.0798110774779928 l 41.72583501144947 1.6169321847386022" fill="#30ff31" stroke="none" /><path d="M 79.01574976396665 99.18683210126434 l -38.15809166416667 -1.4786773351106524 a59.18673128342246,59.18673128342246 0 0,0 0.04821292441489793,-1.017698633415826 l 38.12698513151827 2.1352870751494875" fill="#56ff2b" stroke="none" /><path d="M 79.05617556472873 98.46500227214037 l -42.52534352497209 -3.1167328531149927 a63.63940508021391,63.63940508021391 0 0,0 0.08947553735302075,-1.0918281889322703 l 42.46539350379957 3.8482749592550416" fill="#31ff3d" stroke="none" /><path d="M 79.12142395522702 97.74499172005258 l -42.5428899447069 -4.594880842088058 a63.79030748663102,63.79030748663102 0 0,0 0.12730615564558218,-1.0906813970122533 l 42.457493436057725 5.326505977425173" fill="#31ff3f" stroke="none" /><path d="M 79.16333360222342 97.38593545837743 l -39.854999374276595 -5.000010015124252 a61.167413101604275,61.167413101604275 0 0,0 0.14005590234320978,-1.0435791513170787 l 39.76302747287556 5.68530750850599" fill="#3fff2d" stroke="none" /><path d="M 79.26566170972629 96.67025291283419 l -37.684244047018524 -6.051748557920776 a59.167078877005345,59.167078877005345 0 0,0 0.1701423691746898,-1.0041898940763374 l 37.57448981632361 6.699524240312941" fill="#56ff2b" stroke="none" /><path d="M 79.3925641242962 95.95851677861259 l -43.733634886349066 -8.576940511645601 a65.56674465240641,65.56674465240641 0 0,0 0.22673824577235802,-1.1056562108350076 l 43.57951734466172 9.328472378644012" fill="#33ff56" stroke="none" /><path d="M 79.71946130924805 94.55025226153421 l -40.660717728681064 -10.926270641288342 a63.10317513368984,63.10317513368984 0 0,0 0.29091534153376347,-1.0465772674970966 l 40.46661561658094 11.624559212204382" fill="#30ff36" stroke="none" /><path d="M 79.81627453868168 94.20196356495316 l -60.551176383954946 -17.394109305140535 a84.0,84.0 0 0,0 0.4111764115531722,-1.3862824530138431 l 60.24279407529007 18.433821144900918" fill="#4dd2ff" stroke="none" /><path d="M 79.91906864156998 93.8553929516997 l -37.80342712884123 -11.567551357037537 a60.53362299465241,60.53362299465241 0 0,0 0.3134618832529242,-0.9937598310958375 l 37.5987097618201 12.216561354559788" fill="#46ff2c" stroke="none" /><path d="M 80.14247586403 93.16781622104843 l -40.93689659862184 -14.08475694082593 a64.29214572192514,64.29214572192514 0 0,0 0.3690580997573742,-1.0433769459122995 l 40.688385418054665 14.78733151316484" fill="#32ff46" stroke="none" /><path d="M 80.2630227832202 92.82701384747504 l -40.86451419201456 -14.851341783977814 a64.47954545454546,64.47954545454546 0 0,0 0.3880913657597753,-1.039891913348545 l 40.60281823775316 15.5525568343557" fill="#32ff48" stroke="none" /><path d="M 80.65960295795068 91.81776055985345 l -38.18758810338061 -16.155820835746567 a62.46447192513369,62.46447192513369 0 0,0 0.42746309144822664,-0.9866437509768189 l 37.903834302089706 16.810763731309983" fill="#31ff2f" stroke="none" /><path d="M 80.803312248108 91.48605970444005 l -34.01765991327922 -15.087203023749604 a58.213235294117645,58.213235294117645 0 0,0 0.41413916547659135,-0.9125007549010239 l 33.75291843083927 15.6705257874927" fill="#61ff29" stroke="none" /><path d="M 81.10775173730289 90.83032412892265 l -39.65477858936845 -19.247125135541413 a65.07894385026738,65.07894385026738 0 0,0 0.4978228903386918,-1.0035805693582651 l 39.317595686076345 19.92686529339864" fill="#33ff50" stroke="none" /><path d="M 81.26839172434947 90.50648371742162 l -38.960117466644654 -19.745688896428316 a64.67817513368985,64.67817513368985 0 0,0 0.5118525041732064,-0.9887361186827482 l 38.61445552931133 20.413397737371398" fill="#32ff4b" stroke="none" /><path d="M 81.43458229118936 90.18545643968196 l -32.71658469634859 -17.29550881555245 a58.006885026737976,58.006885026737976 0 0,0 0.474252968983629,-0.878718724983438 l 32.414023628146495 17.856108523868357" fill="#63ff29" stroke="none" /><line stroke="#e1ed5e" stroke-width="0.3" x1="26.266209847984243" x2="21.928928074336255" y1="57.711370442889674" y2="55.22380399835377" /><path d="M 25.398753493254645 57.213857153982495 a86.0,86.0 0 0,1 29.58750427330803,-30.492523968695096" fill="none" id="id59" stroke="none" /><text fill="#e1ed5e" style="font-size:6.75px; font-family:Arial;" text-anchor="middle"><textPath startOffset="21.46611528233685" xlink:href="#id59">November</textPath></text><path d="M 82.54541684631803 88.32363383020206 l -35.71364057771578 -23.890891061124993 a63.967881016042774,63.967881016042774 0 0,0 0.6201093122799689,-0.909933898300721 l 35.297106799767064 24.50210298269613" fill="#31ff41" stroke="none" /><path d="M 82.7489923806493 88.02491185347247 l -36.6508957666867 -25.441859231628168 a65.61587566844919,65.61587566844919 0 0,0 0.6520573901201482,-0.9222889359452642 l 36.20752575676268 26.06897466790522" fill="#33ff57" stroke="none" /><path d="M 83.17141714833178 87.43820079747576 l -34.34448282381566 -25.636650498146214 a63.857687165775395,63.857687165775395 0 0,0 0.6651053611808198,-0.8752006925398542 l 33.898101522410734 26.224035966567094" fill="#31ff40" stroke="none" /><path d="M 83.39014120810768 87.1503855733568 l -34.679186793807546 -26.828294238568667 a64.84522058823529,64.84522058823529 0 0,0 0.6905889989306019,-0.8769778982310119 l 34.21224371428297 27.421264530752726" fill="#32ff4d" stroke="none" /><path d="M 83.6137871275137 86.86637796730984 l -29.93386487204156 -23.992124981308358 a59.36219919786096,59.36219919786096 0 0,0 0.6459215252558471,-0.7918234153428219 l 29.51644485470932 24.50383256625926" fill="#54ff2b" stroke="none" /><path d="M 84.31358615837235 86.03803664274999 l -21.232756489708503 -18.898581350443465 a49.425100267379676,49.425100267379676 0 0,0 0.5711102330032998,-0.6306341835984336 l 20.904302616089158 19.261268321311455" fill="#ccff1d" stroke="none" /><path d="M 86.37877921826538 84.01681056812374 l -28.477092324166573 -33.41512250477018 a64.90347593582888,64.90347593582888 0 0,0 0.8565480562271773,-0.7173343640868778 l 27.897686730980286 33.90035802625087" fill="#32ff4e" stroke="none" /><path d="M 86.93701828274178 83.55741782278169 l -17.706627223433316 -22.287612392355147 a49.46510695187166,49.46510695187166 0 0,0 0.6712354827066952,-0.5239099412133765 l 17.320359185567195 22.589100722791745" fill="#ccff1d" stroke="none" /><path d="M 87.22198572758235 83.33499621200491 l -26.63395996273578 -34.7358387778919 a64.77152406417112,64.77152406417112 0 0,0 0.8906203190695434,-0.6707967598275981 l 26.032093489907847 35.189152127225356" fill="#32ff4c" stroke="none" /><path d="M 87.80319425747018 82.90503203632743 l -25.52034848614095 -35.76916358281275 a64.93997326203208,64.93997326203208 0 0,0 0.9155573275789244,-0.6414064173833214 l 24.900860018978364 36.20315484296001" fill="#33ff4e" stroke="none" /><path d="M 88.09926311788651 82.69761687909137 l -25.921491397304013 -37.68704237933206 a66.74097593582889,66.74097593582889 0 0,0 0.9521563371952594,-0.642900209208553 l 25.268930365702214 38.127654500839284" fill="#35ff66" stroke="none" /><path d="M 88.70189139769569 82.29822771554957 l -15.147848481999917 -23.733509197551097 a49.15558155080214,49.15558155080214 0 0,0 0.7171585114842919,-0.4490845940992173 l 14.737070818143383 23.990738132973245" fill="#d0ff1d" stroke="none" /><path d="M 89.00827224532344 82.1063720568725 l -14.653310325895179 -23.854382946775612 a48.99555481283422,48.99555481283422 0 0,0 0.7224229693698049,-0.4352517557995376 l 14.240525290307724 24.10308131203377" fill="#d2ff1c" stroke="none" /><line stroke="#e1ed5e" stroke-width="0.3" x1="56.762969772571076" x2="54.21961505331055" y1="26.818313649435495" y2="22.513508569990535" /><path d="M 56.25429882871897 25.957352633546506 a86.0,86.0 0 0,1 42.265352541879196,-11.944610805530505" fill="none" id="id60" stroke="none" /><text fill="#e1ed5e" style="font-size:6.75px; font-family:Arial;" text-anchor="middle"><textPath startOffset="22.20632615414155" xlink:href="#id60">December</textPath></text><path d="M 89.94658935756843 81.56283822128135 l -23.212559071226615 -42.570001576177155 a69.48739973262033,69.48739973262033 0 0,0 1.0550667432673193,-0.5635801149781852 l 22.476347281430993 42.96326041765709" fill="#39ff88" stroke="none" /><path d="M 90.26544431104013 81.39251694778311 l -18.355103400680495 -35.08555360541004 a60.59679144385027,60.59679144385027 0 0,0 0.9283991491823695,-0.4755621034297978 l 17.74844376390936 35.39630823415234" fill="#46ff2d" stroke="none" /><path d="M 90.91171255644093 81.06846463323043 l -12.880035176110798 -26.83000983145487 a50.76146390374332,50.76146390374332 0 0,0 0.7909646197920595,-0.3713684946700111 l 12.41629234501913 27.04774330876489" fill="#bbff1f" stroke="none" /><path d="M 91.23893434514133 80.91482961587045 l -19.586486686279965 -42.667347827353794 a67.94819518716577,67.94819518716577 0 0,0 1.0671680852684347,-0.47880721265691284 l 18.849136482544758 42.998175370527235" fill="#37ff75" stroke="none" /><path d="M 92.23578459929587 80.48803036053334 l -17.75934523322156 -44.63036986016644 a69.03399064171123,69.03399064171123 0 0,0 1.1078865254053085,-0.42984275980738734 l 16.988475542816573 44.929455323864374" fill="#38ff83" stroke="none" /><path d="M 92.91201910852362 80.23233633223022 l -16.228680847947512 -45.260153728628644 a69.0817179144385,69.0817179144385 0 0,0 1.1228015959248376,-0.39172343003092414 l 15.447197247959389 45.53279801183178" fill="#38ff83" stroke="none" /><path d="M 95.692805502759 79.44645832069477 l -9.536433805806496 -45.506997611817326 a67.49548796791444,67.49548796791444 0 0,0 1.139174673582648,-0.2285077227217593 l 8.751692722756712 45.6644092906163" fill="#36ff6f" stroke="none" /><path d="M 96.04723909329186 79.375362276772 l -8.50424883310884 -44.37330145453321 a66.18088235294118,66.18088235294118 0 0,0 1.1206783168772054,-0.20479679921378285 l 7.739175395128741 44.513113735097726" fill="#34ff5e" stroke="none" /></svg>