<?xml version="1.0" encoding="utf-8" ?>
<svg baseProfile="full" height="200mm" version="1.1" viewBox="0,0,200,200" width="200mm" xmlns="http://www.w3.org/2000/svg" xmlns:ev="http://www.w3.org/2001/xml-events" xmlns:xlink="http://www.w3.org/1999/xlink"><defs /><rect fill="#1a1a1a" height="200" width="200" x="0" y="0" /><text alignment-baseline="middle" fill="#e1ed5e" style="dominant-baseline: central; font-size:9.0px; font-family:Arial;" text-anchor="middle" x="100.0" y="100.0">2026</text><line stroke="#e1ed5e" stroke-width="0.3" x1="100.0" x2="100.0" y1="15.0" y2="10.0" /><path d="M 100.0 14.0 a86.0,86.0 0 0,1 42.46469731375804,11.215312516191453" fill="none" id="id145" stroke="none" /><text fill="#e1ed5e" style="font-size:6.75px; font-family:Arial;" text-anchor="middle"><textPath startOffset="22.20632615414155" xlink:href="#id145">January</textPath></text><path d="M 100.72285384407766 79.0124445844662 l 0.3551346630805425 -10.311086373055305 a31.317200338344126,31.317200338344126 0 0,0 0.5385949526710909,0.023193031626595622 l -0.5325704481409649 10.303445614904515" fill="#ff4f07" stroke="none" /><path d="M 101.44485096284872 79.0497635885617 l 1.4123168330066438 -20.478493837873476 a41.527136885221374,41.527136885221374 0 0,0 0.7127041686250845,0.055319560306086285 l -1.7646111909940694 20.451149015378924" fill="#ffdf14" stroke="none" /><path d="M 103.95276090670814 79.375362276772 l 3.740874353411283 -19.519060253881328 a40.874301349296786,40.874301349296786 0 0,0 0.6898678756073325,0.13838100590681082 l -4.076308638485741 19.45177529189731" fill="#ffd614" stroke="none" /><path d="M 104.66035177308747 79.52364482259891 l 1.5277240333303972 -6.712416024080632 a27.88407361976539,27.88407361976539 0 0,0 0.46709317192507754,0.1105458626195445 l -1.6430408922179982 6.685124249320219" fill="#ff1b02" stroke="none" /><path d="M 105.36241919743992 79.69619591428918 l 9.40239525684831 -35.60042290662478 a57.821123661514434,57.821123661514434 0 0,0 0.960111803248901,0.26243482426140874 l -10.013804949320923 35.43330154153708" fill="#59ff2a" stroke="none" /><path d="M 106.0581310904928 79.89281104454417 l 9.121724092746163 -30.275381498465 a52.61968651491951,52.61968651491951 0 0,0 0.865004069920323,0.26876097514830083 l -9.641513535377205 30.11388038843418" fill="#94ff23" stroke="none" /><path d="M 106.74666289553966 80.11325718540242 l 5.563460511444839 -16.399086491103425 a38.317105145060964,38.317105145060964 0 0,0 0.6227770256290016,0.21727467569450853 l -5.844919541137115 16.30089096223671" fill="#ffb310" stroke="none" /><path d="M 107.4271985657038 80.35727306442388 l 16.643822872611718 -44.01795171606914 a68.05950396140048,68.05950396140048 0 0,0 1.0922475531792293,0.4237750815496831 l -17.399053590790615 43.724933930628914" fill="#38ff7f" stroke="none" /><path d="M 108.09893153111575 80.62456947434976 l 3.3056508254427426 -7.9082540288620775 a29.571336486497515,29.571336486497515 0 0,0 0.46795406753861885,0.20035351019381015 l -3.4412886507716767 7.850180990705476" fill="#ff3505" stroke="none" /><path d="M 108.43124777332544 80.76684994638697 l 25.2937433199763 -57.69945016083909 a84.0,84.0 0 0,0 1.3192715261328791,0.591918677933875 l -26.283196964575957 57.255511152388685" fill="#4dd2ff" stroke="none" /><path d="M 109.08828744355905 81.06846463323043 l 21.86806983887142 -45.55271167737807 a71.52981317638226,71.52981317638226 0 0,0 1.105403792433898,0.5424168402313514 l -22.648944898315747 45.16953967701189" fill="#3cffa8" stroke="none" /><path d="M 110.05341064243156 81.56283822128135 l 23.31023117303567 -42.74912450334789 a69.69142145330225,69.69142145330225 0 0,0 1.0482781540679318,0.5833656577921279 l -24.042633416175637 42.34154344799558" fill="#3aff92" stroke="none" /><line stroke="#e1ed5e" stroke-width="0.3" x1="143.23703022742887" x2="145.7803849466894" y1="26.81831364943548" y2="22.513508569990506" /><path d="M 143.74570117128098 25.957352633546492 a86.0,86.0 0 0,1 28.547481713284135,27.462654790039103" fill="none" id="id146" stroke="none" /><text fill="#e1ed5e" style="font-size:6.75px; font-family:Arial;" text-anchor="middle"><textPath startOffset="19.985693538727396" xlink:href="#id146">February</textPath></text><path d="M 110.68208982089419 81.91981866633111 l 4.375417088082796 -7.4056982940018266 a29.601665066512908,29.601665066512908 0 0,0 0.43646659084345696,0.26296623732516516 l -4.50224574514389 7.329285447218047" fill="#ff3505" stroke="none" /><path d="M 111.2981086023043 82.29822771554956 l 23.05342934119105 -36.11990032475006 a63.8498285160999,63.8498285160999 0 0,0 0.9213620684951159,0.5992795187025208 l -23.671758435470444 35.71772188188801" fill="#32ff4b" stroke="none" /><path d="M 111.90073688211348 82.69761687909136 l 5.038585939756135 -7.3255585079200385 a29.891071685981835,29.891071685981835 0 0,0 0.4214197871758114,0.2952314920810664 l -5.163936866515597 7.237742173075036" fill="#ff3905" stroke="none" /><path d="M 112.48926042617603 83.11751280151076 l 21.1182169631017 -28.546768613075102 a56.50911271700669,56.50911271700669 0 0,0 0.7770106497493693,0.5852283122711004 l -21.60647376660945 28.179023711298154" fill="#67ff28" stroke="none" /><path d="M 112.77801427241765 83.33499621200491 l 26.401656707024156 -34.43287037029245 a64.38974577953779,64.38974577953779 0 0,0 0.8737610156537495,0.6819843320853287 l -26.990450277837336 33.9733076489839" fill="#33ff51" stroke="none" /><path d="M 113.34407831869373 83.78471172551755 l 5.456085505011748 -6.630056958677331 a29.586415102550365,29.586415102550365 0 0,0 0.39045961686051317,0.32699870010323634 l -5.569402658831378 6.535157101180276" fill="#ff3505" stroke="none" /><path d="M 114.16331599549186 84.49514656593476 l 29.52153044385939 -32.317785102516105 a64.77168027024013,64.77168027024013 0 0,0 0.8167157280438311,0.7590482603212279 l -30.07345405569807 31.804832256120235" fill="#33ff56" stroke="none" /><path d="M 114.68862486808459 84.99185889309783 l 30.204419470943538 -30.861445066715536 a64.18258615672079,64.18258615672079 0 0,0 0.7829181345727744,0.7795560352923551 l -30.731173405683634 30.33695318077306" fill="#33ff4f" stroke="none" /><path d="M 115.4437574822437 85.77008943001954 l 42.01459956366591 -38.71234025216301 a78.13030600560823,78.13030600560823 0 0,0 0.9028007434702847,0.9968951297133305 l -42.674743947752226 37.98339233518013" fill="#45fff1" stroke="none" /><path d="M 115.9244219780498 86.31012108654704 l 6.850386421032345 -5.889128079095285 a30.033804494754847,30.033804494754847 0 0,0 0.3336460869156771,0.3949317295150316 l -6.950743121435139 5.770337399951147" fill="#ff3c05" stroke="none" /><path d="M 116.38621287248628 86.86637796730983 l 16.682674913560223 -13.371237668762046 a42.37993543175593,42.37993543175593 0 0,0 0.45133807733349973,0.5731535241141814 l -16.910367071487688 13.082091750694826" fill="#ffea16" stroke="none" /><path d="M 116.82858285166822 87.43820079747576 l 14.218748041382648 -10.613671952147051 a38.7432473964637,38.7432473964637 0 0,0 0.3943276419646856,0.5378624604855139 l -14.39933829586096 10.367347047990044" fill="#ffb911" stroke="none" /><path d="M 117.2510076193507 88.02491185347247 l 16.42874460702964 -11.40429991957615 a40.9990426275522,40.9990426275522 0 0,0 0.39744771476068175,0.5832054789392029 l -16.622616787459055 11.11981641736654" fill="#ffd814" stroke="none" /><path d="M 117.65298651832404 88.62581576622439 l 4.338718860821627 -2.7955262759826445 a26.161341735727127,26.161341735727127 0 0,0 0.24064996516768625,0.3806504526811398 l -4.38619642223527 2.7204281755872985" fill="#ff0000" stroke="none" /><line stroke="#e1ed5e" stroke-width="0.3" x1="172.23445277983987" x2="176.4835382374775" y1="55.19839476539836" y2="52.563006222186495" /><path d="M 173.08426987136738 54.67131705675599 a86.0,86.0 0 0,1 12.851231095245387,41.99856678651699" fill="none" id="id147" stroke="none" /><text fill="#e1ed5e" style="font-size:6.75px; font-family:Arial;" text-anchor="middle"><textPath startOffset="22.20632615414155" xlink:href="#id147">March</textPath></text><path d="M 118.21658344932153 89.55222093294921 l 15.18146886238698 -8.707046138963976 a38.50113280006963,38.50113280006963 0 0,0 0.3247705465294099,0.5777305634043962 l -15.329097050208823 8.444432065624786" fill="#ffb610" stroke="none" /><path d="M 118.56541770881063 90.18545643968196 l 7.761843578248182 -4.10327163664835 a29.779695544682365,29.779695544682365 0 0,0 0.23567164204237714,0.4552425996488151 l -7.831324653450675 3.96905631473919" fill="#ff3805" stroke="none" /><path d="M 118.89224826269711 90.83032412892265 l 28.615919233196106 -13.889225912801738 a52.808511911399535,52.808511911399535 0 0,0 0.38988224129869126,0.8211914325430658 l -28.850759668336554 13.394592064618132" fill="#92ff23" stroke="none" /><path d="M 119.196687751892 91.48605970444005 l 19.789599350270148 -8.776903053217914 a42.648608954152195,42.648608954152195 0 0,0 0.2918572056665858,0.6736466701087502 l -19.937747265779414 8.43495723852256" fill="#ffee16" stroke="none" /><path d="M 119.61058180528143 92.48833698450437 l 8.40698094270849 -3.220221023851144 a30.002619175190997,30.002619175190997 0 0,0 0.18058063793701404,0.48386633062653617 l -8.461166169147129 3.075031556195275" fill="#ff3b05" stroke="none" /><path d="M 119.7369772167798 92.82701384747503 l 19.957336861014987 -7.25307119590894 a42.23446105642786,42.23446105642786 0 0,0 0.24243972209573594,0.6854097416487298 l -20.079229663920533 6.908463827833596" fill="#ffe915" stroke="none" /><path d="M 119.85752413597 93.16781622104841 l 54.99274649825115 -18.920815506136854 a79.15667998466026,79.15667998466026 0 0,0 0.432205673480148,1.2922399515291643 l -55.31028946550307 17.97140245168538" fill="#47fffb" stroke="none" /><path d="M 120.08093135843002 93.85539295169968 l 16.345232452104952 -5.001512566255962 a38.09332477500387,38.09332477500387 0 0,0 0.18646519744186135,0.6286679489588903 l -16.428903546658514 4.719415230550542" fill="#ffb010" stroke="none" /><path d="M 120.18372546131832 94.20196356495316 l 16.257793151652827 -4.67026155440886 a37.91529429683442,37.91529429683442 0 0,0 0.17479533741920453,0.6288318300538718 l -16.335775259638392 4.3897184209360365" fill="#ffae10" stroke="none" /><path d="M 120.45610955862082 95.25157060432595 l 17.702816568035537 -4.109313862295967 a39.17350199769905,39.17350199769905 0 0,0 0.14681783276218138,0.6581555561888727 l -17.770928787799754 3.8039801365571306" fill="#ffbf11" stroke="none" /><path d="M 120.6074358757038 95.95851677861258 l 21.083341743201814 -4.13481679233988 a42.48497170039681,42.48497170039681 0 0,0 0.13456462558866708,0.7188496106444575 l -21.151392092700338 3.771289104232859" fill="#ffec16" stroke="none" /><path d="M 120.67395015179393 96.31383870115 l 18.576376937381884 -3.312164401899984 a39.86934585895619,39.86934585895619 0 0,0 0.11464931327756042,0.6766667368896706 l -18.630638112179668 2.9919118766944757" fill="#ffc912" stroke="none" /><path d="M 120.87857604477298 97.74499172005257 l 21.576075044041215 -2.330342249813572 a42.701555458246865,42.701555458246865 0 0,0 0.07263915708610928,0.7314663988244282 l -21.612991326809553 1.9586003202847089" fill="#ffef16" stroke="none" /><path d="M 120.91429891909075 98.10471618934814 l 17.943874956616167 -1.6260997242701054 a39.01740405197009,39.01740405197009 0 0,0 0.05485757117417876,0.6694013174574301 l -17.969207011609843 1.3169844896049065" fill="#ffbd11" stroke="none" /><path d="M 120.96714384426684 98.82574320788733 l 21.415430005501914 -1.1993628854151346 a42.4489886393616,42.4489886393616 0 0,0 0.03457852522651319,0.7298980158457112 l -21.432902138961925 0.8305537629464236" fill="#ffeb16" stroke="none" /><line stroke="#e1ed5e" stroke-width="0.3" x1="184.98032266829074" x2="189.97916517819016" y1="98.17113171792111" y2="98.06355123074" /><path d="M 185.9800911702706 98.14961562048488 a86.0,86.0 0 0,1 -9.607161424134198,41.387399972396054" fill="none" id="id148" stroke="none" /><text fill="#e1ed5e" style="font-size:6.75px; font-family:Arial;" text-anchor="middle"><textPath startOffset="21.466115282336823" xlink:href="#id148">April</textPath></text><path d="M 120.92983693683757 101.71520430193887 l 18.152060888536877 1.4875650020128195 a39.21291201692809,39.21291201692809 0 0,0 -0.06092081360494299,0.6722561016810248 l -18.123765478654857 -1.7998024922424147" fill="#ffc011" stroke="none" /><line stroke="#e1ed5e" stroke-width="0.3" x1="174.80103733775053" x2="179.2010983576182" y1="140.37084112569926" y2="142.7455964860345" /><path d="M 175.68104954172406 140.8457921977663 a86.0,86.0 0 0,1 -30.038265399797805,32.042727171017184" fill="none" id="id149" stroke="none" /><text fill="#e1ed5e" style="font-size:6.75px; font-family:Arial;" text-anchor="middle"><textPath startOffset="22.206326154141568" xlink:href="#id149">May</textPath></text><line stroke="#e1ed5e" stroke-width="0.3" x1="143.8653032363475" x2="146.44561519142675" y1="172.8068346515853" y2="177.08958963109032" /><path d="M 144.38136562736335 173.6633856474863 a86.0,86.0 0 0,1 -40.68145358897372,12.25698825130547" fill="none" id="id150" stroke="none" /><text fill="#e1ed5e" style="font-size:6.75px; font-family:Arial;" text-anchor="middle"><textPath startOffset="21.466115282336833" xlink:href="#id150">June</textPath></text><line stroke="#e1ed5e" stroke-width="0.3" x1="102.19456741930631" x2="102.32365962044197" y1="184.97166512339345" y2="189.96999836594603" /><path d="M 102.22038585953345 185.97133177190398 a86.0,86.0 0 0,1 -42.740103519485714,-10.115201625700543" fill="none" id="id151" stroke="none" /><text fill="#e1ed5e" style="font-size:6.75px; font-family:Arial;" text-anchor="middle"><textPath startOffset="22.20632615414155" xlink:href="#id151">July</textPath></text><line stroke="#e1ed5e" stroke-width="0.3" x1="58.666819895761336" x2="56.23545636021788" y1="174.27360380694188" y2="178.64263932499728" /><path d="M 58.180547188652646 175.14741091055294 a86.0,86.0 0 0,1 -31.652253787137756,-30.449443065178592" fill="none" id="id152" stroke="none" /><text fill="#e1ed5e" style="font-size:6.75px; font-family:Arial;" text-anchor="middle"><textPath startOffset="22.20632615414155" xlink:href="#id152">August</textPath></text><line stroke="#e1ed5e" stroke-width="0.3" x1="26.63291911575756" x2="22.317208475507996" y1="142.92168965132927" y2="145.44649492493687" /><path d="M 25.769776987707644 143.4266507060508 a86.0,86.0 0 0,1 -11.730757126820373,-40.83630448921669" fill="none" id="id153" stroke="none" /><text fill="#e1ed5e" style="font-size:6.75px; font-family:Arial;" text-anchor="middle"><textPath startOffset="21.46611528233685" xlink:href="#id153">September</textPath></text><line stroke="#e1ed5e" stroke-width="0.3" x1="15.007084014347285" x2="10.007500721073583" y1="101.09737516637583" y2="101.16192664675087" /><path d="M 14.007167355692545 101.11028546245083 a86.0,86.0 0 0,1 10.666146001902534,-42.60595125391555" fill="none" id="id154" stroke="none" /><text fill="#e1ed5e" style="font-size:6.75px; font-family:Arial;" text-anchor="middle"><textPath startOffset="22.20632615414155" xlink:href="#id154">October</textPath></text><line stroke="#e1ed5e" stroke-width="0.3" x1="26.266209847984243" x2="21.928928074336255" y1="57.711370442889674" y2="55.22380399835377" /><path d="M 25.398753493254645 57.213857153982495 a86.0,86.0 0 0,1 29.58750427330803,-30.492523968695096" fill="none" id="id155" stroke="none" /><text fill="#e1ed5e" style="font-size:6.75px; font-family:Arial;" text-anchor="middle"><textPath startOffset="21.46611528233685" xlink:href="#id155">November</textPath></text><line stroke="#e1ed5e" stroke-width="0.3" x1="56.762969772571076" x2="54.21961505331055" y1="26.818313649435495" y2="22.513508569990535" /><path d="M 56.25429882871897 25.957352633546506 a86.0,86.0 0 0,1 42.265352541879196,-11.944610805530505" fill="none" id="id156" stroke="none" /><text fill="#e1ed5e" style="font-size:6.75px; font-family:Arial;" text-anchor="middle"><textPath startOffset="22.20632615414155" xlink:href="#id156">December</textPath></text></svg>