<?xml version="1.0" encoding="utf-8" ?>
<svg baseProfile="full" height="200mm" version="1.1" viewBox="0,0,200,200" width="200mm" xmlns="http://www.w3.org/2000/svg" xmlns:ev="http://www.w3.org/2001/xml-events" xmlns:xlink="http://www.w3.org/1999/xlink"><defs /><rect fill="#1a1a1a" height="200" width="200" x="0" y="0" /><text alignment-baseline="middle" fill="#e1ed5e" style="dominant-baseline: central; font-size:9.0px; font-family:Arial;" text-anchor="middle" x="100.0" y="100.0">2024</text><line stroke="#e1ed5e" stroke-width="0.3" x1="100.0" x2="100.0" y1="15.0" y2="10.0" /><path d="M 100.0 14.0 a86.0,86.0 0 0,1 42.35913384403234,11.155469271406648" fill="none" id="id121" stroke="none" /><text fill="#e1ed5e" style="font-size:6.75px; font-family:Arial;" text-anchor="middle"><textPath startOffset="22.145653131862478" xlink:href="#id121">January</textPath></text><path d="M 100.72087961077811 79.0123766808444 l 2.1626388323343404 -62.96286995746683 a84.0,84.0 0 0,0 1.4406969575966548,0.06186972629667631 l -3.2431615505318314 62.916467662744324" fill="#4dd2ff" stroke="none" /><path d="M 102.15924093988457 79.11130261209362 l 2.844770114082091 -27.520570286332855 a48.66720994041433,48.66720994041433 0 0,0 0.8302720995670136,0.09303372053835816 l -3.3167781152499014 27.46768080528753" fill="#ffe515" stroke="none" /><path d="M 102.51750503828377 79.15144685158666 l 2.222384192269809 -18.40452918430588 a39.53822229864605,39.53822229864605 0 0,0 0.6731329216560954,0.08715053329896165 l -2.537994935816696 18.36366705480652" fill="#ff4c07" stroke="none" /><path d="M 102.87502721639298 79.19773525538626 l 3.242828738655803 -23.46349333958415 a44.68652481739273,44.68652481739273 0 0,0 0.7589791200001548,0.11154379375859912 l -3.6451329642636394 23.404368472526667" fill="#ffa50f" stroke="none" /><path d="M 103.94208987418118 79.37332000966035 l 8.963489573846816 -46.90076506053476 a68.74961684248302,68.74961684248302 0 0,0 1.157296722486565,0.23149175648234452 l -9.767282781864338 46.73998390738955" fill="#35ff64" stroke="none" /><path d="M 104.64783097203109 79.52079915486377 l 6.6029277948204905 -29.09371818591965 a50.8335900177187,50.8335900177187 0 0,0 0.8493272498660306,0.20043891837017827 l -7.101387198426407 28.976083123903244" fill="#f7ff19" stroke="none" /><path d="M 105.3480935250658 79.69241777938227 l 6.0799543165219845 -23.086576852421572 a44.87374866362134,44.87374866362134 0 0,0 0.7432344949994989,0.20257186662910806 l -6.475370212456176 22.978804491648322" fill="#ffa80f" stroke="none" /><path d="M 106.38641147887787 79.99465700312896 l 7.246180399384122 -22.698556894795306 a44.82711932833422,44.82711932833422 0 0,0 0.7310604336526608,0.24031408524692843 l -7.634763570684526 22.570821888146355" fill="#ffa70f" stroke="none" /><path d="M 107.06938296918511 80.22567764915836 l 8.009442780495258 -22.403836951896125 a44.79250057940892,44.79250057940892 0 0,0 0.7218222914576612,0.26506314370378475 l -8.392854223607044 22.26304295918362" fill="#ffa70f" stroke="none" /><path d="M 108.07796709384702 80.6158196554323 l 10.963205540619864 -26.307702282646076 a49.50065043324835,49.50065043324835 0 0,0 0.7815561638054672,0.33359985212633186 l -11.413196779595761 26.115627780860343" fill="#fff316" stroke="none" /><path d="M 108.73861861582097 80.90454125486305 l 17.694237625882597 -38.665102514025726 a63.52147924968413,63.52147924968413 0 0,0 0.9876418993618509,0.46226627786432783 l -18.35536823911595 38.35566000459087" fill="#45ff2d" stroke="none" /><path d="M 109.3889696526874 81.21577127319529 l 12.764048630539131 -25.53664755828436 a49.54892828038906,49.54892828038906 0 0,0 0.7575624792428163,0.3868167997477538 l -13.200538331495526 25.31377280686377" fill="#fff316" stroke="none" /><path d="M 110.34350942703115 81.72400993836675 l 13.033299781184017 -23.028591886687572 a47.46097026697668,47.46097026697668 0 0,0 0.7056034476192308,0.40738034042409094 l -13.426695696663645 22.80146464898731" fill="#ffd213" stroke="none" /><line stroke="#e1ed5e" stroke-width="0.3" x1="143.13028292997686" x2="145.6673583964461" y1="26.7553504044142" y2="22.446841604673864" /><path d="M 143.63769802327073 25.89364864446614 a86.0,86.0 0 0,1 29.32050498858742,28.57503671076993" fill="none" id="id122" stroke="none" /><text fill="#e1ed5e" style="font-size:6.75px; font-family:Arial;" text-anchor="middle"><textPath startOffset="20.669276256404974" xlink:href="#id122">February</textPath></text><path d="M 110.65571695917076 81.90426304109057 l 7.8210860924406855 -13.281914037702201 a36.413585831021926,36.413585831021926 0 0,0 0.5359165046025341,0.32180246288196324 l -8.047935353600653 13.145697574284316" fill="#ff1402" stroke="none" /><path d="M 111.27062007382361 82.28071324371311 l 15.539623267003499 -24.430868838549074 a49.954226694677665,49.954226694677665 0 0,0 0.719612919268121,0.4664444001529569 l -15.956721818528628 24.16051059669222" fill="#fffa17" stroke="none" /><path d="M 112.16784306229584 82.88440491214696 l 13.67534854841496 -19.23609034416378 a44.601744207779774,44.601744207779774 0 0,0 0.6202169656721228,0.4489892533780989 l -14.003546524461049 18.998500319412607" fill="#ffa30f" stroke="none" /><path d="M 112.7482090630111 83.31218511350987 l 12.464665607622166 -16.31664740151881 a41.53292164148418,41.53292164148418 0 0,0 0.5628503080671811,0.4376758039226927 l -12.742925860324572 16.100270545975327" fill="#ff6f0a" stroke="none" /><path d="M 113.59037401385872 83.9905735841838 l 17.40401440827676 -20.50188521117827 a47.892880372616006,47.892880372616006 0 0,0 0.6221981209005809,0.5374399177605814 l -17.7533920089402 20.200101160952965" fill="#ffd914" stroke="none" /><path d="M 115.41159269507618 85.73525988315684 l 14.260306151499385 -13.199126479818574 a40.43124471990251,40.43124471990251 0 0,0 0.46708156794633565,0.5134044638204898 l -14.484785420287599 12.952384440440413" fill="#ff5c08" stroke="none" /><path d="M 116.1254893667686 86.54754324733833 l 18.135795632540606 -15.129525738588644 a44.61799382462226,44.61799382462226 0 0,0 0.48559925751469957,0.5923521368331104 l -18.392841709293933 14.815971320057038" fill="#ffa40f" stroke="none" /><path d="M 116.57777611688842 87.10902102172516 l 22.354100598625454 -17.382683833059854 a49.31719461411365,49.31719461411365 0 0,0 0.5139509773205526,0.6727783273606178 l -22.649203553300314 16.996384592458355" fill="#fff016" stroke="none" /><path d="M 117.01052211995028 87.68569379921539 l 19.288350283638387 -13.963278130195805 a44.812047219958586,44.812047219958586 0 0,0 0.44574095562913335,0.6269904757615663 l -19.52520633779748 13.630110427724734" fill="#ffa70f" stroke="none" /><path d="M 117.42321728460499 88.27688183743584 l 20.09550585711836 -13.521153174600936 a45.22087815964771,45.22087815964771 0 0,0 0.42782301623169383,0.647778574742849 l -20.32465331227078 13.17419472151903" fill="#ffae10" stroke="none" /><path d="M 117.81537515405839 88.88188828441811 l 14.065484889718123 -8.777902849948745 a37.579790216586794,37.579790216586794 0 0,0 0.3368438289431947,0.5502090797821915 l -14.21409668311672 8.535156654042" fill="#ff2904" stroke="none" /><line stroke="#e1ed5e" stroke-width="0.3" x1="172.87174338648825" x2="177.1583165268699" y1="56.24261187166439" y2="53.66864786411523" /><path d="M 173.72905801456457 55.72781907015455 a86.0,86.0 0 0,1 12.242430191666344,42.057860355516425" fill="none" id="id123" stroke="none" /><text fill="#e1ed5e" style="font-size:6.75px; font-family:Arial;" text-anchor="middle"><textPath startOffset="22.145653131862474" xlink:href="#id123">March</textPath></text><path d="M 118.36410011445183 89.81374322990088 l 24.172206540596033 -13.407915497509817 a48.64177575753044,48.64177575753044 0 0,0 0.3987575190298391,0.7336689220195229 l -24.398809409241213 12.990991742015693" fill="#ffe515" stroke="none" /><path d="M 119.0197475246899 91.09779779509293 l 21.574090360278078 -10.097763628293132 a44.82028977922651,44.82028977922651 0 0,0 0.32017808364677786,0.69964689571243 l -21.744252908779906 9.725927750366017" fill="#ffa70f" stroke="none" /><path d="M 119.31412917781788 91.75594674310238 l 29.46698137060577 -12.57770213208907 a53.039063376122364,53.039063376122364 0 0,0 0.3502451104885578,0.8404607629170127 l -29.678552325630807 12.07000885973078" fill="#d5ff1c" stroke="none" /><path d="M 119.58574465831526 92.42381321644754 l 19.81958987179441 -7.666643135693524 a42.25073080287387,42.25073080287387 0 0,0 0.2558569783115057,0.6786910326089103 l -19.948277533920358 7.325283822890456" fill="#ff7c0b" stroke="none" /><path d="M 119.83427380445688 93.10060997987247 l 22.383456284419946 -7.786128013922338 a44.69900640714131,44.69900640714131 0 0,0 0.24587556577405167,0.7268874209860704 l -22.51381727176636 7.400738918462105" fill="#ffa50f" stroke="none" /><path d="M 119.94978838288452 93.4421083053983 l 15.43003680157856 -5.072159576152842 a37.24231628998856,37.24231628998856 0 0,0 0.1944319967412467,0.6090554605257985 l -15.514833514097063 4.806535081935657" fill="#ff2303" stroke="none" /><path d="M 120.16314734710363 94.1308016681162 l 27.65839567667901 -8.050955883703594 a49.806331631241726,49.806331631241726 0 0,0 0.23191134338744085,0.8229715435952186 l -27.792525512141033 7.574976416205361" fill="#fff717" stroke="none" /><path d="M 120.35273937422433 94.82641323984039 l 23.05688725275799 -5.8609705763948465 a44.79014556247523,44.79014556247523 0 0,0 0.1830263418291125,0.7468099325550612 l -23.15410112110339 5.464304819231691" fill="#ffa70f" stroke="none" /><path d="M 120.51834098615036 95.52812308129327 l 23.05097710748489 -5.02385317361562 a44.59208863835163,44.59208863835163 0 0,0 0.15658679501499018,0.7493244992046344 l -23.133821613324248 4.627412223125581" fill="#ffa30f" stroke="none" /><path d="M 120.592083275326 95.88100663000786 l 16.19422935452484 -3.239299416749462 a37.51502725091023,37.51502725091023 0 0,0 0.12089433281928655,0.6325702343929818 l -16.247449979626285 2.9608266173231654" fill="#ff2803" stroke="none" /><path d="M 120.7213421655516 96.59031103205396 l 26.191412750227883 -4.309787001048542 a47.54363136134931,47.54363136134931 0 0,0 0.12560236791695426,0.8064573030860755 l -26.261536610283105 3.859541516031025" fill="#ffd413" stroke="none" /><path d="M 120.82617615685814 97.30363454192243 l 23.391437528392448 -3.028489900944538 a44.58667209940414,44.58667209940414 0 0,0 0.09175918803622425,0.7598977080628184 l -23.439978802688337 2.6264985159583065" fill="#ffa30f" stroke="none" /><path d="M 120.9064616781168 98.02013634271609 l 26.648834006984323 -2.5236722871496697 a47.768064475130274,47.768064475130274 0 0,0 0.07030180112700098,0.817013493669959 l -26.688229430809066 2.065837746104049" fill="#ffd714" stroke="none" /><path d="M 120.93736805541906 98.37931529534042 l 14.299043532753036 -1.106836402906729 a35.341817624498155,35.341817624498155 0 0,0 0.04162936063127325,0.6052817671899529 l -14.315936854549376 0.861211211562442" fill="#ff0000" stroke="none" /><path d="M 120.98066250479742 99.09900007780936 l 24.901605862022997 -1.0693821007308264 a45.92455721943524,45.92455721943524 0 0,0 0.027063370005793758,0.7879204889918636 l -24.916293919025637 0.6417553471748428" fill="#ffb911" stroke="none" /><line stroke="#e1ed5e" stroke-width="0.3" x1="184.99686870605535" x2="189.99668451229388" y1="99.2704041080226" y2="99.22748670261217" /><path d="M 185.99683186730306 99.26182062694052 a86.0,86.0 0 0,1 -10.086455211305974,41.156179273409016" fill="none" id="id124" stroke="none" /><text fill="#e1ed5e" style="font-size:6.75px; font-family:Arial;" text-anchor="middle"><textPath startOffset="21.40746469413373" xlink:href="#id124">April</textPath></text><path d="M 120.99922638620191 99.81974689727618 l 23.573086572873162 -0.2023465968408149 a44.5739550079622,44.5739550079622 0 0,0 0.0,0.7651993991292807 l -23.573086572873162 -0.20234659684081205" fill="#ffa30f" stroke="none" /><path d="M 120.99303781780057 100.54070618675476 l 27.021216477795893 0.695970685614403 a48.030177859850326,48.030177859850326 0 0,0 -0.028304213552991172,0.8240462949893153 l -27.005287577246055 -1.159723245167829" fill="#ffdb14" stroke="none" /><path d="M 120.93736805541906 101.62068470465957 l 19.676182663831995 1.5230609790568563 a40.73504190434893,40.73504190434893 0 0,0 -0.05995107497710225,0.6967223660148932 l -19.647137966157153 -1.860604392447407" fill="#ff6109" stroke="none" /><line stroke="#e1ed5e" stroke-width="0.3" x1="174.33088141563837" x2="178.70328620479359" y1="141.23008692659167" y2="143.65538615756765" /><path d="M 175.20536237346943 141.71514677278685 a86.0,86.0 0 0,1 -30.301960400862466,31.631185727798858" fill="none" id="id125" stroke="none" /><text fill="#e1ed5e" style="font-size:6.75px; font-family:Arial;" text-anchor="middle"><textPath startOffset="22.145653131862474" xlink:href="#id125">May</textPath></text><line stroke="#e1ed5e" stroke-width="0.3" x1="143.1302829299769" x2="145.66735839644613" y1="173.24464959558577" y2="177.55315839532614" /><path d="M 143.63769802327073 174.10635135553383 a86.0,86.0 0 0,1 -40.68552437913181,11.842963189579606" fill="none" id="id126" stroke="none" /><text fill="#e1ed5e" style="font-size:6.75px; font-family:Arial;" text-anchor="middle"><textPath startOffset="21.407464694133747" xlink:href="#id126">June</textPath></text><line stroke="#e1ed5e" stroke-width="0.3" x1="101.45913802915013" x2="101.54496967792366" y1="184.9874750549273" y2="189.98673829345242" /><path d="M 101.47630435890484 185.9873277026323 a86.0,86.0 0 0,1 -42.54439059252881,-10.42667462771756" fill="none" id="id127" stroke="none" /><text fill="#e1ed5e" style="font-size:6.75px; font-family:Arial;" text-anchor="middle"><textPath startOffset="22.145653131862474" xlink:href="#id127">July</textPath></text><line stroke="#e1ed5e" stroke-width="0.3" x1="58.13341422392154" x2="55.67067388415222" y1="173.97424548756322" y2="178.32567169271397" /><path d="M 57.64086615596768 174.84453072859336 a86.0,86.0 0 0,1 -31.369924170532247,-30.572349798747897" fill="none" id="id128" stroke="none" /><text fill="#e1ed5e" style="font-size:6.75px; font-family:Arial;" text-anchor="middle"><textPath startOffset="22.145653131862474" xlink:href="#id128">August</textPath></text><line stroke="#e1ed5e" stroke-width="0.3" x1="26.387840678322732" x2="22.057713659400548" y1="142.50000000000003" y2="145.00000000000006" /><path d="M 25.521815274538298 143.00000000000003 a86.0,86.0 0 0,1 -11.493303480769221,-40.785679425670985" fill="none" id="id129" stroke="none" /><text fill="#e1ed5e" style="font-size:6.75px; font-family:Arial;" text-anchor="middle"><textPath startOffset="21.40746469413373" xlink:href="#id129">September</textPath></text><line stroke="#e1ed5e" stroke-width="0.3" x1="15.003131293944662" x2="10.003315487706104" y1="100.72959589197737" y2="100.7725132973878" /><path d="M 14.003168132696942 100.73817937305945 a86.0,86.0 0 0,1 10.791469493833604,-42.45332614584628" fill="none" id="id130" stroke="none" /><text fill="#e1ed5e" style="font-size:6.75px; font-family:Arial;" text-anchor="middle"><textPath startOffset="22.145653131862435" xlink:href="#id130">October</textPath></text><line stroke="#e1ed5e" stroke-width="0.3" x1="26.387840678322718" x2="22.05771365940052" y1="57.49999999999999" y2="54.99999999999999" /><path d="M 25.521815274538284 56.99999999999999 a86.0,86.0 0 0,1 29.574782752854787,-30.34633250058573" fill="none" id="id131" stroke="none" /><text fill="#e1ed5e" style="font-size:6.75px; font-family:Arial;" text-anchor="middle"><textPath startOffset="21.40746469413373" xlink:href="#id131">November</textPath></text><line stroke="#e1ed5e" stroke-width="0.3" x1="56.869717070023135" x2="54.33264160355391" y1="26.7553504044142" y2="22.446841604673864" /><path d="M 56.362301976729285 25.89364864446614 a86.0,86.0 0 0,1 42.16139366436587,-11.88097634709845" fill="none" id="id132" stroke="none" /><text fill="#e1ed5e" style="font-size:6.75px; font-family:Arial;" text-anchor="middle"><textPath startOffset="22.145653131862474" xlink:href="#id132">December</textPath></text></svg>