<?xml version="1.0" encoding="utf-8" ?>
<svg baseProfile="full" height="200mm" version="1.1" viewBox="0,0,200,200" width="200mm" xmlns="http://www.w3.org/2000/svg" xmlns:ev="http://www.w3.org/2001/xml-events" xmlns:xlink="http://www.w3.org/1999/xlink"><defs /><rect fill="#1a1a1a" height="200" width="200" x="0" y="0" /><text alignment-baseline="middle" fill="#e1ed5e" style="dominant-baseline: central; font-size:9.0px; font-family:Arial;" text-anchor="middle" x="100.0" y="100.0">2025</text><line stroke="#e1ed5e" stroke-width="0.3" x1="100.0" x2="100.0" y1="15.0" y2="10.0" /><path d="M 100.0 14.0 a86.0,86.0 0 0,1 42.46469731375804,11.215312516191453" fill="none" id="id133" stroke="none" /><text fill="#e1ed5e" style="font-size:6.75px; font-family:Arial;" text-anchor="middle"><textPath startOffset="22.20632615414155" xlink:href="#id133">January</textPath></text><path d="M 100.0 79.0 l 0.0 -11.587074391839955 a32.587074391839955,32.587074391839955 0 0,0 0.5609329175834211,0.004828126714482789 l -0.19945243831089274 11.585357641734031" fill="#ff8e0d" stroke="none" /><path d="M 100.72285384407766 79.0124445844662 l 1.2642671736506987 -36.707112488127876 a57.72887799405863,57.72887799405863 0 0,0 0.9928244534967643,0.04275310942928545 l -1.8959324595367946 36.6799116521744" fill="#49ff2c" stroke="none" /><path d="M 101.44485096284872 79.0497635885617 l 0.7167175542283333 -10.392353666503121 a31.417038868230257,31.417038868230257 0 0,0 0.5391909061568969,0.04185159167397908 l -0.8954986497475713 10.378476812640677" fill="#ff7f0b" stroke="none" /><path d="M 102.16513564639614 79.11191278185805 l 1.2367020443638739 -11.931049312556917 a32.99497268213641,32.99497268213641 0 0,0 0.564423466867163,0.06341955297990517 l -1.4418922147407622 11.907993806106411" fill="#ff940d" stroke="none" /><path d="M 102.88285421437855 79.19881850522331 l 1.4027690604605398 -10.12165432312263 a31.218397490495875,31.218397490495875 0 0,0 0.531650824948073,0.07835151159069036 l -1.5767888658372686 10.096008327370972" fill="#ff7c0b" stroke="none" /><path d="M 103.59715602781102 79.31037775812273 l 1.856030980633438 -10.675261112288949 a31.835407275069073,31.835407275069073 0 0,0 0.5390869594614651,0.09851469608445526 l -2.039513061197804 10.641730934853754" fill="#ff840c" stroke="none" /><path d="M 103.95276090670814 79.375362276772 l 8.583680708684627 -44.78775952475128 a66.6028834368573,66.6028834368573 0 0,0 1.1241094817318027,0.2254857869624467 l -9.353356599883554 44.63336978171163" fill="#37ff7a" stroke="none" /><path d="M 105.36241919743992 79.69619591428918 l 2.9840109597348707 -11.29840314330433 a32.6858134075659,32.6858134075659 0 0,0 0.5427434346503887,0.14835228294197222 l -3.17805228360897 11.245364319536064" fill="#ff900d" stroke="none" /><path d="M 106.0581310904928 79.89281104454417 l 3.7873859409038793 -12.570491397999206 a34.128653634418434,34.128653634418434 0 0,0 0.5610338306805119,0.17431594216518548 l -4.0032051442951095 12.5034353209515" fill="#ffa30f" stroke="none" /><path d="M 107.08798089147638 80.2323363322302 l 3.5393521966141988 -9.870896224986648 a31.48625797203814,31.48625797203814 0 0,0 0.5086045333047358,0.18732334190635727 l -3.708739055691511 9.808509615273968" fill="#ff7f0b" stroke="none" /><path d="M 108.43124777332544 80.76684994638697 l 4.266738811602966 -9.733177106093677 a31.627313708789497,31.627313708789497 0 0,0 0.49672636219140537,0.22286663948936428 l -4.433647292261152 9.658290136087782" fill="#ff810b" stroke="none" /><path d="M 109.08828744355905 81.06846463323043 l 5.868484504812225 -12.224461719785163 a34.560109686935206,34.560109686935206 0 0,0 0.5340832670800755,0.26207233965803045 l -6.078039038902733 12.1216342199923" fill="#ffa80f" stroke="none" /><path d="M 110.05341064243156 81.56283822128135 l 4.304536959392483 -7.894181101867112 a29.991503417329703,29.991503417329703 0 0,0 0.4511234981927711,0.2510497383232289 l -4.43978454665729 7.818915965983702" fill="#ff6b09" stroke="none" /><line stroke="#e1ed5e" stroke-width="0.3" x1="143.23703022742887" x2="145.7803849466894" y1="26.81831364943548" y2="22.513508569990506" /><path d="M 143.74570117128098 25.957352633546492 a86.0,86.0 0 0,1 28.547481713284135,27.462654790039103" fill="none" id="id134" stroke="none" /><text fill="#e1ed5e" style="font-size:6.75px; font-family:Arial;" text-anchor="middle"><textPath startOffset="19.985693538727396" xlink:href="#id134">February</textPath></text><path d="M 110.68208982089419 81.91981866633111 l 23.1346529427357 -39.15701209308347 a66.48058665891102,66.48058665891102 0 0,0 0.9802338804621191,0.5905799450666783 l -23.805248889415456 38.752985538558185" fill="#37ff78" stroke="none" /><path d="M 111.2981086023043 82.29822771554956 l 5.4926218399801625 -8.605789205823156 a31.209236138521305,31.209236138521305 0 0,0 0.4503536976217542,0.29292257233628033 l -5.639942563386197 8.509967709327347" fill="#ff7c0b" stroke="none" /><path d="M 111.90073688211348 82.69761687909136 l 4.124230688813531 -5.996184955917443 a28.27760350665808,28.27760350665808 0 0,0 0.3986722783581721,0.27929540845678913 l -4.226834106755354 5.924304704696718" fill="#ff5307" stroke="none" /><path d="M 112.48926042617603 83.11751280151076 l 4.344184587512366 -5.872296531893785 a28.304505889440556,28.304505889440556 0 0,0 0.3891921400735458,0.29313145110416006 l -4.444622881344294 5.796648491283778" fill="#ff5407" stroke="none" /><path d="M 113.34407831869373 83.78471172551755 l 4.670626079015402 -5.675592310294853 a28.35031264931342,28.35031264931342 0 0,0 0.37414645121951484,0.31333689302042894 l -4.767630067194034 5.594354259880605" fill="#ff5407" stroke="none" /><path d="M 114.16331599549186 84.49514656593476 l 5.909105184012189 -6.468810682028589 a29.761451689968215,29.761451689968215 0 0,0 0.3752665606821008,0.34876937012677706 l -6.0195796284891365 6.366136725827171" fill="#ff6809" stroke="none" /><path d="M 114.68862486808459 84.99185889309783 l 5.1124523183451105 -5.223661607884609 a28.309159274570497,28.309159274570497 0 0,0 0.34532348254791295,0.3438405537704108 l -5.201611601060346 5.13488520346408" fill="#ff5407" stroke="none" /><path d="M 115.68641384162765 86.03803664274999 l 7.20759709473213 -6.415246183510726 a30.64908490350458,30.64908490350458 0 0,0 0.34736817052035385,0.39710186756469873 l -7.316957128830332 6.29022875974308" fill="#ff740a" stroke="none" /><path d="M 116.15771136456269 86.58626213691792 l 6.663205606870681 -5.531630768848124 a29.660095145106673,29.660095145106673 0 0,0 0.3227322126578124,0.39563153243210913 l -6.757436311604903 5.416115066807914" fill="#ff6709" stroke="none" /><path d="M 117.2510076193507 88.02491185347247 l 8.794357285310529 -6.104756661606181 a31.705548746286638,31.705548746286638 0 0,0 0.3073559060614916,0.45100686641843957 l -8.898137657040754 5.952471771917335" fill="#ff820c" stroke="none" /><path d="M 117.65298651832404 88.62581576622439 l 9.951418704141119 -6.411904841758624 a32.83821177057149,32.83821177057149 0 0,0 0.3020683953669355,0.47779965958843623 l -10.060314695754009 6.239657534455982" fill="#ff920d" stroke="none" /><line stroke="#e1ed5e" stroke-width="0.3" x1="172.23445277983987" x2="176.4835382374775" y1="55.19839476539836" y2="52.563006222186495" /><path d="M 173.08426987136738 54.67131705675599 a86.0,86.0 0 0,1 12.851231095245387,41.99856678651699" fill="none" id="id135" stroke="none" /><text fill="#e1ed5e" style="font-size:6.75px; font-family:Arial;" text-anchor="middle"><textPath startOffset="22.20632615414155" xlink:href="#id135">March</textPath></text><path d="M 118.03404312379186 89.2402003453031 l 7.510656775413324 -4.481145000259228 a29.74589193343997,29.74589193343997 0 0,0 0.25856308555717133,0.44196812767283167 l -7.5866795354408225 4.351197460232501" fill="#ff6809" stroke="none" /><path d="M 119.196687751892 91.48605970444005 l 6.655585532693 -2.951824741315379 a28.280802708934914,28.280802708934914 0 0,0 0.19353400392286801,0.44670316430148727 l -6.705410246458549 2.8368224324272893" fill="#ff5307" stroke="none" /><path d="M 119.34039704204932 91.81776055985345 l 8.063018772230505 -3.411178687870195 a29.754907867129234,29.754907867129234 0 0,0 0.19550152354110026,0.4734224462965212 l -8.120541982657803 3.271881671120371" fill="#ff6809" stroke="none" /><path d="M 119.61058180528143 92.48833698450437 l 10.873538070593613 -4.1650143062285165 a32.64393294139643,32.64393294139643 0 0,0 0.1964782541453882,0.5264640382674739 l -10.943620913240627 3.9772271309317095" fill="#ff8f0d" stroke="none" /><path d="M 120.08093135843002 93.85539295169968 l 14.667697069820964 -4.488199933999583 a36.3390115711407,36.3390115711407 0 0,0 0.177877909252518,0.5997158821540561 l -14.742780876185183 4.235054665098998" fill="#ffc011" stroke="none" /><path d="M 120.18372546131832 94.20196356495316 l 11.191470517233048 -3.214894789617869 a32.64407835968174,32.64407835968174 0 0,0 0.15049422132788048,0.5414077858563406 l -11.245151509127291 3.0217757003425767" fill="#ff8f0d" stroke="none" /><path d="M 120.37134235888165 94.90015583598534 l 8.01277595660438 -2.0059507115410873 a29.260049442217003,29.260049442217003 0 0,0 0.11810916454508132,0.4896387379224291 l -8.04611792141028 1.8677267419592518" fill="#ff6108" stroke="none" /><path d="M 120.6074358757038 95.95851677861258 l 5.79932410958031 -1.1373501888165383 a26.909799115025862,26.909799115025862 0 0,0 0.08523265751747879,0.4553162646022484 l -5.818042491007647 1.037355846751727" fill="#ff4006" stroke="none" /><path d="M 120.78858239683441 97.02765380044208 l 11.538079977901097 -1.6497117272283017 a32.655420985935976,32.655420985935976 0 0,0 0.07477158540259529,0.5571351605436902 l -11.564767562361528 1.450858224619947" fill="#ff8f0d" stroke="none" /><path d="M 120.94382443527127 98.46500227214037 l 9.053888359232433 -0.6635702138675115 a30.07817271537487,30.07817271537487 0 0,0 0.033400248161412224,0.516687055757293 l -9.06396919839826 0.5076240938571832" fill="#ff6c0a" stroke="none" /><path d="M 120.96714384426684 98.82574320788733 l 36.083825734771644 -2.0208607223368382 a57.14037019340632,57.14037019340632 0 0,0 0.04654597896244997,0.9825120495375818 l -36.11326532196759 1.3994375661762568" fill="#4fff2b" stroke="none" /><line stroke="#e1ed5e" stroke-width="0.3" x1="184.98032266829074" x2="189.97916517819016" y1="98.17113171792111" y2="98.06355123074" /><path d="M 185.9800911702706 98.14961562048488 a86.0,86.0 0 0,1 -9.607161424134198,41.387399972396054" fill="none" id="id136" stroke="none" /><text fill="#e1ed5e" style="font-size:6.75px; font-family:Arial;" text-anchor="middle"><textPath startOffset="21.466115282336823" xlink:href="#id136">April</textPath></text><path d="M 120.99980553446 99.90962569577887 l 9.562763305784348 -0.04115409920217804 a30.562851860315348,30.562851860315348 0 0,0 -0.0022641291180766888,0.5261038698366134 l -9.562054879376767 -0.12345924883812004" fill="#ff730a" stroke="none" /><path d="M 120.9904718944345 100.63252640178507 l 8.764889417747225 0.2641209780005784 a29.768868022519058,29.768868022519058 0 0,0 -0.019842888559489867,0.512056783827193 l -8.759044396336533 -0.4149550088417775" fill="#ff6809" stroke="none" /><path d="M 120.95626037817324 101.35467743843564 l 7.2609942752441015 0.46937311084034955 a28.276149323804972,28.276149323804972 0 0,0 -0.035578722516951836,0.4854434013171608 l -7.251838994062812 -0.5942896486542806" fill="#ff5307" stroke="none" /><path d="M 120.89721153311464 102.0752229133903 l 4.534233723044744 0.4502775742026 a25.556536551924715,25.556536551924715 0 0,0 -0.04724028240714098,0.4373863446022625 l -4.52581113913655 -0.5282602406896539" fill="#ff2d04" stroke="none" /><path d="M 120.8583938346157 102.4346265915055 l 7.248173057514212 0.8460188740118786 a28.29738039346033,28.29738039346033 0 0,0 -0.06063520999874028,0.4833222832052472 l -7.2325363382686225 -0.9706589115045207" fill="#ff5407" stroke="none" /><path d="M 120.70491114924044 103.5080841355445 l 12.916213658943041 2.1884259199008205 a34.10029706878285,34.10029706878285 0 0,0 -0.10303738887165746,0.5778883962479435 l -12.876629827732195 -2.410433066881982" fill="#ffa20f" stroke="none" /><path d="M 120.5718875245553 104.21870165774334 l 7.728827843064222 1.5849599991750263 a28.889669069530715,28.889669069530715 0 0,0 -0.10409355147994122,0.486290417986631 l -7.700400252859838 -1.7177642365778263" fill="#ff5c08" stroke="none" /><path d="M 120.32669344350535 105.2749913415812 l 9.526356110382462 2.4721898885695412 a30.841909549826536,30.841909549826536 0 0,0 -0.13777804115057804,0.5127233458106709 l -9.482389992890107 -2.63580416755576" fill="#ff770a" stroke="none" /><path d="M 120.02730092923936 106.31721596034902 l 7.045078887379487 2.2222307911843977 a28.387248893782328,28.387248893782328 0 0,0 -0.15100360351266462,0.46474130458507046 l -7.005783032850576 -2.3431709957472635" fill="#ff5507" stroke="none" /><path d="M 119.41010516605496 108.01547362559984 l 6.7461106729367195 2.785830973696473 a28.29868915802813,28.29868915802813 0 0,0 -0.18980202864057655,0.4486359290934434 l -6.697157663103835 -2.90154142845608" fill="#ff5407" stroke="none" /><path d="M 118.64920377521936 109.65438752849418 l 9.293543772175672 4.811115486272402 a31.46502690238278,31.46502690238278 0 0,0 -0.2531398749425635,0.4788452451386847 l -9.209351389008216 -4.970375746497221" fill="#ff7f0b" stroke="none" /><line stroke="#e1ed5e" stroke-width="0.3" x1="174.80103733775053" x2="179.2010983576182" y1="140.37084112569926" y2="142.7455964860345" /><path d="M 175.68104954172406 140.8457921977663 a86.0,86.0 0 0,1 -30.038265399797805,32.042727171017184" fill="none" id="id137" stroke="none" /><text fill="#e1ed5e" style="font-size:6.75px; font-family:Arial;" text-anchor="middle"><textPath startOffset="22.206326154141568" xlink:href="#id137">May</textPath></text><path d="M 118.30583269289576 110.29060199501025 l 8.877906104657175 4.99070431838667 a31.18451503001849,31.18451503001849 0 0,0 -0.2670701323383306,0.46565928714032795 l -8.790683976166466 -5.142783451385313" fill="#ff7b0b" stroke="none" /><path d="M 117.35343817320211 111.8261652097733 l 7.97296098880131 5.433479689935309 a30.648357812078025,30.648357812078025 0 0,0 -0.300848794112001,0.4333951262816804 l -7.878251287527172 -5.569916078404009" fill="#ff740a" stroke="none" /><path d="M 116.71984013943494 112.70617746262583 l 6.961129474509461 5.290083260713623 a29.74312898601907,29.74312898601907 0 0,0 -0.31328463649100396,0.4049626238586109 l -6.869038020800389 -5.409123878685487" fill="#ff6809" stroke="none" /><path d="M 116.498646956653 112.99209946851258 l 23.042764078458706 18.145359660301285 a50.329559382595505,50.329559382595505 0 0,0 -0.5418386605036385,0.6760270404809912 l -22.72700750590021 -18.53931453436053" fill="#97ff23" stroke="none" /><path d="M 115.80600337817218 113.82643327865902 l 7.675178351309424 6.713926274540617 a31.197311839125824,31.197311839125824 0 0,0 -0.35704751501404836,0.4011466681530022 l -7.558471986647038 -6.845047112434485" fill="#ff7c0b" stroke="none" /><path d="M 114.81725581225074 114.88116024355365 l 22.139849628185104 22.235335224003155 a52.378066767766995,52.378066767766995 0 0,0 -0.6443750497103063,0.6306566091116446 l -21.753824626099004 -22.61314193603737" fill="#81ff25" stroke="none" /><path d="M 112.92097659922987 116.55440617244103 l 1.0165099275252614 1.3023565277236666 a22.652097139414586,22.652097139414586 0 0,0 -0.3094398051748931,0.23726524741790234 l -0.9939413938568746 -1.3196611169689405" fill="#ff0300" stroke="none" /><path d="M 112.63410532772338 116.77436683061366 l 4.504887796186801 5.98116277043964 a28.48787834721732,28.48787834721732 0 0,0 -0.39423836231375725,0.29164811553159403 l -4.401264463454479 -6.057820834711003" fill="#ff5608" stroke="none" /><path d="M 111.7513745106137 117.40417183066458 l 26.948308566749603 39.91133057821222 a69.15730103662463,69.15730103662463 0 0,0 -0.9923259318662814,0.6576595177617788 l -26.25730793614336 -40.36928811706532" fill="#3aff96" stroke="none" /><line stroke="#e1ed5e" stroke-width="0.3" x1="143.8653032363475" x2="146.44561519142675" y1="172.8068346515853" y2="177.08958963109032" /><path d="M 144.38136562736335 173.6633856474863 a86.0,86.0 0 0,1 -40.68145358897372,12.25698825130547" fill="none" id="id138" stroke="none" /><text fill="#e1ed5e" style="font-size:6.75px; font-family:Arial;" text-anchor="middle"><textPath startOffset="21.466115282336833" xlink:href="#id138">June</textPath></text><path d="M 109.89434966115114 118.52300852407294 l 3.1643063530520803 5.923832849822961 a27.715998088788247,27.715998088788247 0 0,0 -0.4227469682570065,0.22116123353644598 l -3.0618684822685784 -5.977423502304124" fill="#ff4b07" stroke="none" /><path d="M 109.2508944713604 118.85261126421891 l 12.997669763653905 26.48825107166363 a50.505370089536115,50.505370089536115 0 0,0 -0.7837647766733224,0.37625472211023603 l -12.53979231898035 -26.708060070273426" fill="#95ff23" stroke="none" /><path d="M 107.93186726928326 119.44442032107085 l 17.838036835444097 43.72870525384642 a68.22706026549224,68.22706026549224 0 0,0 -1.0912395993714417,0.434226757208588 l -17.082676160030786 -44.02927885546108" fill="#39ff8c" stroke="none" /><path d="M 107.2578585660854 119.70592522655815 l 15.244965789086828 41.391844879007394 a65.11001931985791,65.11001931985791 0 0,0 -1.055031713407986,0.37829683619769366 l -14.530214515049108 -41.64812925624504" fill="#35ff69" stroke="none" /><path d="M 106.57524785965236 119.94407469862006 l 2.280308032678326 6.916641731282866 a28.282838564929264,28.282838564929264 0 0,0 -0.46367512467352023,0.14845413254262965 l -2.1609115629138653 -6.9548687104852025" fill="#ff5307" stroke="none" /><path d="M 105.53697534728816 120.25689768951611 l 11.770774274231703 43.063108510367535 a65.64283191723621,65.64283191723621 0 0,0 -1.0925141483805967,0.2885429162938908 l -11.02776968303961 -43.25934277596501" fill="#36ff6f" stroke="none" /><path d="M 104.48393922423573 120.51570834832081 l 8.891309529712045 40.68108509595359 a62.64139850842387,62.64139850842387 0 0,0 -1.0553838885850184,0.22116595515833304 l -8.189734179697647 -40.828107031838464" fill="#32ff4c" stroke="none" /><line stroke="#e1ed5e" stroke-width="0.3" x1="102.19456741930631" x2="102.32365962044197" y1="184.97166512339345" y2="189.96999836594603" /><path d="M 102.22038585953345 185.97133177190398 a86.0,86.0 0 0,1 -42.740103519485714,-10.115201625700543" fill="none" id="id139" stroke="none" /><text fill="#e1ed5e" style="font-size:6.75px; font-family:Arial;" text-anchor="middle"><textPath startOffset="22.20632615414155" xlink:href="#id139">July</textPath></text><path d="M 96.58105272829116 120.7198165907248 l -3.6659497638025105 22.21672365799136 a43.517148970646275,43.517148970646275 0 0,0 -0.7380322554523664,-0.12831636776074049 l 4.047830990726927 -22.150328711709612" fill="#e5ff1a" stroke="none" /><path d="M 95.86986931433489 120.58985236759428 l -6.5786483082274145 32.7963950184093 a54.449695660302886,54.449695660302886 0 0,0 -0.9173698689136394,-0.1922437754510221 l 7.14220963857044 -32.678295262231735" fill="#6bff28" stroke="none" /><path d="M 95.16358092515715 120.4354850818985 l -0.4547026319265252 1.921270408465672 a22.974344059663046,22.974344059663046 0 0,0 -0.3840508579678117,-0.09439035697753659 l 0.48770677463754747 -1.9131587931741054" fill="#ff0701" stroke="none" /><path d="M 94.81253420990036 120.34920634021253 l -9.730463196626161 38.170315022007394 a60.39105054324116,60.39105054324116 0 0,0 -1.0051071111198662,-0.26545792332313306 l 10.386060750557515 -37.99716574938068" fill="#2fff30" stroke="none" /><path d="M 93.08242187328487 119.8279376855182 l -4.87580256894525 13.975571758355251 a35.80169100691776,35.80169100691776 0 0,0 -0.5801245307634637,-0.20801201688960308 l 5.115646660338441 -13.889572200425691" fill="#ffb911" stroke="none" /><path d="M 92.06813273071674 119.44442032107085 l -9.20993209460094 22.577507249705075 a45.38373808089411,45.38373808089411 0 0,0 -0.7207986630795264,-0.3012938996257456 l 9.59720221717793 -22.415628307059354" fill="#cfff1d" stroke="none" /><path d="M 91.40352486487194 119.15986991738527 l -1.8069676321527592 4.027379156312401 a25.414172050605565,25.414172050605565 0 0,0 -0.3975889942712894,-0.1825136067612243 l 1.876024622191468 -3.9956784792171027" fill="#ff2b04" stroke="none" /><path d="M 90.42595943632237 118.69057910512821 l -0.6694025217708692 1.3068171899957723 a22.468288426781893,22.468288426781893 0 0,0 -0.34270462798842344,-0.17928686414254938 l 0.6917980522857883 -1.2951009069085062" fill="#ff0000" stroke="none" /><path d="M 90.10565033884886 118.52300852407294 l -14.394565534206016 26.94777011341278 a51.5513638157758,51.5513638157758 0 0,0 -0.7791060424851254,-0.42483073442158814 l 14.856294388559782 -26.695998727231427" fill="#8aff24" stroke="none" /><line stroke="#e1ed5e" stroke-width="0.3" x1="58.666819895761336" x2="56.23545636021788" y1="174.27360380694188" y2="178.64263932499728" /><path d="M 58.180547188652646 175.14741091055294 a86.0,86.0 0 0,1 -31.652253787137756,-30.449443065178592" fill="none" id="id140" stroke="none" /><text fill="#e1ed5e" style="font-size:6.75px; font-family:Arial;" text-anchor="middle"><textPath startOffset="22.20632615414155" xlink:href="#id140">August</textPath></text><path d="M 89.4739219176387 118.17145234162733 l -22.18442515345197 38.29757116070332 a65.25892764401604,65.25892764401604 0 0,0 -0.9671749992881847,-0.5714240374171698 l 22.840368023768534 -37.9100285509924" fill="#36ff6a" stroke="none" /><path d="M 88.54995079064634 117.60387380957326 l -21.9576820868325 33.75882998752158 a61.2715582607973,61.2715582607973 0 0,0 -0.8791747976955585,-0.5826691159761808 l 22.535531583268018 -33.375862850454084" fill="#31ff3b" stroke="none" /><path d="M 87.36589467227662 116.77436683061367 l -24.082147502861783 31.973991493922696 a61.028564306043165,61.028564306043165 0 0,0 -0.8336829447948387,-0.6392325320041965 l 24.628959176150108 -31.55471962009113" fill="#30ff38" stroke="none" /><path d="M 86.51685102203217 116.09983520530335 l -25.5221983704316 30.475313186292563 a60.75081538109978,60.75081538109978 0 0,0 -0.7959355541635289,-0.6783135467112509 l 26.042999401172185 -30.031475249358362" fill="#30ff35" stroke="none" /><path d="M 85.97065885151581 115.62618273729859 l -3.6993254086816765 4.120388422305731 a26.537382886345224,26.537382886345224 0 0,0 -0.33727806896838675,-0.30809551921678924 l 3.769703027116918 -4.056100136502366" fill="#ff3b05" stroke="none" /><path d="M 84.9287848128048 114.62390073753433 l -24.264477990062268 23.54430702284958 a54.80975133473212,54.80975133473212 0 0,0 -0.6511749465982907,-0.682754328145178 l 24.66615948803952 -23.123145578121903" fill="#67ff28" stroke="none" /><path d="M 84.19399662182784 113.82643327865904 l -27.10939014839033 23.71416512725059 a57.017782578889424,57.017782578889424 0 0,0 -0.6398413120180977,-0.7442799980905871 l 27.513573969979205 -23.24400802999847" fill="#50ff2b" stroke="none" /><path d="M 83.50135304334701 112.99209946851258 l -4.0398041450253075 3.1812025206293493 a26.141990568585495,26.141990568585495 0 0,0 -0.275353814196222,-0.35593192291630454 l 4.0939647764395986 -3.111192603599792" fill="#ff3505" stroke="none" /><path d="M 83.28015986056508 112.70617746262583 l -5.826837254068883 4.42808230094363 a28.31846604483038,28.31846604483038 0 0,0 -0.2915975822224936,-0.3906426135828737 l 5.902196102986461 -4.327126807851448" fill="#ff5407" stroke="none" /><path d="M 82.6465618267979 111.8261652097733 l -33.80574393363201 23.038219216742853 a61.909508278455235,61.909508278455235 0 0,0 -0.5925532814056277,-0.8857867570164256 l 34.19730032044837 -22.452895545520608" fill="#31ff43" stroke="none" /><path d="M 82.24976979558568 111.22182372390057 l -48.25433225010416 30.506737331808377 a78.08889212040634,78.08889212040634 0 0,0 -0.7085092951472258,-1.14234257804814 l 48.772306184919344 -29.671598422394972" fill="#46fff4" stroke="none" /><line stroke="#e1ed5e" stroke-width="0.3" x1="26.63291911575756" x2="22.317208475507996" y1="142.92168965132927" y2="145.44649492493687" /><path d="M 25.769776987707644 143.4266507060508 a86.0,86.0 0 0,1 -11.730757126820373,-40.83630448921669" fill="none" id="id141" stroke="none" /><text fill="#e1ed5e" style="font-size:6.75px; font-family:Arial;" text-anchor="middle"><textPath startOffset="21.46611528233685" xlink:href="#id141">September</textPath></text><path d="M 81.87401531095188 110.60418214915194 l -43.308264308876524 25.336484123393546 a71.17512516359557,71.17512516359557 0 0,0 -0.6095573421084461,-1.0628146057073615 l 43.737973647137345 -24.587249671827877" fill="#3dffac" stroke="none" /><path d="M 81.18737489456691 109.33194174019688 l -6.54157903254823 3.2449290877009815 a28.302179196875585,28.302179196875585 0 0,0 -0.21273365794921237,-0.43829434500350034 l 6.596465947112161 -3.1318457867321965" fill="#ff5407" stroke="none" /><path d="M 80.73074385275274 108.34839909993369 l -47.260255505251806 20.475490673211276 a72.50512080104701,72.50512080104701 0 0,0 -0.4862988153981311,-1.1494667492533825 l 47.60570530184224 -19.658949398291735" fill="#3fffbb" stroke="none" /><path d="M 80.45479744820244 107.68017299344265 l -34.68873848962833 13.630736842895292 a58.2707065251262,58.2707065251262 0 0,0 -0.3587969374203169,-0.936705584136378 l 34.91822970664215 -13.031607691925755" fill="#43ff2d" stroke="none" /><path d="M 80.20201598880116 107.00284435728193 l -7.545829874181295 2.6690733827004496 a29.003967841784906,29.003967841784906 0 0,0 -0.16243488367722125,-0.47211180604963304 l 7.590655588801745 -2.53878887356152" fill="#ff5d08" stroke="none" /><path d="M 79.86692584326677 105.97154293290107 l -32.923433771729144 9.765210058626565 a55.34110974925733,55.34110974925733 0 0,0 -0.26302143980333775,-0.9156121371266277 l 33.086647848418586 -9.19704044599534" fill="#61ff29" stroke="none" /><path d="M 79.58551787078972 104.9243191809786 l -17.022741404984686 4.1061738173344215 a38.51097908054095,38.51097908054095 0 0,0 -0.14989836359541173,-0.645758227164374 l 17.090900334510653 -3.812546932821473" fill="#ffdb14" stroke="none" /><path d="M 79.4281124754447 104.21870165774334 l -7.15644870246092 1.4675815220450807 a28.305378399152417,28.305378399152417 0 0,0 -0.0937717653513408,-0.47814021129745465 l 7.180650400787927 -1.3441775836796712" fill="#ff5407" stroke="none" /><path d="M 79.1416061653843 102.43462659150553 l -53.34315652841495 6.226302388796263 a74.70529945779754,74.70529945779754 0 0,0 -0.13808989479173414,-1.278540923801487 l 53.44242872470774 -5.307165143109994" fill="#41ffd2" stroke="none" /><path d="M 79.07016306316243 101.71520430193888 l -7.445323786153985 0.6101457658689591 a28.470282734694727,28.470282734694727 0 0,0 -0.035822992649999635,-0.4887762732090437 l 7.45472333746832 -0.48189635616315474" fill="#ff5608" stroke="none" /><path d="M 79.0235259727143 100.99374915477108 l -43.647352009452185 2.067769783947879 a64.69630429814903,64.69630429814903 0 0,0 -0.043124298694465366,-1.1128465307903612 l 43.67647844099785 -1.3161460061435208" fill="#35ff64" stroke="none" /><line stroke="#e1ed5e" stroke-width="0.3" x1="15.007084014347285" x2="10.007500721073583" y1="101.09737516637583" y2="101.16192664675087" /><path d="M 14.007167355692545 101.11028546245083 a86.0,86.0 0 0,1 10.666146001902534,-42.60595125391555" fill="none" id="id142" stroke="none" /><text fill="#e1ed5e" style="font-size:6.75px; font-family:Arial;" text-anchor="middle"><textPath startOffset="22.20632615414155" xlink:href="#id142">October</textPath></text><path d="M 79.00019446554 99.90962569577889 l -28.45780406951514 -0.12247038374822408 a49.458067598728626,49.458067598728626 0 0,0 0.010991449974038553,-0.8512999134921226 l 28.451479612423388 0.6123065553008187" fill="#a1ff22" stroke="none" /><path d="M 79.01574976396665 99.18683210126434 l -7.4032143051805415 -0.2868845039836584 a28.40877080000831,28.40877080000831 0 0,0 0.02314150299569913,-0.4884805528750273 l 7.397179193951343 0.4142761634816947" fill="#ff5507" stroke="none" /><path d="M 79.05617556472873 98.46500227214037 l -28.01008640949568 -2.05289244706042 a49.08521511519206,49.08521511519206 0 0,0 0.06901268157652712,-0.8421295179460044 l 27.970599244099656 2.534735882214203" fill="#a5ff21" stroke="none" /><path d="M 79.12142395522702 97.74499172005258 l -18.26273600226876 -1.9724822617833728 a39.36894696387394,39.36894696387394 0 0,0 0.07856850808935176,-0.6731269963302552 l 18.22607714117582 2.28655299643849" fill="#ffe615" stroke="none" /><path d="M 79.21141760316559 97.0276538004421 l -7.207503191894698 -1.0305269648396942 a28.280802708934914,28.280802708934914 0 0,0 0.07305080360788266,-0.48131352335416505 l 7.188696494847513 1.1544396005859512" fill="#ff5307" stroke="none" /><path d="M 79.32604984820605 96.31383870115002 l -43.941252659016115 -7.834716819252808 a65.6342522384029,65.6342522384029 0 0,0 0.20788641782642442,-1.1105375566502742 l 43.79988051727983 8.589932453365655" fill="#36ff6f" stroke="none" /><path d="M 79.46518482838121 95.60439243477599 l -51.951115799282874 -11.120466180030125 a74.12798886511415,74.12798886511415 0 0,0 0.27782327637785437,-1.245427272331896 l 51.75199813590299 12.01307162191198" fill="#41ffcc" stroke="none" /><path d="M 79.71946130924805 94.55025226153421 l -7.104529238260591 -1.9091155683517573 a28.356565635581774,28.356565635581774 0 0,0 0.13072812832512515,-0.4702986326062848 l 7.070614339369105 2.0311255043769845" fill="#ff5407" stroke="none" /><path d="M 79.91906864156998 93.8553929516997 l -35.039390402549884 -10.721777859435255 a57.64308120572533,57.64308120572533 0 0,0 0.29849376094413055,-0.9463067929686897 l 34.84964115783755 11.323334818830359" fill="#4aff2c" stroke="none" /><path d="M 80.14247586403 93.16781622104843 l -59.572572407909995 -20.496551336854708 a84.0,84.0 0 0,0 0.4821876767607618,-1.3632094942935558 l 59.210931650339425 21.518958457574875" fill="#4dd2ff" stroke="none" /><path d="M 80.38941819471856 92.48833698450439 l -6.929585550558518 -2.654317552109782 a28.420549681118473,28.420549681118473 0 0,0 0.178922856369129,-0.45533915341055736 l 6.882869144307699 2.773205710416103" fill="#ff5507" stroke="none" /><path d="M 80.65960295795068 91.81776055985345 l -37.08439538357565 -15.689098929135993 a61.266614039096744,61.266614039096744 0 0,0 0.41926579113814494,-0.9677232516690979 l 36.80883888259482 16.32512132539169" fill="#31ff3b" stroke="none" /><path d="M 80.95270993114464 91.15688171328213 l -50.72405549598057 -23.54974493019594 a76.92423707335314,76.92423707335314 0 0,0 0.5679272691999032,-1.1961996684461533 l 50.31117003293892 24.419387014282627" fill="#44ffe8" stroke="none" /><path d="M 81.26839172434947 90.50648371742162 l -6.9812730374560275 -3.5382348530301253 a28.82670295199119,28.82670295199119 0 0,0 0.22812981446268715,-0.44067418928036584 l 6.919333789833226 3.657881764570827" fill="#ff5b08" stroke="none" /><path d="M 81.6062741919709 89.86733742301443 l -37.639943509564525 -20.734942500487435 a63.97328458358435,63.97328458358435 0 0,0 0.539637072638415,-0.9599541379010599 l 37.277448795633674 21.379780148323277" fill="#34ff5b" stroke="none" /><line stroke="#e1ed5e" stroke-width="0.3" x1="26.266209847984243" x2="21.928928074336255" y1="57.711370442889674" y2="55.22380399835377" /><path d="M 25.398753493254645 57.213857153982495 a86.0,86.0 0 0,1 29.58750427330803,-30.492523968695096" fill="none" id="id143" stroke="none" /><text fill="#e1ed5e" style="font-size:6.75px; font-family:Arial;" text-anchor="middle"><textPath startOffset="21.46611528233685" xlink:href="#id143">November</textPath></text><path d="M 81.96595687620814 89.24020034530311 l -40.50257441902392 -24.165384504000063 a68.1638033113821,68.1638033113821 0 0,0 0.609852465282588,-1.0024371030156727 l 40.080606155455115 24.85898938022281" fill="#39ff8b" stroke="none" /><path d="M 82.34701348167596 88.62581576622439 l -28.37586998565594 -18.283159774437756 a54.755946569167165,54.755946569167165 0 0,0 0.5173220968326052,-0.7879170449050646 l 28.056951253465414 18.76889488332049" fill="#67ff28" stroke="none" /><path d="M 82.7489923806493 88.02491185347247 l -6.571249268635097 -4.561547415725481 a28.999314456654965,28.999314456654965 0 0,0 0.2881805219734688,-0.407610911245232 l 6.49175612685775 4.673984827302499" fill="#ff5d08" stroke="none" /><path d="M 83.17141714833178 87.43820079747576 l -9.991617828869577 -7.458304598843789 a33.46830920082265,33.46830920082265 0 0,0 0.3485868791542258,-0.4586994720722796 l 9.861755009491244 7.629188846797095" fill="#ff9a0e" stroke="none" /><path d="M 83.6137871275137 86.86637796730984 l -11.865710039412768 -9.510419034578222 a36.20668093150799,36.20668093150799 0 0,0 0.393965770940881,-0.4829554521364084 l 11.700245776395494 9.713258656322711" fill="#ffbe11" stroke="none" /><path d="M 84.07557802195018 86.31012108654704 l -24.710526706533614 -21.243101882528663 a53.58649271869871,53.58649271869871 0 0,0 0.6073343461608065,-0.6942881460191512 l 24.341200496794965 21.665305584750758" fill="#74ff27" stroke="none" /><path d="M 84.5562425177563 85.77008943001954 l -6.420755728278521 -5.9160978091077325 a29.73076843176766,29.73076843176766 0 0,0 0.3500198809172451,-0.37337680453208305 l 6.317968525390819 6.025744030517866" fill="#ff6709" stroke="none" /><path d="M 85.05521093208273 85.24692304244772 l -19.316738288982382 -19.068942709806297 a48.143340881234806,48.143340881234806 0 0,0 0.5872666854339901,-0.5847447756539985 l 18.98563580338108 19.398623336110408" fill="#afff20" stroke="none" /><path d="M 85.57189188830299 84.74124197986013 l -30.290524690557355 -32.0344000043623 a65.08762490392006,65.08762490392006 0 0,0 0.8206995208131246,-0.7627507615308708 l 29.734617285949373 32.55105535196782" fill="#35ff68" stroke="none" /><path d="M 86.10567301691215 84.25364557470407 l -5.803229853071627 -6.576764329006448 a29.771049296798722,29.771049296798722 0 0,0 0.3871741992261116,-0.33575365029096854 l 5.6891618551987415 6.675682972717096" fill="#ff6809" stroke="none" /><path d="M 86.37877921826538 84.01681056812374 l -34.3883216309448 -40.351380223475424 a74.01688929513679,74.01688929513679 0 0,0 0.9768201431370984,-0.8180587780338842 l 33.68864395084859 40.937340158903126" fill="#41ffcb" stroke="none" /><path d="M 86.93701828274178 83.55741782278169 l -12.649593357314249 -15.922243695039754 a41.33543843613021,41.33543843613021 0 0,0 0.5609168701194711,-0.4378045142442111 l 12.373643932035352 16.137626598507186" fill="#fffe18" stroke="none" /><path d="M 87.51073957382395 83.11751280151077 l -21.296026382079216 -28.787124337691637 a56.80808941147143,56.80808941147143 0 0,0 0.7911329436846648,-0.5747917288929808 l 20.79734812204077 29.149435301401287" fill="#52ff2b" stroke="none" /><path d="M 88.39885842347998 82.49532879139004 l -4.409142346686205 -6.652844168966059 a28.98128258927644,28.98128258927644 0 0,0 0.418204012362595,-0.27201152274204393 l 4.293971308539323 6.727754615867639" fill="#ff5d08" stroke="none" /><path d="M 89.00827224532344 82.1063720568725 l -10.03482003066804 -16.335860941299387 a40.171801317074184,40.171801317074184 0 0,0 0.5923196931492367,-0.35686598761213784 l 9.752138271301154 16.506173538370145" fill="#fff016" stroke="none" /><line stroke="#e1ed5e" stroke-width="0.3" x1="56.762969772571076" x2="54.21961505331055" y1="26.818313649435495" y2="22.513508569990535" /><path d="M 56.25429882871897 25.957352633546506 a86.0,86.0 0 0,1 42.265352541879196,-11.944610805530505" fill="none" id="id144" stroke="none" /><text fill="#e1ed5e" style="font-size:6.75px; font-family:Arial;" text-anchor="middle"><textPath startOffset="22.20632615414155" xlink:href="#id144">December</textPath></text><path d="M 89.63071344664047 81.73862282372117 l -18.038599330625644 -31.767823602251678 a57.53198163574797,57.53198163574797 0 0,0 0.8653793860324873,-0.48158269140070087 l 17.48909585552111 32.073621691212566" fill="#4bff2c" stroke="none" /><path d="M 89.94658935756843 81.56283822128135 l -14.599517391723978 -26.77436281239256 a51.496104867357744,51.496104867357744 0 0,0 0.7818946724502316,-0.41766105529561093 l 14.136477672745443 27.02170259418992" fill="#8aff24" stroke="none" /><path d="M 90.58718382345135 81.22770947309562 l -3.3314529197885037 -6.644026709326924 a28.43247398051395,28.43247398051395 0 0,0 0.4393883217454868,-0.21560594123797938 l 3.2165933310325907 6.700387810699733" fill="#ff5607" stroke="none" /><path d="M 91.23893434514133 80.91482961587045 l -21.86944863800856 -47.640569070714974 a73.4203834887924,73.4203834887924 0 0,0 1.1531121592205011,-0.5173678134295807 l 21.046154360321285 48.009957214661085" fill="#40ffc4" stroke="none" /><path d="M 91.90106846888425 80.62456947434976 l -4.5453192887130385 -10.873967480402285 a32.78571576957434,32.78571576957434 0 0,0 0.5225670435793873,-0.213168217953086 l 4.357468375545271 10.95059658453895" fill="#ff910d" stroke="none" /><path d="M 92.57280143429618 80.3572730644239 l -3.0968133122596186 -8.19014837492881 a29.756071213411722,29.756071213411722 0 0,0 0.48065644148377723,-0.1770298238250486 l 2.9553745450032722 8.242241466560182" fill="#ff6809" stroke="none" /><path d="M 93.25333710446033 80.11325718540243 l -6.323627029025956 -18.639784783795346 a40.68323742651183,40.68323742651183 0 0,0 0.665107345491049,-0.2192754347325821 l 6.001836861292498 18.74587394278716" fill="#fff617" stroke="none" /><path d="M 93.94186890950719 79.89281104454417 l -5.968440663368323 -19.809502698960365 a41.68909570600577,41.68909570600577 0 0,0 0.6888820963927864,-0.20110357432793724 l 5.626568349252116 19.909304602207" fill="#fbff18" stroke="none" /></svg>