<?xml version="1.0" encoding="utf-8" ?>
<svg baseProfile="full" height="200mm" version="1.1" viewBox="0,0,200,200" width="200mm" xmlns="http://www.w3.org/2000/svg" xmlns:ev="http://www.w3.org/2001/xml-events" xmlns:xlink="http://www.w3.org/1999/xlink"><defs /><rect fill="#1a1a1a" height="200" width="200" x="0" y="0" /><text alignment-baseline="middle" fill="#e1ed5e" style="dominant-baseline: central; font-size:9.0px; font-family:Arial;" text-anchor="middle" x="100.0" y="100.0">2024</text><line stroke="#e1ed5e" stroke-width="0.3" x1="100.0" x2="100.0" y1="15.0" y2="10.0" /><path d="M 100.0 14.0 a86.0,86.0 0 0,1 42.35913384403234,11.155469271406648" fill="none" id="id121" stroke="none" /><text fill="#e1ed5e" style="font-size:6.75px; font-family:Arial;" text-anchor="middle"><textPath startOffset="22.145653131862478" xlink:href="#id121">January</textPath></text><path d="M 100.72087961077811 79.0123766808444 l 1.163712472554574 -33.88021891674251 a54.90019853282833,54.90019853282833 0 0,0 0.9416017737821204,0.04043643162927713 l -1.7451400069375307 33.8552499166874" fill="#66ff29" stroke="none" /><path d="M 102.15924093988457 79.11130261209362 l 1.5307662166291995 -14.80877454671968 a35.88768110840456,35.88768110840456 0 0,0 0.612250843616223,0.06860398406025 l -1.784752961846219 14.780314802152459" fill="#ffba11" stroke="none" /><path d="M 102.51750503828377 79.15144685158666 l 1.1958613545105687 -9.903447511923844 a30.975387561425492,30.975387561425492 0 0,0 0.5273518108922723,0.06827624987106964 l -1.365690987293633 9.881459665852377" fill="#ff790b" stroke="none" /><path d="M 102.87502721639298 79.19773525538626 l 1.7449609214030632 -12.625667975961871 a33.745680854958394,33.745680854958394 0 0,0 0.5731541502447216,0.0842339224388272 l -1.9614401772554668 12.593852980224161" fill="#ff9e0e" stroke="none" /><path d="M 103.94208987418118 79.37332000966035 l 4.823239303180061 -25.237226141169305 a46.69399191788345,46.69399191788345 0 0,0 0.7860233451219473,0.15722668289205322 l -5.255759133832965 25.150710061614394" fill="#c0ff1e" stroke="none" /><path d="M 104.64783097203109 79.52079915486377 l 3.5530248117832532 -15.655282897791016 a37.05340673885189,37.05340673885189 0 0,0 0.6190880485267141,0.14610309376294278 l -3.821245014049852 15.591983660381846" fill="#ffc912" stroke="none" /><path d="M 105.3480935250658 79.69241777938227 l 3.2716136254066943 -12.422849821277616 a33.846425705073145,33.846425705073145 0 0,0 0.5605912558145973,0.1527916396108544 l -3.4843862821559846 12.36485768752262" fill="#ff9f0e" stroke="none" /><path d="M 106.38641147887787 79.99465700312896 l 3.899158002282715 -12.214056907020003 a33.82133453485589,33.82133453485589 0 0,0 0.5515732409808244,0.18131307994705068 l -4.1082539809112815 12.14532290567093" fill="#ff9f0e" stroke="none" /><path d="M 107.06938296918511 80.22567764915836 l 4.309868260255837 -12.055468580418951 a33.8027062418158,33.8027062418158 0 0,0 0.544723928365681,0.20003017170847745 l -4.516181340275643 11.979707559701751" fill="#ff9f0e" stroke="none" /><path d="M 108.07796709384702 80.6158196554323 l 5.899283244178047 -14.156132227368937 a36.3361540952676,36.3361540952676 0 0,0 0.5737044857710988,0.24488033039822465 l -6.141422805119576 14.05277724731131" fill="#ffc011" stroke="none" /><path d="M 108.73861861582097 80.90454125486305 l 9.521240768324777 -20.805629389168757 a43.880739499584635,43.880739499584635 0 0,0 0.6822646042989918,0.31933428437134587 l -9.876994086495275 20.639118873226877" fill="#e1ff1b" stroke="none" /><path d="M 109.3889696526874 81.21577127319529 l 6.868314010443684 -13.741228922042945 a36.3621323270582,36.3621323270582 0 0,0 0.5559471833650983,0.2838705931067325 l -7.103188415522361 13.62130037726338" fill="#ffc011" stroke="none" /><path d="M 110.34350942703115 81.72400993836675 l 7.013197620952479 -12.391648204606165 a35.23860548288535,35.23860548288535 0 0,0 0.5238932406596526,0.30246990352147585 l -7.2248833294725285 12.269431403808516" fill="#ffb110" stroke="none" /><line stroke="#e1ed5e" stroke-width="0.3" x1="143.13028292997686" x2="145.6673583964461" y1="26.7553504044142" y2="22.446841604673864" /><path d="M 143.63769802327073 25.89364864446614 a86.0,86.0 0 0,1 29.32050498858742,28.57503671076993" fill="none" id="id122" stroke="none" /><text fill="#e1ed5e" style="font-size:6.75px; font-family:Arial;" text-anchor="middle"><textPath startOffset="20.669276256404974" xlink:href="#id122">February</textPath></text><path d="M 110.65571695917076 81.90426304109057 l 4.208513829779075 -7.146976551969271 a29.294025710705284,29.294025710705284 0 0,0 0.4311344655115872,0.25888385904036504 l -4.330581051848096 7.073678692392985" fill="#ff6209" stroke="none" /><path d="M 111.27062007382361 82.28071324371311 l 8.361846252012333 -13.146211173909563 a36.58022275101731,36.58022275101731 0 0,0 0.526954426543897,0.3415654928029892 l -8.586286310813236 13.00073183940268" fill="#ffc312" stroke="none" /><path d="M 112.16784306229584 82.88440491214696 l 7.358683028522108 -10.350909232739275 a33.70006054547247,33.70006054547247 0 0,0 0.46862179194404663,0.33924603828540756 l -7.535285830840123 10.223062423080792" fill="#ff9d0e" stroke="none" /><path d="M 112.7482090630111 83.31218511350987 l 6.7072164879953755 -8.7799616873277 a32.048732065163826,32.048732065163826 0 0,0 0.4343214491807515,0.33773098585275213 l -6.856947881811353 8.663529649854157" fill="#ff870c" stroke="none" /><path d="M 113.59037401385872 83.9905735841838 l 9.365072122361697 -11.03203141200318 a35.47101561509976,35.47101561509976 0 0,0 0.4608200444500583,0.39804537891113323 l -9.553071646574615 10.869641900627325" fill="#ffb410" stroke="none" /><path d="M 115.41159269507618 85.73525988315684 l 7.673447772614955 -7.102428700408906 a31.45592148801059,31.45592148801059 0 0,0 0.36339423214898847,0.39943391843144915 l -7.79423970560582 6.969657206419785" fill="#ff7f0b" stroke="none" /><path d="M 116.1254893667686 86.54754324733833 l 9.758842420538528 -8.141173432471286 a33.708804438123934,33.708804438123934 0 0,0 0.3668692606664901,0.4475208459057424 l -9.897158500443647 7.972450304867048" fill="#ff9d0e" stroke="none" /><path d="M 116.57777611688842 87.10902102172516 l 12.028705528828878 -9.35359417419229 a36.23743681446333,36.23743681446333 0 0,0 0.3776424472663595,0.49434608595708085 l -12.187499953449544 9.145727174994327" fill="#ffbe11" stroke="none" /><path d="M 117.01052211995028 87.68569379921539 l 10.379030222001216 -7.513617472741865 a33.813224257613946,33.813224257613946 0 0,0 0.3363367627350492,0.4730997773936001 l -10.506482083266226 7.334340468638761" fill="#ff9f0e" stroke="none" /><path d="M 117.42321728460499 88.27688183743584 l 10.81335933609408 -7.275710746218315 a34.03321552780164,34.03321552780164 0 0,0 0.321979437634186,0.4875179064564917 l -10.936663212648991 7.089012961422765" fill="#ffa20e" stroke="none" /><path d="M 117.81537515405839 88.88188828441811 l 7.568614765427639 -4.723375385954635 a29.921558412300588,29.921558412300588 0 0,0 0.26819980221971046,0.43808422092826327 l -7.648582532102752 4.592754048901817" fill="#ff6a09" stroke="none" /><line stroke="#e1ed5e" stroke-width="0.3" x1="172.87174338648825" x2="177.1583165268699" y1="56.24261187166439" y2="53.66864786411523" /><path d="M 173.72905801456457 55.72781907015455 a86.0,86.0 0 0,1 12.242430191666344,42.057860355516425" fill="none" id="id123" stroke="none" /><text fill="#e1ed5e" style="font-size:6.75px; font-family:Arial;" text-anchor="middle"><textPath startOffset="22.145653131862474" xlink:href="#id123">March</textPath></text><path d="M 118.36410011445183 89.81374322990088 l 13.007025407979949 -7.214777734555055 a35.873995015558776,35.873995015558776 0 0,0 0.29408928903831,0.5410911678635436 l -13.128960046633601 6.990431733216909" fill="#ffba11" stroke="none" /><path d="M 119.0197475246899 91.09779779509293 l 11.608983275850866 -5.433590345027143 a33.81765956548064,33.81765956548064 0 0,0 0.2415797284316794,0.5278953048227395 l -11.700547469137598 5.23350605798972" fill="#ff9f0e" stroke="none" /><path d="M 119.31412917781788 91.75594674310238 l 15.856135216296657 -6.7680412597555195 a38.24016840089551,38.24016840089551 0 0,0 0.2525201456084213,0.6059564227289973 l -15.969981206441561 6.494852327585244" fill="#ffd814" stroke="none" /><path d="M 119.58574465831526 92.42381321644754 l 10.66488938877879 -4.1254083234977115 a32.434984018811335,32.434984018811335 0 0,0 0.19641593991246592,0.5210166162352684 l -10.734136012505695 3.9417234270682853" fill="#ff8c0c" stroke="none" /><path d="M 119.83427380445688 93.10060997987247 l 12.044501776074915 -4.189702944031483 a33.752397178299375,33.752397178299375 0 0,0 0.18566161576063572,0.5488755770891557 l -12.114648813407916 3.982325692468166" fill="#ff9e0e" stroke="none" /><path d="M 119.94978838288452 93.4421083053983 l 8.302877951466039 -2.729320898758217 a29.739964235930216,29.739964235930216 0 0,0 0.15526425865621027,0.4863630788347193 l -8.348506925899507 2.586388786232111" fill="#ff6809" stroke="none" /><path d="M 120.16314734710363 94.1308016681162 l 14.882938167284747 -4.332206394231653 a36.500640655580746,36.500640655580746 0 0,0 0.16995655635935722,0.6031158609500021 l -14.955113215718686 4.076082609378638" fill="#ffc212" stroke="none" /><path d="M 120.35273937422433 94.82641323984039 l 12.406873895516418 -3.1537788275373098 a33.801439010996745,33.801439010996745 0 0,0 0.13812309946868373,0.563589380455487 l -12.459184521501392 2.940333622473728" fill="#ff9f0e" stroke="none" /><path d="M 120.51834098615036 95.52812308129327 l 12.403693655863783 -2.7033273013547476 a33.69486489911434,33.69486489911434 0 0,0 0.1183207843392563,0.5662077856694444 l -12.448272151027407 2.4900030643998985" fill="#ff9d0e" stroke="none" /><path d="M 120.592083275326 95.88100663000786 l 8.714088733405532 -1.7430617989695518 a29.886709564776616,29.886709564776616 0 0,0 0.09631164036832182,0.5039431998324622 l -8.74272666605601 1.593216034103775" fill="#ff6a09" stroke="none" /><path d="M 120.7213421655516 96.59031103205396 l 14.093557017269468 -2.31908944396426 a35.283085284634126,35.283085284634126 0 0,0 0.09321204401665877,0.5984881883955968 l -14.13129055342439 2.0768130736372217" fill="#ffb210" stroke="none" /><path d="M 120.82617615685814 97.30363454192243 l 12.58689486001199 -1.6296255380426263 a33.69195026823053,33.69195026823053 0 0,0 0.06933789525886137,0.5742172398943628 l -12.613014841530514 1.4133146212248506" fill="#ff9d0e" stroke="none" /><path d="M 120.9064616781168 98.02013634271609 l 14.33969465881199 -1.357983993113821 a35.40385238168992,35.40385238168992 0 0,0 0.05210499141247604,0.605538981777241 l -14.360893272922207 1.111623963960918" fill="#ffb410" stroke="none" /><path d="M 120.93736805541906 98.37931529534042 l 7.6942922950775055 -0.5955868857444393 a28.71730896495403,28.71730896495403 0 0,0 0.033826308085328514,0.49182709570654326 l -7.7033825643279 0.46341636588356194" fill="#ff5a08" stroke="none" /><path d="M 120.98066250479742 99.09900007780936 l 13.399514008076524 -0.5754327860671116 a34.41186409653483,34.41186409653483 0 0,0 0.02027893281983535,0.5903990027929704 l -13.407417627893208 0.3453275187100212" fill="#ffa70f" stroke="none" /><line stroke="#e1ed5e" stroke-width="0.3" x1="184.99686870605535" x2="189.99668451229388" y1="99.2704041080226" y2="99.22748670261217" /><path d="M 185.99683186730306 99.26182062694052 a86.0,86.0 0 0,1 -10.086455211305974,41.156179273409016" fill="none" id="id124" stroke="none" /><text fill="#e1ed5e" style="font-size:6.75px; font-family:Arial;" text-anchor="middle"><textPath startOffset="21.40746469413373" xlink:href="#id124">April</textPath></text><path d="M 120.99922638620191 99.81974689727618 l 12.684639918284917 -0.1088823778626317 a33.685107221807634,33.685107221807634 0 0,0 0.0,0.5782709611729157 l -12.684639918284917 -0.10888237786263016" fill="#ff9d0e" stroke="none" /><path d="M 120.99303781780057 100.54070618675476 l 14.540073066600206 0.37450070500566524 a35.544895171850584,35.544895171850584 0 0,0 -0.020946628734093115,0.6098382408163406 l -14.531501750869266 -0.6240452103861166" fill="#ffb510" stroke="none" /><path d="M 120.93736805541906 101.62068470465957 l 10.587722201144434 0.8195566598036714 a31.619394263668493,31.619394263668493 0 0,0 -0.04653528234199184,0.5408105197257428 l -10.572093296104702 -1.0011882269050716" fill="#ff810b" stroke="none" /><path d="M 120.86939407059847 102.33845913500097 l 11.792170842358269 1.32133733900086 a32.86596922037144,32.86596922037144 0 0,0 -0.06763802965516963,0.5601399141910272 l -11.767750726443436 -1.5235709301152958" fill="#ff920d" stroke="none" /><path d="M 120.82617615685814 102.69636545807757 l 8.254404086670135 1.068697867946461 a29.323298742625422,29.323298742625422 0 0,0 -0.06891740883991783,0.498652039196823 l -8.234842161275006 -1.2102382153433688" fill="#ff6209" stroke="none" /><path d="M 120.7213421655516 103.40968896794604 l 12.559672445835934 2.0666893214464035 a33.72857323890117,33.72857323890117 0 0,0 -0.09891334945925095,0.5705059144812336 l -12.52234427888445 -2.281988268848225" fill="#ff9e0e" stroke="none" /><path d="M 120.592083275326 104.11899336999214 l 16.737159065247212 3.347900564527296 a38.06871207107757,38.06871207107757 0 0,0 -0.13367971305187662,0.6397058195540875 l -16.677221641370974 -3.634722835366793" fill="#ffd614" stroke="none" /><path d="M 120.51834098615036 104.47187691870673 l 7.701760431189435 1.6785628394075462 a28.882555863758608,28.882555863758608 0 0,0 -0.10973877373247319,0.48352928522789745 l -7.671810795899298 -1.8105264585744607" fill="#ff5c08" stroke="none" /><path d="M 120.35273937422433 105.17358676015961 l 12.523918717009677 3.1835311634606804 a33.92220610805255,33.92220610805255 0 0,0 -0.14830549309663116,0.5631401135214806 l -12.467423743108316 -3.3980517813549644" fill="#ffa00e" stroke="none" /><path d="M 120.16314734710363 105.8691983318838 l 12.198098415493893 3.5506886717591355 a33.70436913025725,33.70436913025725 0 0,0 -0.16647339038792122,0.5541357740654982 l -12.135348705102343 -3.759562049415357" fill="#ff9d0e" stroke="none" /><path d="M 119.83427380445688 106.89939002012753 l 13.170771369373915 4.581477972882508 a34.94486137902874,34.94486137902874 0 0,0 -0.2019477349903287,0.5648837567759354 l -13.090183464339642 -4.806896686039366" fill="#ffae10" stroke="none" /><path d="M 119.58574465831526 107.57618678355244 l 11.895826298483689 4.601561163708143 a33.754804916855576,33.754804916855576 0 0,0 -0.2136861186622266,0.5386286091329946 l -11.815081504855337 -4.805090790054702" fill="#ff9e0e" stroke="none" /><path d="M 119.0197475246899 108.90220220490707 l 26.117716049604503 12.224409872008374 a49.83697779529999,49.83697779529999 0 0,0 -0.36931749835904637,0.7717315292328856 l -25.904019293285547 -12.670953903306364" fill="#9cff22" stroke="none" /><path d="M 118.70294669586154 109.54985784667822 l 9.844471927779223 5.0266575109636875 a32.05354754227623,32.05354754227623 0 0,0 -0.2544317969535854,0.4879065187484298 l -9.756732061850688 -5.19491027281662" fill="#ff870c" stroke="none" /><line stroke="#e1ed5e" stroke-width="0.3" x1="174.33088141563837" x2="178.70328620479359" y1="141.23008692659167" y2="143.65538615756765" /><path d="M 175.20536237346943 141.71514677278685 a86.0,86.0 0 0,1 -30.301960400862466,31.631185727798858" fill="none" id="id125" stroke="none" /><text fill="#e1ed5e" style="font-size:6.75px; font-family:Arial;" text-anchor="middle"><textPath startOffset="22.145653131862474" xlink:href="#id125">May</textPath></text><path d="M 118.18653347947321 110.5 l 14.422741542475583 8.326973712000672 a37.65394742400135,37.65394742400135 0 0,0 -0.32799509053530695,0.5570073703048635 l -14.27767274181051 -8.573332250599085" fill="#ffd113" stroke="none" /><path d="M 117.423217284605 111.72311816256416 l 10.537263722989472 7.089941295965811 a33.700440714718184,33.700440714718184 0 0,0 -0.327071223405067,0.47720668958992607 l -10.414002762769085 -7.269782720625781" fill="#ff9d0e" stroke="none" /><path d="M 116.57777611688842 112.89097897827486 l 11.131669530783196 8.656053556438241 a35.101110939018035,35.101110939018035 0 0,0 -0.3739665161349062,0.47249447661421695 l -10.981436584006728 -8.84586797696714" fill="#ffb010" stroke="none" /><path d="M 116.1254893667686 113.45245675266167 l 28.48229792374431 23.76094593601638 a58.09209951986033,58.09209951986033 0 0,0 -0.6453906016794837,0.7602685059668465 l -28.07021275855771 -24.246381224432785" fill="#45ff2d" stroke="none" /><path d="M 115.6541949942343 113.99807769240083 l 9.500073914839005 8.495024675011818 a33.744286901057436,33.744286901057436 0 0,0 -0.3898305516975129,0.42849206457683214 l -9.352845662299611 -8.65685431514632" fill="#ff9e0e" stroke="none" /><path d="M 114.39649973595853 115.28858382429668 l 8.817174483814478 9.363533752065342 a33.861505751819884,33.861505751819884 0 0,0 -0.4266069676386857,0.39486104037414504 l -8.655137744861824 -9.513512538571867" fill="#ff9f0e" stroke="none" /><path d="M 113.31354834802062 116.24036423190432 l 19.401718235372563 23.666941571897045 a51.60311738781487,51.60311738781487 0 0,0 -0.689882640661738,0.555720621087315 l -18.99258482435557 -23.996510486777762" fill="#89ff24" stroke="none" /><path d="M 112.7482090630111 116.68781488649013 l 8.571571577991337 11.220462346734806 a35.11986595514003,35.11986595514003 0 0,0 -0.48222420847710296,0.3618700360824098 l -8.377694380603467 -11.36595141008123" fill="#ffb010" stroke="none" /><path d="M 112.16784306229584 117.11559508785304 l 15.790781149930444 22.211711221077937 a48.252685825319276,48.252685825319276 0 0,0 -0.6792252759054659,0.4741519938753017 l -15.40716078285122 -22.47950803075836" fill="#aeff20" stroke="none" /><path d="M 111.27062007382361 117.71928675628689 l 6.151394878358215 9.671014468310933 a32.461595866011464,32.461595866011464 0 0,0 -0.4727581167884669,0.2950360299151423 l -5.984472632780033 -9.775186295067623" fill="#ff8d0d" stroke="none" /><line stroke="#e1ed5e" stroke-width="0.3" x1="143.1302829299769" x2="145.66735839644613" y1="173.24464959558577" y2="177.55315839532614" /><path d="M 143.63769802327073 174.10635135553383 a86.0,86.0 0 0,1 -40.68552437913181,11.842963189579606" fill="none" id="id126" stroke="none" /><text fill="#e1ed5e" style="font-size:6.75px; font-family:Arial;" text-anchor="middle"><textPath startOffset="21.407464694133747" xlink:href="#id126">June</textPath></text><path d="M 110.65571695917076 118.09573695890943 l 31.967150877512285 54.28721087672828 a84.0,84.0 0 0,0 -1.2488301285584058,0.7210124108953133 l -31.03052828109348 -54.82797018489977" fill="#4dd2ff" stroke="none" /><path d="M 110.02825361518725 118.45085714620011 l 26.247213582838068 48.29191670714497 a75.96385576097211,75.96385576097211 0 0,0 -1.1510737380532552,0.6128819310272274 l -25.414351028998258 -48.73536910589477" fill="#43ffdf" stroke="none" /><path d="M 109.71004243097381 118.62028667847754 l 5.8859442917860205 11.287074270345153 a33.72958702355642,33.72958702355642 0 0,0 -0.5156977245765124,0.2633189326605315 l -5.691319345495925 -11.38645115467852" fill="#ff9e0e" stroke="none" /><path d="M 108.73861861582097 119.09545874513695 l 10.83064405658429 23.666911883685437 a47.027400346376425,47.027400346376425 0 0,0 -0.7369565310731013,0.32963128264035324 l -10.422774122655563 -23.84934691723564" fill="#bcff1f" stroke="none" /><path d="M 108.07796709384702 119.3841803445677 l 9.9599668618127 23.900294669726158 a46.89256698722913,46.89256698722913 0 0,0 -0.7456935023196941,0.303267055646426 l -9.548218898302567 -24.067748981951876" fill="#beff1f" stroke="none" /><path d="M 107.407793817531 119.65005319985036 l 18.960237152664828 50.294281659126966 a74.74946846707311,74.74946846707311 0 0,0 -1.2045729065402522,0.4423358563548805 l -18.09407509447045 -50.61234836449057" fill="#41ffd2" stroke="none" /><path d="M 106.72888874123015 119.89276391827305 l 2.031388176613326 6.005438190133085 a27.339702341560947,27.339702341560947 0 0,0 -0.44586792435541067,0.14656564279790424 l -1.9279975146101809 -6.039424754333009" fill="#ff4606" stroke="none" /><path d="M 106.38641147887787 120.00534299687104 l 7.416323692963605 23.231528338607266 a45.38658988186593,45.38658988186593 0 0,0 -0.7442522556111663,0.23057125125799466 l -7.016430804480814 -23.355416177671906" fill="#cfff1d" stroke="none" /><path d="M 105.69591212413111 120.21278271476187 l 3.455067309848697 12.26081499800207 a33.738330916207886,33.738330916207886 0 0,0 -0.5588009044798614,0.15230367139323442 l -3.2440850044341407 -12.318319163539448" fill="#ff9e0e" stroke="none" /><path d="M 105.3480935250658 120.30758222061773 l 11.359606376187704 43.134275681060906 a65.60500415370103,65.60500415370103 0 0,0 -1.091525770915665,0.2774615825884336 l -10.617475312046643 -43.322922495484605" fill="#36ff6e" stroke="none" /><path d="M 103.58742460773223 120.69131181640829 l 2.00816170857919 11.582543086877514 a32.75533996986807,32.75533996986807 0 0,0 -0.5548481582108082,0.09130005328909882 l -1.8090360473153095 -11.615309138662285" fill="#ff910d" stroke="none" /><path d="M 102.51750503828377 120.84855314841334 l 1.2170841791790188 10.079202944914488 a31.15241970684727,31.15241970684727 0 0,0 -0.5314663599631967,0.05955191416662083 l -1.0438819176150227 -10.098610619588081" fill="#ff7b0b" stroke="none" /><path d="M 101.80034050326958 120.92268563240118 l 1.0563859955893784 12.276806555230916 a33.32217231523071,33.32217231523071 0 0,0 -0.5703343757874372,0.044147487732634355 l -0.8454826250267053 -12.293131809958604" fill="#ff980e" stroke="none" /><path d="M 101.08105385017728 120.97215588758144 l 0.9828048915016586 19.066152336694675 a40.0914659044508,40.0914659044508 0 0,0 -0.6876149161206353,0.029529143123105967 l -0.6553642147801937 -19.08021404824361" fill="#ffef16" stroke="none" /><line stroke="#e1ed5e" stroke-width="0.3" x1="101.45913802915013" x2="101.54496967792366" y1="184.9874750549273" y2="189.98673829345242" /><path d="M 101.47630435890484 185.9873277026323 a86.0,86.0 0 0,1 -42.54439059252881,-10.42667462771756" fill="none" id="id127" stroke="none" /><text fill="#e1ed5e" style="font-size:6.75px; font-family:Arial;" text-anchor="middle"><textPath startOffset="22.145653131862474" xlink:href="#id127">July</textPath></text><path d="M 100.0 121.0 l 1.169255676621607e-15 9.547697159994932 a30.547697159994932,30.547697159994932 0 0,0 -0.5243918426954071,-0.0045012732826682274 l 0.16389891784655372 -9.546290284906698" fill="#ff730a" stroke="none" /><path d="M 98.91894614982273 120.97215588758144 l -0.4965136443999983 9.632232056673647 a30.645020486898243,30.645020486898243 0 0,0 -0.5251325572012963,-0.031590670622054715 l 0.6617905537337408 -9.622289408226901" fill="#ff740a" stroke="none" /><path d="M 97.48249496171623 120.84855314841334 l -1.37011031581848 11.346478876564289 a32.42890131087988,32.42890131087988 0 0,0 -0.5520976871597266,-0.07148009898359438 l 1.5646858248690008 -11.321287181380297" fill="#ff8c0c" stroke="none" /><path d="M 96.76829788921471 120.74984581791261 l -1.3884474522520323 8.914828648455638 a30.022303262415342,30.022303262415342 0 0,0 -0.5085527943145021,-0.08368216877741524 l 1.5412777496195977 -8.889680481182554" fill="#ff6c09" stroke="none" /><path d="M 95.70440661134978 120.55596938700252 l -1.0377659805728159 4.966085892554792 a26.073358584080765,26.073358584080765 0 0,0 -0.4373341342037763,-0.09531493905031274 l 1.1228625313957288 -4.94753949537076" fill="#ff3405" stroke="none" /><path d="M 94.6519064749342 120.30758222061772 l -2.9155810971895355 11.070936320495024 a32.448416665493305,32.448416665493305 0 0,0 -0.5374363250704368,-0.1464806602711274 l 3.1051988231946672 -11.019255166079752" fill="#ff8d0d" stroke="none" /><path d="M 94.30408787586889 120.21278271476187 l -0.5671313517822503 2.0125490938911694 a23.09093085143831,23.09093085143831 0 0,0 -0.38060450090542997,-0.1107884232241421 l 0.601595865069287 -2.0025169763645114" fill="#ff0901" stroke="none" /><path d="M 93.27111125876986 119.89276391827306 l -2.9450418378025818 8.70649289382271 a30.19109840751327,30.19109840751327 0 0,0 -0.489518797303762,-0.17028004846960973 l 3.0940664071513657 -8.65465441278451" fill="#ff6e0a" stroke="none" /><path d="M 92.25597844496254 119.51999308798841 l -3.48046140114072 8.773036336538018 a30.438208417228708,30.438208417228708 0 0,0 -0.4840335195375761,-0.1968522185692923 l 3.630549381868737 -8.711996861389435" fill="#ff710a" stroke="none" /><path d="M 90.6110303473126 118.78422872680471 l -2.2717798729378225 4.54508155088146 a26.081215415158898,26.081215415158898 0 0,0 -0.39876039497293386,-0.20360989895348325 l 2.3494674896243386 -4.505413700255141" fill="#ff3505" stroke="none" /><path d="M 90.28995756902619 118.62028667847754 l -0.9521621743869995 1.8258965166757128 a23.05925008096197,23.05925008096197 0 0,0 -0.3494148226350823,-0.18604371218502874 l 0.9833658128086435 -1.809282336768111" fill="#ff0901" stroke="none" /><line stroke="#e1ed5e" stroke-width="0.3" x1="58.13341422392154" x2="55.67067388415222" y1="173.97424548756322" y2="178.32567169271397" /><path d="M 57.64086615596768 174.84453072859336 a86.0,86.0 0 0,1 -31.369924170532247,-30.572349798747897" fill="none" id="id128" stroke="none" /><text fill="#e1ed5e" style="font-size:6.75px; font-family:Arial;" text-anchor="middle"><textPath startOffset="22.145653131862474" xlink:href="#id128">August</textPath></text><path d="M 89.65649057296885 118.27599006163327 l -5.165648229886318 9.127205459355697 a31.487602258486927,31.487602258486927 0 0,0 -0.468126980672167,-0.2702732383060044 l 5.3215676784188854 -9.037185323773521" fill="#ff800b" stroke="none" /><path d="M 88.4268655584334 117.5232005979908 l -3.60067142437724 5.451875459961798 a27.533588656876134,27.533588656876134 0 0,0 -0.3921618366324682,-0.2638639853130226 l 3.6937295491067137 -5.389261800591654" fill="#ff4906" stroke="none" /><path d="M 87.83215693770417 117.11559508785305 l -5.903305741696883 8.30373881692865 a31.188282339026486,31.188282339026486 0 0,0 -0.4336938427054463,-0.31396089660329746 l 6.044980594776283 -8.201177148952288" fill="#ff7c0b" stroke="none" /><path d="M 87.54013794807813 116.9041958592261 l -0.9398524519851688 1.275090355007633 a22.5840385238169,22.5840385238169 0 0,0 -0.31009714317460535,-0.23270267733764105 l 0.9616025840705403 -1.258768650405977" fill="#ff0200" stroke="none" /><path d="M 86.13680546590413 115.77377054828092 l -4.191023900993879 4.768615863684853 a27.348572957294323,27.348572957294323 0 0,0 -0.3499770485760749,-0.3129516349022987 l 4.272265976393324 -4.695968698899172" fill="#ff4606" stroke="none" /><path d="M 85.60350026404147 115.28858382429668 l -1.2814019059074384 1.3608044184620018 a22.869165458103943,22.869165458103943 0 0,0 -0.28349871400204846,-0.27158535501360476 l 1.3045731057748013 -1.3386069331428145" fill="#ff0601" stroke="none" /><path d="M 85.08716467003676 114.78537596483092 l -13.476526992048504 13.36134369279059 a39.97741513073598,39.97741513073598 0 0,0 -0.47899263346507187,-0.4914886388830438 l 13.703906426664386 -13.12803236183981" fill="#ffee16" stroke="none" /><path d="M 84.58840730492382 114.26474011684316 l -7.166410598256738 6.633122661448423 a30.765027245462612,30.765027245462612 0 0,0 -0.3554126830195923,-0.390660797776632 l 7.27922098211821 -6.509124288114117" fill="#ff760a" stroke="none" /><path d="M 84.3458050057657 113.99807769240083 l -1.3697306475734397 1.2248215912384794 a22.837484687627605,22.837484687627605 0 0,0 -0.2588127944128775,-0.29448145043247576 l 1.3905545059449096 -1.2011278629947035" fill="#ff0600" stroke="none" /><path d="M 83.8745106332314 113.45245675266167 l -1.1190440315510635 0.9335463313000537 a22.457315441911547,22.457315441911547 0 0,0 -0.24441385121953893,-0.298145157351528 l 1.1349047020092322 -0.9141988922500305" fill="#ff0000" stroke="none" /><path d="M 83.4222238831116 112.89097897827486 l -31.64755405751498 24.60932945364308 a61.08973402233143,61.08973402233143 0 0,0 -0.636636547368537,-0.8333776768131258 l 32.06534258223781 -24.062430863589086" fill="#30ff39" stroke="none" /><path d="M 82.78059297857968 112.02048342749411 l -1.480708221442992 1.0336493361628925 a22.805803917151266,22.805803917151266 0 0,0 -0.22133604278536625,-0.3229359011316264 l 1.4982340010436834 -1.008078699961215" fill="#ff0500" stroke="none" /><path d="M 81.99639281039703 110.81064883170644 l -8.704035208154256 5.226523055252223 a31.15267315301108,31.15267315301108 0 0,0 -0.27136394854382073,-0.46083531045311943 l 8.792472866827847 -5.076336576505544" fill="#ff7b0b" stroke="none" /><line stroke="#e1ed5e" stroke-width="0.3" x1="26.387840678322732" x2="22.057713659400548" y1="142.50000000000003" y2="145.00000000000006" /><path d="M 25.521815274538298 143.00000000000003 a86.0,86.0 0 0,1 -11.493303480769221,-40.785679425670985" fill="none" id="id129" stroke="none" /><text fill="#e1ed5e" style="font-size:6.75px; font-family:Arial;" text-anchor="middle"><textPath startOffset="21.40746469413373" xlink:href="#id129">September</textPath></text><path d="M 81.63589988554817 110.18625677009913 l -4.529087603933926 2.512208547133654 a26.179172357471735,26.179172357471735 0 0,0 -0.21461267926478922,-0.39486315751737494 l 4.571545632814044 -2.434090556141692" fill="#ff3605" stroke="none" /><path d="M 80.9802524753101 108.90220220490708 l -7.024819622744399 3.287970287381052 a28.75621295109897,28.75621295109897 0 0,0 -0.20542279402862282,-0.4488858778643285 l 7.080226881628078 -3.1668954273020344" fill="#ff5a08" stroke="none" /><path d="M 80.41425534168474 107.57618678355246 l -8.57956525677368 3.31876015137358 a30.199081961673308,30.199081961673308 0 0,0 -0.18287602869037126,-0.4851003930804397 l 8.635271969278488 -3.1709914780989954" fill="#ff6e0a" stroke="none" /><path d="M 79.73907114497094 105.5222062557868 l -11.536144895471159 3.1442275902183683 a32.95695639317948,32.95695639317948 0 0,0 -0.14408548940731405,-0.5471160721522746 l 11.588419865683207 -2.945731013693291" fill="#ff930d" stroke="none" /><path d="M 79.407916724674 104.11899336999214 l -11.060395055708824 2.2123887755711906 a32.27949479731347,32.27949479731347 0 0,0 -0.10402252839014421,-0.5442898242737699 l 11.096743876381126 -2.0221963862641066" fill="#ff8a0c" stroke="none" /><path d="M 79.01933749520258 100.90099992219065 l -7.695896089184586 0.33049489147242656 a28.702989256698725,28.702989256698725 0 0,0 -0.01691468934179772,-0.49245272464152 l 7.700435465523232 -0.19833590226678668" fill="#ff5908" stroke="none" /><line stroke="#e1ed5e" stroke-width="0.3" x1="15.003131293944662" x2="10.003315487706104" y1="100.72959589197737" y2="100.7725132973878" /><path d="M 14.003168132696942 100.73817937305945 a86.0,86.0 0 0,1 10.791469493833604,-42.45332614584628" fill="none" id="id130" stroke="none" /><text fill="#e1ed5e" style="font-size:6.75px; font-family:Arial;" text-anchor="middle"><textPath startOffset="22.145653131862435" xlink:href="#id130">October</textPath></text><path d="M 79.00077361379809 100.18025310272382 l -1.4889413596252563 0.012780770820330214 a22.488996212387885,22.488996212387885 0 0,0 0.0,-0.38606774708829494 l 1.4889413596252563 0.012780770820329666" fill="#ff0000" stroke="none" /><path d="M 79.00077361379809 99.81974689727619 l -37.3854801231932 -0.32090938328342306 a58.38685740837217,58.38685740837217 0 0,0 0.017206240990983064,-1.0021772771296633 l 37.37446245060355 0.9626335763821389" fill="#42ff2d" stroke="none" /><path d="M 79.01933749520258 99.09900007780938 l -6.3832410262973145 -0.27412383506492144 a27.389124343504037,27.389124343504037 0 0,0 0.024204695904371014,-0.46956463420828565 l 6.377594740936373 0.3836602626499191" fill="#ff4706" stroke="none" /><path d="M 79.407916724674 95.88100663000787 l -7.909122503351471 -1.5820460085646448 a29.065797440193744,29.065797440193744 0 0,0 0.1020656399978641,-0.4884210355673829 l 7.88079915252924 1.717583495417437" fill="#ff5e08" stroke="none" /><path d="M 79.73907114497095 94.47779374421319 l -4.06977537105133 -1.1092353748672459 a25.21823122738345,25.21823122738345 0 0,0 0.11742269888692462,-0.416691733765888 l 4.050134180089824 1.178935032536147" fill="#ff2803" stroke="none" /><path d="M 79.94057633289273 93.78553927170692 l -11.152687230752246 -3.4551310127665427 a32.675631151349606,32.675631151349606 0 0,0 0.1705905765921773,-0.5343725514786504 l 11.09173193838281 3.646072597936585" fill="#ff900d" stroke="none" /><path d="M 80.16572619554312 93.10060997987247 l -3.618664706036343 -1.2587594285102934 a24.831345658326413,24.831345658326413 0 0,0 0.1435013279368839,-0.40139875414400916 l 3.596523208055516 1.3206931390352241" fill="#ff2303" stroke="none" /><path d="M 80.41425534168474 92.42381321644754 l -8.30288515061726 -3.2117343425466336 a29.902423226932882,29.902423226932882 0 0,0 0.18929846502438025,-0.4771557907711497 l 8.246528010626749 3.3537911505313662" fill="#ff6a09" stroke="none" /><path d="M 80.5471966667186 92.08871423366112 l -7.2378247153666715 -2.9435603017674192 a28.813491784120192,28.813491784120192 0 0,0 0.19027079233895153,-0.4565806359636399 l 7.186228078491241 3.067373447172323" fill="#ff5b08" stroke="none" /><path d="M 80.68587082218212 91.75594674310238 l -7.437509465127638 -3.1746305290125294 a29.086706748708128,29.086706748708128 0 0,0 0.19995880658197998,-0.45754488116212233 l 7.381916776528681 3.301837479950519" fill="#ff5f08" stroke="none" /><path d="M 81.1358732173502 90.77261029715801 l -10.285498104864295 -5.031152535971981 a32.450064065558074,32.450064065558074 0 0,0 0.2490621020176723,-0.4982910441232024 l 10.197616089634879 5.206975436258953" fill="#ff8d0d" stroke="none" /><path d="M 81.29705330413844 90.45014215332179 l -3.3972490942847604 -1.734659593899959 a24.814491488433,24.814491488433 0 0,0 0.19697026207675306,-0.37771644903473095 l 3.3669707632330677 1.7927222860391763" fill="#ff2203" stroke="none" /><path d="M 81.46374523516351 90.13048839642627 l -8.57777216535301 -4.567180533111865 a30.71788625899382,30.71788625899382 0 0,0 0.25182033187964314,-0.46332104754346143 l 8.498106483858017 4.713756414129946" fill="#ff750a" stroke="none" /><path d="M 81.63589988554816 89.8137432299009 l -6.975038707286744 -3.8689363927987777 a28.97620422128666,28.97620422128666 0 0,0 0.24500986085845122,-0.43290894774544847 l 6.907595481406925 3.9881021106433314" fill="#ff5d08" stroke="none" /><line stroke="#e1ed5e" stroke-width="0.3" x1="26.387840678322718" x2="22.05771365940052" y1="57.49999999999999" y2="54.99999999999999" /><path d="M 25.521815274538284 56.99999999999999 a86.0,86.0 0 0,1 29.574782752854787,-30.34633250058573" fill="none" id="id131" stroke="none" /><text fill="#e1ed5e" style="font-size:6.75px; font-family:Arial;" text-anchor="middle"><textPath startOffset="21.40746469413373" xlink:href="#id131">November</textPath></text><path d="M 81.99639281039701 89.18935116829357 l -10.32464123683778 -6.199650411683399 a33.04300136579322,33.04300136579322 0 0,0 0.29617863845649933,-0.4837855472298783 l 10.216694633925888 6.37597307503782" fill="#ff950d" stroke="none" /><path d="M 82.18462484594161 88.88188828441811 l -7.600221434855151 -4.743100285296564 a29.95881499838076,29.95881499838076 0 0,0 0.2760238420018867,-0.43395532596852054 l 7.517679901227375 4.872869285943756" fill="#ff6b09" stroke="none" /><path d="M 82.37810715431573 88.57770195909679 l -3.3784684867870167 -2.1898824556370813 a25.026119035214936,25.026119035214936 0 0,0 0.2367656305218072,-0.35849334156545226 l 3.3403784173444806 2.2475556755415944" fill="#ff2503" stroke="none" /><path d="M 82.576782715395 88.27688183743585 l -9.263922530944557 -6.233180514546141 a32.16569746976246,32.16569746976246 0 0,0 0.3121761555633951,-0.45547434046442997 l 9.155556638565848 6.391289590080605" fill="#ff890c" stroke="none" /><path d="M 82.98947788004972 87.6856937992154 l -7.4032401462850315 -5.359374944310155 a30.139522113177794,30.139522113177794 0 0,0 0.30698966241512216,-0.4164904361378939 l 7.31014846428609 5.485671689716913" fill="#ff6d0a" stroke="none" /><path d="M 83.64595745247003 86.82634096563983 l -5.275826553862051 -4.2498324156249225 a27.774615958660114,27.774615958660114 0 0,0 0.30228461056082284,-0.3687380740940508 l 5.202095124062598 4.339772771417467" fill="#ff4c07" stroke="none" /><path d="M 83.8745106332314 86.54754324733833 l -4.88097814109577 -4.071885563305277 a27.356429788372452,27.356429788372452 0 0,0 0.30392399012681953,-0.3580216961633902 l 4.810359587461837 4.1550740419182235" fill="#ff4706" stroke="none" /><path d="M 84.34580500576568 86.00192230759919 l -5.763732100806441 -5.153964785476947 a28.73200884245505,28.73200884245505 0 0,0 0.3319262573624493,-0.3648451017632323 l 5.674408142602125 5.252147462797837" fill="#ff5a08" stroke="none" /><path d="M 84.83555147118756 85.47280134310135 l -7.6880237356334185 -7.364952828604113 a31.646513003196237,31.646513003196237 0 0,0 0.3791752556741395,-0.3890672158385129 l 7.560461678808476 7.495842736510356" fill="#ff820b" stroke="none" /><path d="M 85.60350026404147 84.71141617570332 l -5.263651530645812 -5.589815519335194 a28.678024809563368,28.678024809563368 0 0,0 0.36130245629191915,-0.3344161596113245 l 5.16691930303994 5.679349425078884" fill="#ff5908" stroke="none" /><path d="M 86.13680546590413 84.22622945171909 l -8.015046687099739 -9.119651828092568 a33.14121175426986,33.14121175426986 0 0,0 0.43055250628997627,-0.37190100033919965 l 7.8573147010469135 9.255896960896479" fill="#ff960d" stroke="none" /><path d="M 86.68645165197937 83.75963576809568 l -25.526576589590036 -31.138272876004407 a61.264104983033185,61.264104983033185 0 0,0 0.8190404894696157,-0.6597610414825374 l 24.988285329765173 31.571882211280343" fill="#31ff3b" stroke="none" /><path d="M 87.25179093698888 83.31218511350988 l -6.215183677778168 -8.135874944287963 a31.238211233297193,31.238211233297193 0 0,0 0.4289259448045622,-0.3218740253901648 l 6.074604744062854 8.241367996942127" fill="#ff7c0b" stroke="none" /><path d="M 87.83215693770416 82.88440491214696 l -6.013665060706947 -8.458973019792447 a31.378747131130233,31.378747131130233 0 0,0 0.4417005564180582,-0.30834129257374915 l 5.867569413115123 8.560959128171323" fill="#ff7e0b" stroke="none" /><path d="M 88.4268655584334 82.4767994020092 l -4.924437413148538 -7.456225887510888 a29.93562467439208,29.93562467439208 0 0,0 0.43123602720784254,-0.27952198279025203 l 4.79571575368367 7.539661712005046" fill="#ff6a09" stroke="none" /><line stroke="#e1ed5e" stroke-width="0.3" x1="56.869717070023135" x2="54.33264160355391" y1="26.7553504044142" y2="22.446841604673864" /><path d="M 56.362301976729285 25.89364864446614 a86.0,86.0 0 0,1 42.16139366436587,-11.88097634709845" fill="none" id="id132" stroke="none" /><text fill="#e1ed5e" style="font-size:6.75px; font-family:Arial;" text-anchor="middle"><textPath startOffset="22.145653131862474" xlink:href="#id132">December</textPath></text></svg>