<?xml version="1.0" encoding="utf-8" ?>
<svg baseProfile="full" height="200mm" version="1.1" viewBox="0,0,200,200" width="200mm" xmlns="http://www.w3.org/2000/svg" xmlns:ev="http://www.w3.org/2001/xml-events" xmlns:xlink="http://www.w3.org/1999/xlink"><defs /><rect fill="#1a1a1a" height="200" width="200" x="0" y="0" /><text alignment-baseline="middle" fill="#e1ed5e" style="dominant-baseline: central; font-size:9.0px; font-family:Arial;" text-anchor="middle" x="100.0" y="100.0">2023</text><line stroke="#e1ed5e" stroke-width="0.3" x1="100.0" x2="100.0" y1="15.0" y2="10.0" /><path d="M 100.0 14.0 a86.0,86.0 0 0,1 42.46469731375804,11.215312516191453" fill="none" id="id109" stroke="none" /><text fill="#e1ed5e" style="font-size:6.75px; font-family:Arial;" text-anchor="middle"><textPath startOffset="22.20632615414155" xlink:href="#id109">January</textPath></text><path d="M 102.52436894288641 79.15227682838746 l 2.1884352877419957 -18.07338550349389 a39.205397896408016,39.205397896408016 0 0,0 0.6692646528024642,0.08688975995790746 l -2.499214669052306 18.033037420371844" fill="#ff0000" stroke="none" /><path d="M 103.59715602781102 79.31037775812273 l 4.565562277352989 -26.259566754928805 a47.653502679103,47.653502679103 0 0,0 0.8069437166297624,0.14746380635965714 l -5.016901115085653 26.17708746721841" fill="#ffa20f" stroke="none" /><path d="M 104.66035177308747 79.52364482259891 l 6.367161183839417 -27.975625064389387 a49.69104981147053,49.69104981147053 0 0,0 0.8323873473162234,0.19699919175317332 l -6.8477722181181635 27.861879960495344" fill="#ffc612" stroke="none" /><path d="M 105.71112130821622 79.79150937346287 l 7.781392662945775 -27.534032671363306 a49.61246279023615,49.61246279023615 0 0,0 0.81980999576402,0.23932501843378878 l -8.254192876433223 27.396009324010812" fill="#ffc512" stroke="none" /><path d="M 106.74666289553966 80.11325718540242 l 11.781804544747326 -34.728534758739514 a57.67263345901964,57.67263345901964 0 0,0 0.9373670320298083,0.32702895179105046 l -12.377853580840407 34.52058495377625" fill="#b3ff20" stroke="none" /><path d="M 107.4271985657038 80.35727306442388 l 13.213688055798386 -34.946267289857495 a58.36098432228617,58.36098432228617 0 0,0 0.9366016297048065,0.36338688134611086 l -13.81327285050286 34.713637704620844" fill="#a8ff21" stroke="none" /><path d="M 108.09893153111575 80.62456947434976 l 14.349801368935083 -34.32966168592601 a58.20809684461203,58.20809684461203 0 0,0 0.9211188575989941,0.3943750235923326 l -14.938603984324393 34.07756713437089" fill="#abff21" stroke="none" /><path d="M 109.08828744355905 81.06846463323043 l 15.70931599499006 -32.72359871910566 a57.298987894423504,57.298987894423504 0 0,0 0.8854841877600889,0.4345032453182701 l -16.270271449760582 32.44834031365256" fill="#b9ff1f" stroke="none" /><path d="M 109.73455568895987 81.39251694778311 l 17.143172689785644 -32.76896300959967 a57.98233776542965,57.98233776542965 0 0,0 0.8803788385893246,0.4702678861244483 l -17.70469657490328 32.469016396973466" fill="#aeff20" stroke="none" /><path d="M 110.36928655335952 81.73862282372117 l 18.06166092587557 -31.808437436865916 a57.578686247271285,57.578686247271285 0 0,0 0.8576571999285773,0.4968104081403947 l -18.606514858269477 31.49282287133547" fill="#b4ff20" stroke="none" /><line stroke="#e1ed5e" stroke-width="0.3" x1="143.23703022742887" x2="145.7803849466894" y1="26.81831364943548" y2="22.513508569990506" /><path d="M 143.74570117128098 25.957352633546492 a86.0,86.0 0 0,1 28.547481713284135,27.462654790039103" fill="none" id="id110" stroke="none" /><text fill="#e1ed5e" style="font-size:6.75px; font-family:Arial;" text-anchor="middle"><textPath startOffset="19.985693538727396" xlink:href="#id110">February</textPath></text><path d="M 110.99172775467656 82.1063720568725 l 19.114631081175656 -31.11704587945034 a57.519031553879735,57.519031553879735 0 0,0 0.8391776020097242,0.5254929373921882 l -19.647427835557643 30.783408600735207" fill="#b5ff1f" stroke="none" /><path d="M 111.60114157652 82.49532879139004 l 19.782095722023904 -29.848707486867113 a56.80889065290732,56.80889065290732 0 0,0 0.8104608074087198,0.547226754981456 l -20.292961223839164 29.503768819586988" fill="#c0ff1e" stroke="none" /><path d="M 112.19680574252982 82.90503203632743 l 20.983913924150787 -29.410924782951916 a57.129311371303835,57.129311371303835 0 0,0 0.7956064135247888,0.5780418949795751 l -21.487065654029365 29.04536365315567" fill="#bbff1f" stroke="none" /><path d="M 112.77801427241765 83.33499621200491 l 15.941780037924756 -20.791166691124296 a47.199484024608054,47.199484024608054 0 0,0 0.6404912552517069,0.499913584027906 l -16.297303848335893 20.513674717873165" fill="#ff9a0e" stroke="none" /><path d="M 113.34407831869373 83.78471172551755 l 17.32554907131642 -21.053441533801564 a48.26576701726533,48.26576701726533 0 0,0 0.636975883415348,0.5334489839146119 l -17.685382491690888 20.75209139249313" fill="#ffad10" stroke="none" /><path d="M 113.89432698308785 84.25364557470407 l 24.006976854264696 -27.20695768044443 a57.284342131375276,57.284342131375276 0 0,0 0.7337551721967644,0.6587726384155155 l -24.47174301405745 26.789686033259613" fill="#b9ff1f" stroke="none" /><path d="M 114.42810811169701 84.74124197986012 l 24.874773388477394 -26.306854994583798 a57.20504068267513,57.20504068267513 0 0,0 0.709660554650961,0.6826928913109039 l -25.323917186740772 25.87477901651059" fill="#baff1f" stroke="none" /><path d="M 115.19652480421416 85.50635884689758 l 26.049117413947258 -24.844269661448187 a56.997142290136935,56.997142290136935 0 0,0 0.6710264823057684,0.7158042653553475 l -26.472911218223487 24.392195979214783" fill="#bdff1f" stroke="none" /><path d="M 115.9244219780498 86.31012108654704 l 27.191470837568236 -23.375915543942654 a56.85818614804524,56.85818614804524 0 0,0 0.6316386364148935,0.7476609164335712 l -27.589820087470248 22.904395677879975" fill="#c0ff1e" stroke="none" /><path d="M 117.04232023915458 87.72973835380427 l 29.127858469477054 -20.971701012442182 a56.89212145266917,56.89212145266917 0 0,0 0.5653651323693734,0.7996688853682393 l -29.484536221650313 20.467205626742146" fill="#bfff1e" stroke="none" /><path d="M 117.45458315368197 88.32363383020206 l 29.81139677450308 -19.942543554745583 a56.86675927763446,56.86675927763446 0 0,0 0.537264589379696,0.8182908292300548 l -30.150257999240704 19.426434661537854" fill="#c0ff1e" stroke="none" /><path d="M 117.65298651832404 88.62581576622439 l 24.0749841653383 -15.512010108745379 a49.6396110339353,49.6396110339353 0 0,0 0.45661918975433635,0.7222619008557513 l -24.338430951338594 15.09530056017542" fill="#ffc612" stroke="none" /><line stroke="#e1ed5e" stroke-width="0.3" x1="172.23445277983987" x2="176.4835382374775" y1="55.19839476539836" y2="52.563006222186495" /><path d="M 173.08426987136738 54.67131705675599 a86.0,86.0 0 0,1 12.851231095245387,41.99856678651699" fill="none" id="id111" stroke="none" /><text fill="#e1ed5e" style="font-size:6.75px; font-family:Arial;" text-anchor="middle"><textPath startOffset="22.20632615414155" xlink:href="#id111">March</textPath></text><path d="M 118.03404312379186 89.2402003453031 l 31.952665763909238 -19.064182096780264 a58.207739630879146,58.207739630879146 0 0,0 0.5059647495508147,0.8648577678656366 l -32.27609018793038 18.51134491656073" fill="#abff21" stroke="none" /><path d="M 118.73160827565052 90.50648371742162 l 32.16453934627777 -16.30156757027938 a57.05965469339155,57.05965469339155 0 0,0 0.4364791519442583,0.8799153360007499 l -32.44037851117544 15.74549264577968" fill="#bcff1f" stroke="none" /><path d="M 119.04729006885535 91.15688171328212 l 33.48128360732642 -15.544413418413841 a57.91375272871601,57.91375272871601 0 0,0 0.41200859398227685,0.9078063230312496 l -33.74389451827204 14.96578508654053" fill="#afff20" stroke="none" /><path d="M 119.34039704204932 91.81776055985345 l 33.26418891019803 -14.072904390419263 a57.11859495931733,57.11859495931733 0 0,0 0.3752917799960549,0.9087988131374142 l -33.50150237708028 13.498231006828545" fill="#bcff1f" stroke="none" /><path d="M 119.61058180528143 92.48833698450437 l 34.50279302498572 -13.215995163758306 a57.94733081960707,57.94733081960707 0 0,0 0.3487750821036518,0.9345438199765693 l -34.725172695591 12.620128206752403" fill="#afff20" stroke="none" /><path d="M 119.85752413597 93.16781622104841 l 33.91716690172686 -11.669547318551068 a56.86854534629887,56.86854534629887 0 0,0 0.3105095861271162,0.9283841401139677 l -34.113013781625746 11.083990075514787" fill="#c0ff1e" stroke="none" /><path d="M 120.08093135843002 93.85539295169968 l 60.24279407529006 -18.433821144900946 a84.0,84.0 0 0,0 0.41117641155319085,1.3862824530138804 l -60.551176383954946 17.394109305140535" fill="#4dd2ff" stroke="none" /><path d="M 120.28053869075195 94.5502522615342 l 36.91756042283027 -9.920416537837733 a59.22722762452867,59.22722762452867 0 0,0 0.25609759625998774,0.9868485071740215 l -37.08285435096056 9.283471605114862" fill="#9bff22" stroke="none" /><path d="M 120.45610955862082 95.25157060432595 l 35.19636234833153 -8.170050180689433 a57.1321690811669,57.1321690811669 0 0,0 0.21412487568745123,0.9598798320380125 l -35.33178161102102 7.562992179101456" fill="#bbff1f" stroke="none" /><path d="M 120.6074358757038 95.95851677861258 l 36.11959515893281 -7.083692443766884 a57.807660250049615,57.807660250049615 0 0,0 0.18309688923794537,0.9781109036875533 l -36.236177772080616 6.460903462616768" fill="#b1ff20" stroke="none" /><path d="M 120.73433829027371 96.67025291283417 l 35.36576367273466 -5.679421591665794 a56.81889263742806,56.81889263742806 0 0,0 0.14676619366122032,0.9670058410245608 l -35.45828575983518 5.069816638249152" fill="#c0ff1e" stroke="none" /><path d="M 120.83666639777658 97.38593545837742 l 35.64344149280193 -4.471648908180185 a56.92284183369716,56.92284183369716 0 0,0 0.11360077177537094,0.97326203774919 l -35.715132617580885 3.857443132106143" fill="#bfff1e" stroke="none" /><path d="M 120.91429891909075 98.10471618934814 l 36.884064581977576 -3.3424869149904572 a58.035205397896405,58.035205397896405 0 0,0 0.08159616171497791,0.9956798484214595 l -36.93613522751205 2.7070931493612287" fill="#adff20" stroke="none" /><path d="M 120.96714384426684 98.82574320788733 l 35.85058824735961 -2.0077983469459357 a56.9067672157174,56.9067672157174 0 0,0 0.046355688293203856,0.9784953142659978 l -35.87983754388631 1.3903919260569382" fill="#bfff1e" stroke="none" /><line stroke="#e1ed5e" stroke-width="0.3" x1="184.98032266829074" x2="189.97916517819016" y1="98.17113171792111" y2="98.06355123074" /><path d="M 185.9800911702706 98.14961562048488 a86.0,86.0 0 0,1 -9.607161424134198,41.387399972396054" fill="none" id="id112" stroke="none" /><text fill="#e1ed5e" style="font-size:6.75px; font-family:Arial;" text-anchor="middle"><textPath startOffset="21.466115282336823" xlink:href="#id112">April</textPath></text><path d="M 120.99513854157772 99.54816195383933 l 35.79738678627137 -0.7703984077616418 a56.805675729311375,56.805675729311375 0 0,0 0.01262436591914546,0.977771052977183 l -35.805344159308234 0.15409109672399615" fill="#c1ff1e" stroke="none" /><path d="M 120.9764740272857 100.99374915477107 l 39.96561550830704 1.8933495009515937 a61.01043857908316,61.01043857908316 0 0,0 -0.05872588560169202,1.0485901372367408 l -39.92710327181782 -2.5810113545237576" fill="#80ff25" stroke="none" /><path d="M 120.92983693683757 101.71520430193887 l 36.06307089020433 2.955375835878398 a57.18396507243501,57.18396507243501 0 0,0 -0.0888404736650388,0.9803472239364329 l -36.00685582026221 -3.575704448363402" fill="#bbff1f" stroke="none" /><path d="M 120.8583938346157 102.4346265915055 l 35.565297075747054 4.151240919217316 a56.80674737051002,56.80674737051002 0 0,0 -0.12172466172707284,0.9702653199277693 l -35.488570904773134 -4.76282399343248" fill="#c0ff1e" stroke="none" /><path d="M 120.32669344350535 105.2749913415812 l 37.12224843140943 9.633615009738746 a59.35189521730502,59.35189521730502 0 0,0 -0.26513883157603124,0.9866802263607618 l -36.95092152349162 -10.271186169275056" fill="#99ff23" stroke="none" /><path d="M 120.13307415673323 105.97154293290107 l 24.081606473277017 7.1426919619381035 a46.11855526890256,46.11855526890256 0 0,0 -0.23229087800695825,0.7591400295869917 l -23.955088822763926 -7.556158964077152" fill="#ff860c" stroke="none" /><path d="M 119.79798401119884 107.00284435728193 l 33.81479728797338 11.96080177894726 a56.8678309188331,56.8678309188331 0 0,0 -0.33437130703489204,0.9200462301979236 l -33.60390171993326 -12.541095806151315" fill="#c0ff1e" stroke="none" /><path d="M 119.54520255179757 107.68017299344265 l 35.740907176424045 14.044180372654523 a59.40119071244295,59.40119071244295 0 0,0 -0.38214026548805247,0.948440799846272 l -35.4938642966786 -14.657320540343608" fill="#98ff23" stroke="none" /><path d="M 119.26925614724726 108.34839909993367 l 33.28408501791803 14.420319252717908 a57.27362571938877,57.27362571938877 0 0,0 -0.39971240280669945,0.9012459473365336 l -33.03093153038006 -14.991113536547129" fill="#b9ff1f" stroke="none" /><path d="M 118.97047184881838 109.00673069616215 l 32.67666868415323 15.51410830638961 a57.17253423298273,57.17253423298273 0 0,0 -0.4297380161790518,0.8853875975247306 l -32.40477741135946 -16.07428485987962" fill="#bbff1f" stroke="none" /><line stroke="#e1ed5e" stroke-width="0.3" x1="174.80103733775053" x2="179.2010983576182" y1="140.37084112569926" y2="142.7455964860345" /><path d="M 175.68104954172406 140.8457921977663 a86.0,86.0 0 0,1 -30.038265399797805,32.042727171017184" fill="none" id="id113" stroke="none" /><text fill="#e1ed5e" style="font-size:6.75px; font-family:Arial;" text-anchor="middle"><textPath startOffset="22.206326154141568" xlink:href="#id113">May</textPath></text><path d="M 117.94076556474637 110.91462005526583 l 31.235028996411227 19.002448512060425 a57.56118277435999,57.56118277435999 0 0,0 -0.5222590810024251,0.8420479294874958 l -30.90330527574084 -19.537292772913197" fill="#b5ff20" stroke="none" /><path d="M 117.35343817320211 111.8261652097733 l 30.1088769370331 20.51884758421811 a57.43580075411788,57.43580075411788 0 0,0 -0.5637982792319121,0.8121934712962227 l -29.75121775063905 -21.03408231770135" fill="#b7ff1f" stroke="none" /><path d="M 116.93607887273984 112.41649034213515 l 30.315259486492444 22.22528186493149 a58.58960111133161,58.58960111133161 0 0,0 -0.6033019585311512,0.8082215636494997 l -29.9281962612662 -22.743816308090306" fill="#a5ff21" stroke="none" /><path d="M 116.498646956653 112.99209946851258 l 28.550568744267114 22.482560538611196 a57.340067473705105,57.340067473705105 0 0,0 -0.6173124846367051,0.7701922407179669 l -28.159338347575556 -22.970680612907415" fill="#b8ff1f" stroke="none" /><line stroke="#e1ed5e" stroke-width="0.3" x1="143.8653032363475" x2="146.44561519142675" y1="172.8068346515853" y2="177.08958963109032" /><path d="M 144.38136562736335 173.6633856474863 a86.0,86.0 0 0,1 -40.68145358897372,12.25698825130547" fill="none" id="id114" stroke="none" /><text fill="#e1ed5e" style="font-size:6.75px; font-family:Arial;" text-anchor="middle"><textPath startOffset="21.466115282336833" xlink:href="#id114">June</textPath></text><line stroke="#e1ed5e" stroke-width="0.3" x1="102.19456741930631" x2="102.32365962044197" y1="184.97166512339345" y2="189.96999836594603" /><path d="M 102.22038585953345 185.97133177190398 a86.0,86.0 0 0,1 -42.740103519485714,-10.115201625700543" fill="none" id="id115" stroke="none" /><text fill="#e1ed5e" style="font-size:6.75px; font-family:Arial;" text-anchor="middle"><textPath startOffset="22.20632615414155" xlink:href="#id115">July</textPath></text><line stroke="#e1ed5e" stroke-width="0.3" x1="58.666819895761336" x2="56.23545636021788" y1="174.27360380694188" y2="178.64263932499728" /><path d="M 58.180547188652646 175.14741091055294 a86.0,86.0 0 0,1 -31.652253787137756,-30.449443065178592" fill="none" id="id116" stroke="none" /><text fill="#e1ed5e" style="font-size:6.75px; font-family:Arial;" text-anchor="middle"><textPath startOffset="22.20632615414155" xlink:href="#id116">August</textPath></text><line stroke="#e1ed5e" stroke-width="0.3" x1="26.63291911575756" x2="22.317208475507996" y1="142.92168965132927" y2="145.44649492493687" /><path d="M 25.769776987707644 143.4266507060508 a86.0,86.0 0 0,1 -11.730757126820373,-40.83630448921669" fill="none" id="id117" stroke="none" /><text fill="#e1ed5e" style="font-size:6.75px; font-family:Arial;" text-anchor="middle"><textPath startOffset="21.46611528233685" xlink:href="#id117">September</textPath></text><line stroke="#e1ed5e" stroke-width="0.3" x1="15.007084014347285" x2="10.007500721073583" y1="101.09737516637583" y2="101.16192664675087" /><path d="M 14.007167355692545 101.11028546245083 a86.0,86.0 0 0,1 10.666146001902534,-42.60595125391555" fill="none" id="id118" stroke="none" /><text fill="#e1ed5e" style="font-size:6.75px; font-family:Arial;" text-anchor="middle"><textPath startOffset="22.20632615414155" xlink:href="#id118">October</textPath></text><line stroke="#e1ed5e" stroke-width="0.3" x1="26.266209847984243" x2="21.928928074336255" y1="57.711370442889674" y2="55.22380399835377" /><path d="M 25.398753493254645 57.213857153982495 a86.0,86.0 0 0,1 29.58750427330803,-30.492523968695096" fill="none" id="id119" stroke="none" /><text fill="#e1ed5e" style="font-size:6.75px; font-family:Arial;" text-anchor="middle"><textPath startOffset="21.46611528233685" xlink:href="#id119">November</textPath></text><line stroke="#e1ed5e" stroke-width="0.3" x1="56.762969772571076" x2="54.21961505331055" y1="26.818313649435495" y2="22.513508569990535" /><path d="M 56.25429882871897 25.957352633546506 a86.0,86.0 0 0,1 42.265352541879196,-11.944610805530505" fill="none" id="id120" stroke="none" /><text fill="#e1ed5e" style="font-size:6.75px; font-family:Arial;" text-anchor="middle"><textPath startOffset="22.20632615414155" xlink:href="#id120">December</textPath></text></svg>