<?xml version="1.0" encoding="utf-8" ?>
<svg baseProfile="full" height="200mm" version="1.1" viewBox="0,0,200,200" width="200mm" xmlns="http://www.w3.org/2000/svg" xmlns:ev="http://www.w3.org/2001/xml-events" xmlns:xlink="http://www.w3.org/1999/xlink"><defs /><rect fill="#1a1a1a" height="200" width="200" x="0" y="0" /><text alignment-baseline="middle" fill="#e1ed5e" style="dominant-baseline: central; font-size:9.0px; font-family:Arial;" text-anchor="middle" x="100.0" y="100.0">2025</text><line stroke="#e1ed5e" stroke-width="0.3" x1="100.0" x2="100.0" y1="15.0" y2="10.0" /><path d="M 100.0 14.0 a86.0,86.0 0 0,1 42.46469731375804,11.215312516191453" fill="none" id="id133" stroke="none" /><text fill="#e1ed5e" style="font-size:6.75px; font-family:Arial;" text-anchor="middle"><textPath startOffset="22.20632615414155" xlink:href="#id133">January</textPath></text><path d="M 100.0 79.0 l 0.0 -16.007445838302544 a37.007445838302544,37.007445838302544 0 0,0 0.6370223456324637,0.005483052443990657 l -0.2755418663599354 16.005074162467114" fill="#ff940d" stroke="none" /><path d="M 100.72285384407766 79.0124445844662 l 1.7465744693595404 -50.710567237575184 a71.74063610099554,71.74063610099554 0 0,0 1.2337994484807344,0.05312999961766231 l -2.6192147502296064 50.67298951143333" fill="#3cffa7" stroke="none" /><path d="M 101.44485096284872 79.0497635885617 l 0.9901392743927053 -14.356949202482632 a35.3910516010944,35.3910516010944 0 0,0 0.6073943907532402,0.047145494734054216 l -1.2371238545082865 14.337778445560113" fill="#ff7c0b" stroke="none" /><path d="M 102.16513564639614 79.11191278185805 l 1.7084934750409568 -16.482644298837904 a37.570953896389646,37.570953896389646 0 0,0 0.6427017914516279,0.07221503482037062 l -1.99196197000231 16.45079331054693" fill="#ff9c0e" stroke="none" /><path d="M 102.88285421437855 79.19881850522331 l 1.9379136613451013 -13.982980335873911 a35.116630208100815,35.116630208100815 0 0,0 0.5980379173920457,0.08813524331649779 l -2.178320559165803 13.947550608396446" fill="#ff780b" stroke="none" /><path d="M 103.59715602781102 79.31037775812273 l 2.5640911926503556 -14.747783459908156 a35.96902403714309,35.96902403714309 0 0,0 0.6090838303226246,0.11130617682559331 l -2.817570144075881 14.701461801731824" fill="#ff850c" stroke="none" /><path d="M 103.95276090670814 79.375362276772 l 11.858282720124386 -61.87391316968404 a84.0,84.0 0 0,0 1.4177343621314986,0.2843841756911667 l -12.921583491723009 61.66062503791566" fill="#4dd2ff" stroke="none" /><path d="M 105.36241919743992 79.69619591428918 l 4.122386048759296 -15.608648935845148 a37.14385295824591,37.14385295824591 0 0,0 0.6167685680430696,0.1685861482138059 l -4.390452506026076 15.535376246805049" fill="#ff960d" stroke="none" /><path d="M 106.0581310904928 79.89281104454417 l 5.232241829780835 -17.36602816290088 a39.13712459900893,39.13712459900893 0 0,0 0.6433670419819547,0.19989727169408017 l -5.530394244473508 17.27339075632428" fill="#ffb210" stroke="none" /><path d="M 107.08798089147638 80.2323363322302 l 4.889585297724348 -13.636560131887459 a35.486677210951605,35.486677210951605 0 0,0 0.5732241956932532,0.2111233089118124 l -5.123591819190177 13.55037355516932" fill="#ff7e0b" stroke="none" /><path d="M 108.43124777332544 80.76684994638697 l 5.89446378984301 -13.446302327196863 a35.68154452515641,35.68154452515641 0 0,0 0.5604005440533497,0.2514353888329676 l -6.125046452363139 13.342846607847365" fill="#ff810b" stroke="none" /><path d="M 109.08828744355905 81.06846463323043 l 8.10726199616488 -16.88799107216144 a39.73317750750961,39.73317750750961 0 0,0 0.6140265597219858,0.30130016616750777 l -8.396759822897298 16.745935745859104" fill="#ffbb11" stroke="none" /><path d="M 110.05341064243156 81.56283822128135 l 5.946681613175097 -10.905744811207965 a33.42168636279568,33.42168636279568 0 0,0 0.5027193154569919,0.2797627547691617 l -6.133525017704124 10.801766658878623" fill="#ff5f08" stroke="none" /><line stroke="#e1ed5e" stroke-width="0.3" x1="143.23703022742887" x2="145.7803849466894" y1="26.81831364943548" y2="22.513508569990506" /><path d="M 143.74570117128098 25.957352633546492 a86.0,86.0 0 0,1 28.547481713284135,27.462654790039103" fill="none" id="id134" stroke="none" /><text fill="#e1ed5e" style="font-size:6.75px; font-family:Arial;" text-anchor="middle"><textPath startOffset="19.985693538727396" xlink:href="#id134">February</textPath></text><path d="M 110.68208982089419 81.91981866633111 l 31.96032850445544 -54.09508294097168 a83.83104802964306,83.83104802964306 0 0,0 1.236060595176603,0.7447126782175066 l -32.88675116584968 53.53692365329556" fill="#4dd4ff" stroke="none" /><path d="M 111.2981086023043 82.29822771554956 l 7.588010885273905 -11.888825423014126 a35.103973877384426,35.103973877384426 0 0,0 0.5065553148026065,0.32947766750039503 l -7.791533225860792 11.756448831354202" fill="#ff780b" stroke="none" /><path d="M 111.90073688211348 82.69761687909136 l 5.697590016539495 -8.283679095552209 a31.053948048138064,31.053948048138064 0 0,0 0.4378146195257497,0.306717119866911 l -5.8393357756488955 8.184377132921362" fill="#ff3b05" stroke="none" /><path d="M 112.48926042617603 83.11751280151076 l 6.0014544780315715 -8.112528279523277 a31.091113463733826,31.091113463733826 0 0,0 0.4275085045994127,0.3219905424835 l -6.140209136389368 8.00802114753393" fill="#ff3c05" stroke="none" /><path d="M 113.34407831869373 83.78471172551755 l 6.452430653543963 -7.840783051441559 a31.1543951173158,31.1543951173158 0 0,0 0.41115265701722614,0.34432852613450676 l -6.586440847520306 7.728553367913233" fill="#ff3d05" stroke="none" /><path d="M 114.16331599549186 84.49514656593476 l 8.163379122906242 -8.93660756193372 a33.10387183591732,33.10387183591732 0 0,0 0.4174116322865103,0.3879386210472439 l -8.3159986389876 8.794764354811836" fill="#ff5a08" stroke="none" /><path d="M 114.68862486808459 84.99185889309783 l 7.062809887925329 -7.216444586281395 a31.0975420761612,31.0975420761612 0 0,0 0.37933699917632635,0.37770800554896183 l -7.185982687268978 7.0938007300823145" fill="#ff3c05" stroke="none" /><path d="M 115.68641384162765 86.03803664274999 l 9.957234778736105 -8.862608657647378 a34.330129656439134,34.330129656439134 0 0,0 0.38908810393618687,0.4447949634787109 l -10.108314746250139 8.689898137965718" fill="#ff6d0a" stroke="none" /><path d="M 116.15771136456269 86.58626213691792 l 9.205162515964409 -7.6419013924845824 a32.96384862148356,32.96384862148356 0 0,0 0.35868043414161827,0.43969980140570125 l -9.335341442182436 7.48231742147078" fill="#ff5808" stroke="none" /><path d="M 117.2510076193507 88.02491185347247 l 12.149330639184361 -8.43366999399751 a35.78962557159166,35.78962557159166 0 0,0 0.3469472452025112,0.5091022712932318 l -12.292702350055606 8.223289699433872" fill="#ff820c" stroke="none" /><path d="M 117.65298651832404 88.62581576622439 l 13.747801259737532 -8.85799262211371 a37.354390015242444,37.354390015242444 0 0,0 0.34361130047668836,0.5435105589218238 l -13.898240156460176 8.62003441547768" fill="#ff990e" stroke="none" /><line stroke="#e1ed5e" stroke-width="0.3" x1="172.23445277983987" x2="176.4835382374775" y1="55.19839476539836" y2="52.563006222186495" /><path d="M 173.08426987136738 54.67131705675599 a86.0,86.0 0 0,1 12.851231095245387,41.99856678651699" fill="none" id="id135" stroke="none" /><text fill="#e1ed5e" style="font-size:6.75px; font-family:Arial;" text-anchor="middle"><textPath startOffset="22.20632615414155" xlink:href="#id135">March</textPath></text><path d="M 118.03404312379186 89.2402003453031 l 10.375909179212375 -6.190664136561161 a33.08237616311329,33.08237616311329 0 0,0 0.28756512924332306,0.4915420214830521 l -10.480933982926025 6.011142702724214" fill="#ff5a08" stroke="none" /><path d="M 119.196687751892 91.48605970444005 l 9.194635447564039 -4.0779210586620005 a31.058367719181884,31.058367719181884 0 0,0 0.2125417132556489,0.490575578104594 l -9.26346787066237 3.919046335970804" fill="#ff3b05" stroke="none" /><path d="M 119.34039704204932 91.81776055985345 l 11.138992633083564 -4.71251467318691 a33.094831599691325,33.094831599691325 0 0,0 0.21744614461479897,0.5265630868582124 l -11.21846046458456 4.520077015875395" fill="#ff5a08" stroke="none" /><path d="M 119.61058180528143 92.48833698450437 l 15.02170141052393 -5.7539322410547875 a37.08599544639953,37.08599544639953 0 0,0 0.22321426929878668,0.598103266568144 l -15.118520268324342 5.49450583745731" fill="#ff950d" stroke="none" /><path d="M 120.08093135843002 93.85539295169968 l 20.263300163424976 -6.200410468199548 a42.19071550201213,42.19071550201213 0 0,0 0.20652175001165393,0.6962886735778587 l -20.367027810548333 5.85069240787516" fill="#ffdd14" stroke="none" /><path d="M 120.18372546131832 94.20196356495316 l 15.460922412108577 -4.441350118274091 a37.08619634053789,37.08619634053789 0 0,0 0.1709730683398762,0.6150810945045132 l -15.535082251014815 4.174557720350626" fill="#ff950d" stroke="none" /><path d="M 120.37134235888165 94.90015583598534 l 11.069582605780605 -2.771204040246048 a32.411188846867645,32.411188846867645 0 0,0 0.13082884375079673,0.5423700200126301 l -11.115644249792222 2.5802487885740115" fill="#ff5007" stroke="none" /><path d="M 120.6074358757038 95.95851677861258 l 8.011717491711705 -1.5712397220376264 a29.164337782766474,29.164337782766474 0 0,0 0.09237356263185958,0.49346326526208584 l -8.037576778253424 1.4330983793129777" fill="#ff1e03" stroke="none" /><path d="M 120.78858239683441 97.02765380044208 l 15.939760467432906 -2.279062878979772 a37.10186608332961,37.10186608332961 0 0,0 0.08495267446223126,0.6329960996585776 l -15.976629140952975 2.0043484372565303" fill="#ff950d" stroke="none" /><path d="M 120.94382443527127 98.46500227214037 l 12.507870635448386 -0.9167166705924894 a33.54141926925554,33.54141926925554 0 0,0 0.03724600353486422,0.5761791892129771 l -12.521797229987666 0.7012784171264771" fill="#ff6108" stroke="none" /><path d="M 120.96714384426684 98.82574320788733 l 49.84950182894127 -2.791802094784264 a70.92761752307095,70.92761752307095 0 0,0 0.05777693392449391,1.2195797581558485 l -49.89017237109927 1.9333112300054158" fill="#3bff9e" stroke="none" /><line stroke="#e1ed5e" stroke-width="0.3" x1="184.98032266829074" x2="189.97916517819016" y1="98.17113171792111" y2="98.06355123074" /><path d="M 185.9800911702706 98.14961562048488 a86.0,86.0 0 0,1 -9.607161424134198,41.387399972396054" fill="none" id="id136" stroke="none" /><text fill="#e1ed5e" style="font-size:6.75px; font-family:Arial;" text-anchor="middle"><textPath startOffset="21.466115282336823" xlink:href="#id136">April</textPath></text><path d="M 120.99980553446 99.90962569577887 l 13.210877095054409 -0.05685404198897063 a34.210999432394345,34.210999432394345 0 0,0 -0.002534387835513655,0.5889024779042704 l -13.209898409929393 -0.17055791411898447" fill="#ff6b09" stroke="none" /><path d="M 120.9904718944345 100.63252640178507 l 12.108621027936675 0.36488091015288554 a33.11411743697345,33.11411743697345 0 0,0 -0.022072715077733816,0.5695986982516691 l -12.100546180007738 -0.5732568554185609" fill="#ff5a08" stroke="none" /><path d="M 120.95626037817324 101.35467743843564 l 10.031002534604267 0.6484350057356782 a31.05193910675451,31.05193910675451 0 0,0 -0.039071385302185076,0.5330980100881659 l -10.018354590637744 -0.8210061523206145" fill="#ff3b05" stroke="none" /><path d="M 120.89721153311464 102.0752229133903 l 6.264005760673994 0.622054682442219 a27.29481693123043,27.29481693123043 0 0,0 -0.050453427343832714,0.467136076122166 l -6.252370031829109 -0.7297870804491764" fill="#ff0000" stroke="none" /><path d="M 120.8583938346157 102.4346265915055 l 10.013290130122178 1.168767960397669 a31.081269650954404,31.081269650954404 0 0,0 -0.06660048690403295,0.5308714094287316 l -9.991688133971296 -1.3409571241137954" fill="#ff3b05" stroke="none" /><path d="M 120.70491114924044 103.5080841355445 l 17.843640559266554 3.023292006187515 a39.09795024202961,39.09795024202961 0 0,0 -0.11813828762391222,0.662582255995427 l -17.78895582930345 -3.32999301291616" fill="#ffb210" stroke="none" /><path d="M 120.5718875245553 104.21870165774334 l 10.677310674603287 2.189608911162042 a31.899511476476253,31.899511476476253 0 0,0 -0.11493843809943978,0.5369541178242702 l -10.638038197779405 -2.3730768484024813" fill="#ff4806" stroke="none" /><line stroke="#e1ed5e" stroke-width="0.3" x1="174.80103733775053" x2="179.2010983576182" y1="140.37084112569926" y2="142.7455964860345" /><path d="M 175.68104954172406 140.8457921977663 a86.0,86.0 0 0,1 -30.038265399797805,32.042727171017184" fill="none" id="id137" stroke="none" /><text fill="#e1ed5e" style="font-size:6.75px; font-family:Arial;" text-anchor="middle"><textPath startOffset="22.206326154141568" xlink:href="#id137">May</textPath></text><line stroke="#e1ed5e" stroke-width="0.3" x1="143.8653032363475" x2="146.44561519142675" y1="172.8068346515853" y2="177.08958963109032" /><path d="M 144.38136562736335 173.6633856474863 a86.0,86.0 0 0,1 -40.68145358897372,12.25698825130547" fill="none" id="id138" stroke="none" /><text fill="#e1ed5e" style="font-size:6.75px; font-family:Arial;" text-anchor="middle"><textPath startOffset="21.466115282336833" xlink:href="#id138">June</textPath></text><line stroke="#e1ed5e" stroke-width="0.3" x1="102.19456741930631" x2="102.32365962044197" y1="184.97166512339345" y2="189.96999836594603" /><path d="M 102.22038585953345 185.97133177190398 a86.0,86.0 0 0,1 -42.740103519485714,-10.115201625700543" fill="none" id="id139" stroke="none" /><text fill="#e1ed5e" style="font-size:6.75px; font-family:Arial;" text-anchor="middle"><textPath startOffset="22.20632615414155" xlink:href="#id139">July</textPath></text><line stroke="#e1ed5e" stroke-width="0.3" x1="58.666819895761336" x2="56.23545636021788" y1="174.27360380694188" y2="178.64263932499728" /><path d="M 58.180547188652646 175.14741091055294 a86.0,86.0 0 0,1 -31.652253787137756,-30.449443065178592" fill="none" id="id140" stroke="none" /><text fill="#e1ed5e" style="font-size:6.75px; font-family:Arial;" text-anchor="middle"><textPath startOffset="22.20632615414155" xlink:href="#id140">August</textPath></text><line stroke="#e1ed5e" stroke-width="0.3" x1="26.63291911575756" x2="22.317208475507996" y1="142.92168965132927" y2="145.44649492493687" /><path d="M 25.769776987707644 143.4266507060508 a86.0,86.0 0 0,1 -11.730757126820373,-40.83630448921669" fill="none" id="id141" stroke="none" /><text fill="#e1ed5e" style="font-size:6.75px; font-family:Arial;" text-anchor="middle"><textPath startOffset="21.46611528233685" xlink:href="#id141">September</textPath></text><line stroke="#e1ed5e" stroke-width="0.3" x1="15.007084014347285" x2="10.007500721073583" y1="101.09737516637583" y2="101.16192664675087" /><path d="M 14.007167355692545 101.11028546245083 a86.0,86.0 0 0,1 10.666146001902534,-42.60595125391555" fill="none" id="id142" stroke="none" /><text fill="#e1ed5e" style="font-size:6.75px; font-family:Arial;" text-anchor="middle"><textPath startOffset="22.20632615414155" xlink:href="#id142">October</textPath></text><line stroke="#e1ed5e" stroke-width="0.3" x1="26.266209847984243" x2="21.928928074336255" y1="57.711370442889674" y2="55.22380399835377" /><path d="M 25.398753493254645 57.213857153982495 a86.0,86.0 0 0,1 29.58750427330803,-30.492523968695096" fill="none" id="id143" stroke="none" /><text fill="#e1ed5e" style="font-size:6.75px; font-family:Arial;" text-anchor="middle"><textPath startOffset="21.46611528233685" xlink:href="#id143">November</textPath></text><line stroke="#e1ed5e" stroke-width="0.3" x1="56.762969772571076" x2="54.21961505331055" y1="26.818313649435495" y2="22.513508569990535" /><path d="M 56.25429882871897 25.957352633546506 a86.0,86.0 0 0,1 42.265352541879196,-11.944610805530505" fill="none" id="id144" stroke="none" /><text fill="#e1ed5e" style="font-size:6.75px; font-family:Arial;" text-anchor="middle"><textPath startOffset="22.20632615414155" xlink:href="#id144">December</textPath></text></svg>