<?xml version="1.0" encoding="utf-8" ?>
<svg baseProfile="full" height="200mm" version="1.1" viewBox="0,0,200,200" width="200mm" xmlns="http://www.w3.org/2000/svg" xmlns:ev="http://www.w3.org/2001/xml-events" xmlns:xlink="http://www.w3.org/1999/xlink"><defs /><rect fill="#1a1a1a" height="200" width="200" x="0" y="0" /><text alignment-baseline="middle" fill="#e1ed5e" style="dominant-baseline: central; font-size:9.0px; font-family:Arial;" text-anchor="middle" x="100.0" y="100.0">2025</text><line stroke="#e1ed5e" stroke-width="0.3" x1="100.0" x2="100.0" y1="15.0" y2="10.0" /><path d="M 100.0 14.0 a86.0,86.0 0 0,1 42.46469731375804,11.215312516191453" fill="none" id="id133" stroke="none" /><text fill="#e1ed5e" style="font-size:6.75px; font-family:Arial;" text-anchor="middle"><textPath startOffset="22.20632615414155" xlink:href="#id133">January</textPath></text><path d="M 100.0 79.0 l 0.0 -12.786825239948648 a33.78682523994865,33.78682523994865 0 0,0 0.5815846562301807,0.005005882749002029 l -0.2201041769576524 12.784930733808205" fill="#ff9d0e" stroke="none" /><path d="M 100.72285384407766 79.0124445844662 l 1.395172142629891 -40.507846638093 a61.531865791779595,61.531865791779595 0 0,0 1.0582284490900231,0.04556954306049053 l -2.0922414241092455 40.47782936850832" fill="#31ff3e" stroke="none" /><path d="M 101.44485096284872 79.0497635885617 l 0.7909280464079118 -11.468400535936638 a32.49564169706356,32.49564169706356 0 0,0 0.5577022890756137,0.043288431261569185 l -0.9882205248458666 11.453086842486604" fill="#ff8b0c" stroke="none" /><path d="M 102.16513564639614 79.11191278185805 l 1.3647528599889298 -13.166416071024212 a34.23695820512298,34.23695820512298 0 0,0 0.5856693027536233,0.06580677019127043 l -1.5911888662522784 13.14097334736234" fill="#ffa30f" stroke="none" /><path d="M 102.88285421437855 79.19881850522331 l 1.548014815607618 -11.169672394619719 a32.27643255965602,32.27643255965602 0 0,0 0.5496692135445483,0.08100695369049371 l -1.7400530095808222 11.141370956768256" fill="#ff880c" stroke="none" /><path d="M 103.59715602781102 79.31037775812273 l 2.048208459419554 -11.780600833096301 a32.95732887738675,32.95732887738675 0 0,0 0.5580850925816658,0.10198648347916109 l -2.250688673104121 11.743598868266401" fill="#ff920d" stroke="none" /><path d="M 103.95276090670814 79.375362276772 l 9.47245365186958 -49.42518141897422 a71.32470503127993,71.32470503127993 0 0,0 1.2038033951397493,0.2414716362706685 l -10.321823456476455 49.254805826626345" fill="#3dffae" stroke="none" /><path d="M 105.36241919743992 79.69619591428918 l 3.29298193537897 -12.468264343384261 a33.89578790781081,33.89578790781081 0 0,0 0.5628348947561451,0.15384403794817791 l -3.5071147193588263 12.40973376460979" fill="#ff9e0e" stroke="none" /><path d="M 106.0581310904928 79.89281104454417 l 4.179540106921347 -13.872067378775979 a35.48802294540786,35.48802294540786 0 0,0 0.5833802197301169,0.18125907401954583 l -4.417705699362182 13.798068169873913" fill="#ffb310" stroke="none" /><path d="M 107.08798089147638 80.2323363322302 l 3.9058244100517587 -10.892950258389648 a32.572027897214355,32.572027897214355 0 0,0 0.5261432165792291,0.19378298697139001 l -4.092749952403564 10.824104003611934" fill="#ff8c0c" stroke="none" /><path d="M 108.43124777332544 80.76684994638697 l 4.7085262149430145 -10.740971402818971 a32.727688851303164,32.727688851303164 0 0,0 0.5140084287816754,0.2306205990082689 l -4.89271676219147 10.65833047329417" fill="#ff8e0d" stroke="none" /><path d="M 109.08828744355905 81.06846463323043 l 6.476120136004814 -13.49020903614942 a35.96415289466712,35.96415289466712 0 0,0 0.5557809986642587,0.27271932231417545 l -6.707372401679505 13.37673455370041" fill="#ffb911" stroke="none" /><path d="M 110.05341064243156 81.56283822128135 l 4.750238065047184 -8.711561758261148 a30.922503209504207,30.922503209504207 0 0,0 0.46512732711786,0.258842853958417 l -4.8994894812370795 8.62850350674255" fill="#ff760a" stroke="none" /><line stroke="#e1ed5e" stroke-width="0.3" x1="143.23703022742887" x2="145.7803849466894" y1="26.81831364943548" y2="22.513508569990506" /><path d="M 143.74570117128098 25.957352633546492 a86.0,86.0 0 0,1 28.547481713284135,27.462654790039103" fill="none" id="id134" stroke="none" /><text fill="#e1ed5e" style="font-size:6.75px; font-family:Arial;" text-anchor="middle"><textPath startOffset="19.985693538727396" xlink:href="#id134">February</textPath></text><path d="M 110.68208982089419 81.91981866633111 l 25.53006515380203 -43.211414169000356 a71.18974537933283,71.18974537933283 0 0,0 1.049668841226148,0.6324137320139269 l -26.270096061245816 42.76555382752781" fill="#3dffac" stroke="none" /><path d="M 111.2981086023043 82.29822771554956 l 6.061339834532549 -9.496851310818537 a32.266322621400775,32.266322621400775 0 0,0 0.4656076052841447,0.30284413819494527 l -6.223914465600974 9.391108248464063" fill="#ff880c" stroke="none" /><path d="M 111.90073688211348 82.69761687909136 l 4.5512624916113555 -6.617042969165786 a29.03114237972001,29.03114237972001 0 0,0 0.4092960590927847,0.28673804578248563 l -4.664489690287791 6.537720080619366" fill="#ff5c08" stroke="none" /><path d="M 112.48926042617603 83.11751280151076 l 4.7939908946919525 -6.480326868649617 a29.060830293644166,29.060830293644166 0 0,0 0.3995917391554597,0.30096421352635816 l -4.904828787605795 6.396846065617412" fill="#ff5c08" stroke="none" /><path d="M 113.34407831869373 83.78471172551755 l 5.154232847212519 -6.263255464731039 a29.111379984920426,29.111379984920426 0 0,0 0.3841904548352333,0.3217484571985125 l -5.2612808390068695 6.173605850138706" fill="#ff5d08" stroke="none" /><path d="M 114.16331599549186 84.49514656593476 l 6.520946768551834 -7.1386053894384185 a30.668631426650094,30.668631426650094 0 0,0 0.38670532459897833,0.3594004545459878 l -6.642859976945659 7.02530034881779" fill="#ff730a" stroke="none" /><path d="M 114.68862486808459 84.99185889309783 l 5.641806734949991 -5.764530875860129 a29.06596550037699,29.06596550037699 0 0,0 0.3545552283222991,0.35303265549460255 l -5.740197763439613 5.6665623697154075" fill="#ff5c08" stroke="none" /><path d="M 115.68641384162765 86.03803664274999 l 7.953887351858672 -7.07949470640908 a31.648172110936766,31.648172110936766 0 0,0 0.3586915459662656,0.4100464431427433 l -8.074570761402786 6.94153270706339" fill="#ff800b" stroke="none" /><path d="M 116.15771136456269 86.58626213691792 l 7.353128386998467 -6.104387832617681 a30.556780205000713,30.556780205000713 0 0,0 0.3324890644824954,0.4075922791060248 l -7.457115943557372 5.9769113839035555" fill="#ff710a" stroke="none" /><path d="M 117.2510076193507 88.02491185347247 l 9.704944138800705 -6.736856425064776 a32.814024514498804,32.814024514498804 0 0,0 0.31810155114754174,0.4667747746392583 l -9.81947015561698 6.568803627155111" fill="#ff900d" stroke="none" /><path d="M 117.65298651832404 88.62581576622439 l 10.981810209919841 -7.075807394875021 a34.063965928310886,34.063965928310886 0 0,0 0.31334372284608,0.49563451988469165 l -11.101981529011876 6.885725227276123" fill="#ffa00e" stroke="none" /><line stroke="#e1ed5e" stroke-width="0.3" x1="172.23445277983987" x2="176.4835382374775" y1="55.19839476539836" y2="52.563006222186495" /><path d="M 173.08426987136738 54.67131705675599 a86.0,86.0 0 0,1 12.851231095245387,41.99856678651699" fill="none" id="id135" stroke="none" /><text fill="#e1ed5e" style="font-size:6.75px; font-family:Arial;" text-anchor="middle"><textPath startOffset="22.20632615414155" xlink:href="#id135">March</textPath></text><path d="M 118.03404312379186 89.2402003453031 l 8.288326490082738 -4.9451324860343435 a30.651460579137204,30.651460579137204 0 0,0 0.2664346472416969,0.45542317819589534 l -8.372220811794762 4.801729895484553" fill="#ff720a" stroke="none" /><path d="M 119.196687751892 91.48605970444005 l 7.344719313790645 -3.2574630860001568 a29.034672834348825,29.034672834348825 0 0,0 0.19869296299877479,0.45861075313341104 l -7.3997029866321 3.130553188280143" fill="#ff5c08" stroke="none" /><path d="M 119.34039704204932 91.81776055985345 l 8.897881247706833 -3.764379537836663 a30.661410042182055,30.661410042182055 0 0,0 0.2014576016814708,0.4878455619453088 l -8.961360536274501 3.610659405438051" fill="#ff720a" stroke="none" /><path d="M 119.61058180528143 92.48833698450437 l 11.999407818294895 -4.596268933350058 a33.84957104721537,33.84957104721537 0 0,0 0.20373478388363137,0.5459079302463623 l -12.07674719068015 4.389037866074362" fill="#ff9d0e" stroke="none" /><path d="M 120.08093135843002 93.85539295169968 l 16.1864222807087 -4.952917902936547 a37.9272461435005,37.9272461435005 0 0,0 0.18565224963546584,0.6259270930937274 l -16.269280427455868 4.67356142309629" fill="#ffd213" stroke="none" /><path d="M 120.18372546131832 94.20196356495316 l 12.35025968096617 -3.5477719784568853 a33.84973152242577,33.84973152242577 0 0,0 0.15605246781655321,0.5614037557887661 l -12.409498919349087 3.3346569192491673" fill="#ff9d0e" stroke="none" /><path d="M 120.37134235888165 94.90015583598534 l 8.842436181830097 -2.213651204871009 a30.115312901188027,30.115312901188027 0 0,0 0.12156146399537747,0.5039507479369281 l -8.879230446086293 2.061115225274675" fill="#ff6b09" stroke="none" /><path d="M 120.6074358757038 95.95851677861258 l 6.39979872324345 -1.2551138975392664 a27.521712550689788,27.521712550689788 0 0,0 0.08717079938428911,0.465669895953991 l -6.420455246537598 1.1447659241227126" fill="#ff4706" stroke="none" /><path d="M 120.78858239683441 97.02765380044208 l 12.732757837981238 -1.8205264624189952 a33.86224858883704,33.86224858883704 0 0,0 0.07753487585949645,0.5777248840870007 l -12.76220871289857 1.6010832362673302" fill="#ff9e0e" stroke="none" /><path d="M 120.94382443527127 98.46500227214037 l 9.9913476237833 -0.732277714997207 a31.0181464349031,31.0181464349031 0 0,0 0.03444404014287792,0.5328340557173011 l -10.002472254930593 0.5601845950268706" fill="#ff770b" stroke="none" /><path d="M 120.96714384426684 98.82574320788733 l 39.82002342059871 -2.230105030567103 a60.88242261528743,60.88242261528743 0 0,0 0.04959421775956862,1.0468555527745234 l -39.852511246591774 1.5443383711695797" fill="#30ff36" stroke="none" /><line stroke="#e1ed5e" stroke-width="0.3" x1="184.98032266829074" x2="189.97916517819016" y1="98.17113171792111" y2="98.06355123074" /><path d="M 185.9800911702706 98.14961562048488 a86.0,86.0 0 0,1 -9.607161424134198,41.387399972396054" fill="none" id="id136" stroke="none" /><text fill="#e1ed5e" style="font-size:6.75px; font-family:Arial;" text-anchor="middle"><textPath startOffset="21.466115282336823" xlink:href="#id136">April</textPath></text><path d="M 120.99980553446 99.90962569577887 l 10.552912587509605 -0.04541528401477697 a31.553010311169075,31.553010311169075 0 0,0 -0.002337481126925005,0.543148293410906 l -10.552130809093176 -0.13624248759981372" fill="#ff7f0b" stroke="none" /><path d="M 120.9904718944345 100.63252640178507 l 9.672425104229628 0.2914686376982367 a30.676815662380534,30.676815662380534 0 0,0 -0.020448094770958658,0.5276744669718547 l -9.665974876607466 -0.45792035168409767" fill="#ff730a" stroke="none" /><path d="M 120.95626037817324 101.35467743843564 l 8.012813392412397 0.5179730221524494 a29.029537627616,29.029537627616 0 0,0 -0.036526680214510165,0.4983775309444469 l -8.002710153533549 -0.6558236895936667" fill="#ff5c08" stroke="none" /><path d="M 120.89721153311464 102.0752229133903 l 5.003718130478684 0.49690029217827275 a26.028330242699653,26.028330242699653 0 0,0 -0.048112375037722296,0.44546083925826546 l -4.99442345393991 -0.5829574533213296" fill="#ff3204" stroke="none" /><path d="M 120.8583938346157 102.4346265915055 l 7.99866463795278 0.9336175056670374 a29.05296700833452,29.05296700833452 0 0,0 -0.062254269870293685,0.4962277833887453 l -7.981408858835638 -1.0711630433431776" fill="#ff5c08" stroke="none" /><path d="M 120.70491114924044 103.5080841355445 l 14.253586473480503 2.4150202926160818 a35.4567302793797,35.4567302793797 0 0,0 -0.10713598472602158,0.6008754984162368 l -14.209904046415293 -2.6600145417655368" fill="#ffb310" stroke="none" /><path d="M 120.5718875245553 104.21870165774334 l 8.529087463916616 1.7490701998109803 a29.706582540297106,29.706582540297106 0 0,0 -0.10703700591063124,0.5000412571603783 l -8.497716419281542 -1.8956252763875276" fill="#ff6509" stroke="none" /><path d="M 120.32669344350535 105.2749913415812 l 10.512735712024243 2.7281657988981927 a31.86096223992827,31.86096223992827 0 0,0 -0.14233038844426996,0.5296643236052596 l -10.464217247238198 -2.908721055679001" fill="#ff830c" stroke="none" /><path d="M 120.02730092923936 106.31721596034902 l 7.774541656348905 2.452325393692027 a29.152140688362238,29.152140688362238 0 0,0 -0.15507238163593437,0.4772637160314767 l -7.731177023696724 -2.585788009701299" fill="#ff5e08" stroke="none" /><path d="M 119.41010516605496 108.01547362559984 l 7.444617623663711 3.0742819631657023 a29.05441128522813,29.05441128522813 0 0,0 -0.1948707295980709,0.4606168408869023 l -7.390595912873331 -3.201973329718768" fill="#ff5c08" stroke="none" /><path d="M 118.64920377521936 109.65438752849418 l 10.255817478682223 5.3092688328211315 a32.54859851649583,32.54859851649583 0 0,0 -0.2618573371503303,0.49533539837437096 l -10.162907633307 -5.485019246281637" fill="#ff8c0c" stroke="none" /><line stroke="#e1ed5e" stroke-width="0.3" x1="174.80103733775053" x2="179.2010983576182" y1="140.37084112569926" y2="142.7455964860345" /><path d="M 175.68104954172406 140.8457921977663 a86.0,86.0 0 0,1 -30.038265399797805,32.042727171017184" fill="none" id="id137" stroke="none" /><text fill="#e1ed5e" style="font-size:6.75px; font-family:Arial;" text-anchor="middle"><textPath startOffset="22.206326154141568" xlink:href="#id137">May</textPath></text><path d="M 118.30583269289576 110.29060199501025 l 9.797143784359383 5.507452682655465 a32.239041835632634,32.239041835632634 0 0,0 -0.27610130095706925,0.4814058908665671 l -9.700890487249934 -5.675278419380348" fill="#ff880c" stroke="none" /><path d="M 117.35343817320211 111.8261652097733 l 8.798498685787903 5.996073977823202 a31.647369734884762,31.647369734884762 0 0,0 -0.3106552422787434,0.4475220462653379 l -8.693982536347024 -6.14663728627556" fill="#ff800b" stroke="none" /><path d="M 116.71984013943494 112.70617746262583 l 7.681899938943403 5.837829970882014 a30.648411550139585,30.648411550139585 0 0,0 -0.3228199856183756,0.41728834798373643 l -7.580273136106959 -5.969196312979004" fill="#ff720a" stroke="none" /><path d="M 116.498646956653 112.99209946851258 l 25.42866191694745 20.024169608825897 a53.36640566095408,53.36640566095408 0 0,0 -0.5745327818074363,0.7168179837584402 l -25.08021122308516 -20.458915426162587" fill="#77ff27" stroke="none" /><path d="M 115.80600337817218 113.82643327865902 l 8.469882987266 7.409100782757461 a32.2531636541479,32.2531636541479 0 0,0 -0.3691315454818243,0.41472320448547595 l -8.341092592135839 -7.553798156983803" fill="#ff880c" stroke="none" /><path d="M 114.81725581225074 114.88116024355365 l 24.43225774348297 24.537630125273978 a55.6270199498706,55.6270199498706 0 0,0 -0.684344916821034,0.6697755366213721 l -24.006262874286143 -24.954555764817922" fill="#5fff29" stroke="none" /><path d="M 112.92097659922987 116.55440617244103 l 1.121761573144987 1.4372053511485625 a22.823158865363844,22.823158865363844 0 0,0 -0.31177660016675796,0.23905700217161396 l -1.0968562444847354 -1.4563016951475478" fill="#ff0300" stroke="none" /><path d="M 112.63410532772338 116.77436683061366 l 4.971333662618435 6.600465353977432 a29.26318953395961,29.26318953395961 0 0,0 -0.4049677472408968,0.2995854579973253 l -4.856980944958974 -6.685060760714527" fill="#ff5f08" stroke="none" /><path d="M 111.7513745106137 117.40417183066458 l 29.738594963876857 44.0438364283583 a74.14361257718093,74.14361257718093 0 0,0 -1.0638736379203062,0.7050774359572212 l -28.976046627216586 -44.54921188540684" fill="#41ffcc" stroke="none" /><line stroke="#e1ed5e" stroke-width="0.3" x1="143.8653032363475" x2="146.44561519142675" y1="172.8068346515853" y2="177.08958963109032" /><path d="M 144.38136562736335 173.6633856474863 a86.0,86.0 0 0,1 -40.68145358897372,12.25698825130547" fill="none" id="id138" stroke="none" /><text fill="#e1ed5e" style="font-size:6.75px; font-family:Arial;" text-anchor="middle"><textPath startOffset="21.466115282336833" xlink:href="#id138">June</textPath></text><path d="M 109.89434966115114 118.52300852407294 l 3.491945505297751 6.537199368867176 a28.411387117151996,28.411387117151996 0 0,0 -0.4333536078793003,0.22671012608608324 l -3.3789009948919553 -6.596338913897976" fill="#ff5307" stroke="none" /><path d="M 109.2508944713604 118.85261126421891 l 14.34347672018491 29.23090211656626 a53.56042019032869,53.56042019032869 0 0,0 -0.8311744017434611,0.3990142232220735 l -13.838189650441215 -29.473470616287894" fill="#75ff27" stroke="none" /><path d="M 107.93186726928326 119.44442032107085 l 19.685025911218876 48.25647036873547 a73.11705265624681,73.11705265624681 0 0,0 -1.1694512842462088,0.4653488007254766 l -18.851453550930803 -48.58816601386701" fill="#3fffc1" stroke="none" /><path d="M 107.2578585660854 119.70592522655815 l 16.823462656917894 45.67764639533707 a69.677266521305,69.677266521305 0 0,0 -1.1290386126661303,0.4048330772323089 l -16.034704483622026 -45.96046701360934" fill="#3bff9c" stroke="none" /><path d="M 106.57524785965236 119.94407469862006 l 2.5164160789062455 7.632805838161694 a29.03691948729444,29.03691948729444 0 0,0 -0.4760376944661139,0.15241223699313136 l -2.3846570393491913 -7.6749909218145325" fill="#ff5c08" stroke="none" /><path d="M 105.53697534728816 120.25689768951611 l 12.989545807134842 47.52195629284959 a70.26524769221363,70.26524769221363 0 0,0 -1.1694464574593353,0.30886143834846197 l -12.16960890686401 -47.738509080501636" fill="#3cffa2" stroke="none" /><path d="M 104.48393922423573 120.51570834832081 l 9.811935029154876 44.89329300067059 a66.95303934954048,66.95303934954048 0 0,0 -1.128026524053441,0.236388925711856 l -9.037717043672057 -45.055537907108985" fill="#38ff7d" stroke="none" /><line stroke="#e1ed5e" stroke-width="0.3" x1="102.19456741930631" x2="102.32365962044197" y1="184.97166512339345" y2="189.96999836594603" /><path d="M 102.22038585953345 185.97133177190398 a86.0,86.0 0 0,1 -42.740103519485714,-10.115201625700543" fill="none" id="id139" stroke="none" /><text fill="#e1ed5e" style="font-size:6.75px; font-family:Arial;" text-anchor="middle"><textPath startOffset="22.20632615414155" xlink:href="#id139">July</textPath></text><path d="M 96.58105272829116 120.7198165907248 l -4.045530164299751 24.51709147729549 a45.84862347930634,45.84862347930634 0 0,0 -0.7775730670831272,-0.13519104469970572 l 4.4669522028549284 -24.44382185407478" fill="#cbff1d" stroke="none" /><path d="M 95.86986931433489 120.58985236759428 l -7.25981584200652 36.19220498800389 a57.91314979724085,57.91314979724085 0 0,0 -0.9757222330372757,-0.20447208070253967 l 7.881729536473182 -36.061876926574804" fill="#48ff2c" stroke="none" /><path d="M 95.16358092515715 120.4354850818985 l -0.5017835299895674 2.1202029193008594 a23.17877193161209,23.17877193161209 0 0,0 -0.3874681785846997,-0.09523025124217012 l 0.5382049933174776 -2.1112514097446593" fill="#ff0801" stroke="none" /><path d="M 94.81253420990036 120.34920634021253 l -10.737976489270938 42.12255234021084 a64.46968546858761,64.46968546858761 0 0,0 -1.07298910572422,-0.2833861750679911 l 11.461456037806649 -41.931474815839266" fill="#34ff61" stroke="none" /><path d="M 93.08242187328487 119.8279376855182 l -5.3806537565256285 15.422632811290118 a37.334290241069425,37.334290241069425 0 0,0 -0.6049585088956387,-0.21691659789718035 l 5.6453318260509935 -15.327728672352979" fill="#ffcb12" stroke="none" /><path d="M 92.06813273071674 119.44442032107085 l -10.163548466418014 24.915231385669 a47.90848328001141,47.90848328001141 0 0,0 -0.760897452670116,-0.31805519692672024 l 10.590917378585592 -24.736591145722308" fill="#b3ff20" stroke="none" /><path d="M 91.40352486487194 119.15986991738527 l -1.9940649852781465 4.444382741086467 a25.871225011717236,25.871225011717236 0 0,0 -0.40473930500245386,-0.18579596371730703 l 2.0702722860480196 -4.409399707035085" fill="#ff2f04" stroke="none" /><path d="M 90.42595943632237 118.69057910512821 l -0.7387139127278726 1.4421278800802853 a22.620318199417195,22.620318199417195 0 0,0 -0.3450235098580385,-0.18049999353960652 l 0.7634283251124067 -1.429198467595962" fill="#ff0000" stroke="none" /><path d="M 90.10565033884886 118.52300852407294 l -15.88501011269098 29.738000757912094 a54.71471837874187,54.71471837874187 0 0,0 -0.8269144508783005,-0.45089969056062046 l 16.39454737543792 -29.460160415591705" fill="#69ff28" stroke="none" /><line stroke="#e1ed5e" stroke-width="0.3" x1="58.666819895761336" x2="56.23545636021788" y1="174.27360380694188" y2="178.64263932499728" /><path d="M 58.180547188652646 175.14741091055294 a86.0,86.0 0 0,1 -31.652253787137756,-30.449443065178592" fill="none" id="id140" stroke="none" /><text fill="#e1ed5e" style="font-size:6.75px; font-family:Arial;" text-anchor="middle"><textPath startOffset="22.20632615414155" xlink:href="#id140">August</textPath></text><path d="M 89.4739219176387 118.17145234162733 l -24.481448715448046 42.26298485589067 a69.84159313675545,69.84159313675545 0 0,0 -1.0350927487010446,-0.6115510409174123 l 25.205309335177475 -41.835315242679506" fill="#3bff9e" stroke="none" /><path d="M 88.54995079064634 117.60387380957326 l -24.231228179255147 37.25429256409822 a65.44136286756464,65.44136286756464 0 0,0 -0.9390065895683996,-0.6223223651016081 l 24.86890946756351 -36.8316721779053" fill="#36ff6c" stroke="none" /><path d="M 87.36589467227662 116.77436683061367 l -26.57566535851517 35.28464801644135 a65.17320879098486,65.17320879098486 0 0,0 -0.890301013049014,-0.682644852423213 l 27.179095100057673 -34.821963822190774" fill="#35ff69" stroke="none" /><path d="M 86.51685102203217 116.09983520530335 l -28.16482222051126 33.63079330191013 a64.86670113911927,64.86670113911927 0 0,0 -0.8498604239966706,-0.7242694906581219 l 28.73954812108499 -33.14099942102906" fill="#35ff65" stroke="none" /><path d="M 85.97065885151581 115.62618273729859 l -4.0823615959371455 4.547022388484447 a27.11073553685326,27.11073553685326 0 0,0 -0.34456512043195664,-0.3147520679544377 l 4.160026265835957 -4.476077553943433" fill="#ff4106" stroke="none" /><path d="M 84.9287848128048 114.62390073753433 l -26.776874740357847 25.98213570708483 a58.3104864181933,58.3104864181933 0 0,0 -0.6927659212974051,-0.7263622988386738 l 27.22014721303421 -25.517366291663656" fill="#44ff2d" stroke="none" /><path d="M 84.19399662182784 113.82643327865904 l -29.916355282328333 26.16958128852463 a60.74714201291953,60.74714201291953 0 0,0 -0.6816913827386728,-0.7929610850584751 l 30.362389174637787 -25.650743104304624" fill="#30ff34" stroke="none" /><path d="M 83.50135304334701 112.99209946851258 l -4.458094240116127 3.510591138762189 a26.6744034397734,26.6744034397734 0 0,0 -0.2809617236025134,-0.36318090177773155 l 4.517862780936709 -3.4333322428712045" fill="#ff3b05" stroke="none" /><path d="M 83.28015986056508 112.70617746262583 l -6.430160638467242 4.886575559586512 a29.07623591384264,29.07623591384264 0 0,0 -0.29940040110877186,-0.4010957645994819 l 6.513322306271099 -4.775166915477722" fill="#ff5d08" stroke="none" /><path d="M 82.6465618267979 111.8261652097733 l -37.306064082079764 25.42364647037872 a66.1453676155931,66.1453676155931 0 0,0 -0.633095880104755,-0.9463924411795938 l 37.73816306759525 -24.777717114993308" fill="#37ff74" stroke="none" /><path d="M 82.24976979558568 111.22182372390057 l -53.25069061324296 33.6654711717017 a84.0,84.0 0 0,0 -0.7621414413281764,-1.2288146745389432 l 53.82229669423909 -32.743860165797486" fill="#4dd2ff" stroke="none" /><line stroke="#e1ed5e" stroke-width="0.3" x1="26.63291911575756" x2="22.317208475507996" y1="142.92168965132927" y2="145.44649492493687" /><path d="M 25.769776987707644 143.4266507060508 a86.0,86.0 0 0,1 -11.730757126820373,-40.83630448921669" fill="none" id="id141" stroke="none" /><text fill="#e1ed5e" style="font-size:6.75px; font-family:Arial;" text-anchor="middle"><textPath startOffset="21.46611528233685" xlink:href="#id141">September</textPath></text><path d="M 81.87401531095188 110.60418214915194 l -47.79249605518182 27.959878716988353 a76.37036659670287,76.37036659670287 0 0,0 -0.6540503802632467,-1.1403919680596044 l 48.26669843159745 -27.133066903070443" fill="#43ffe3" stroke="none" /><path d="M 81.18737489456691 109.33194174019688 l -7.2189083330139985 3.5809160929940074 a29.05826269027775,29.05826269027775 0 0,0 -0.21841676829020754,-0.4500032355876305 l 7.279478357918925 -3.456123901441092" fill="#ff5c08" stroke="none" /><path d="M 80.73074385275274 108.34839909993369 l -52.153685003226705 22.59556744754585 a77.83807287102887,77.83807287102887 0 0,0 -0.5220674376079122,-1.2340132062771134 l 52.53490342202692 -21.694479715602576" fill="#45fff1" stroke="none" /><path d="M 80.45479744820244 107.68017299344265 l -38.28048581215013 15.042092939748068 a62.12979642573309,62.12979642573309 0 0,0 -0.38255895645419247,-0.9987407176562378 l 38.53373904819784 -14.380928655258673" fill="#32ff45" stroke="none" /><path d="M 80.20201598880116 107.00284435728193 l -8.327141487888417 2.9454350376160625 a29.832716055672165,29.832716055672165 0 0,0 -0.16707623552448622,-0.48560174708642617 l 8.376608554356132 -2.8016605874403395" fill="#ff6709" stroke="none" /><path d="M 79.86692584326677 105.97154293290107 l -36.33239760975366 10.776321116828404 a58.89686283699794,58.89686283699794 0 0,0 -0.2799209797829322,-0.9744416528069575 l 36.5125112264227 -10.14932198851685" fill="#3eff2e" stroke="none" /><path d="M 79.58551787078972 104.9243191809786 l -18.785313021176947 4.5313359724421876 a40.32410388604731,40.32410388604731 0 0,0 -0.15695568719061945,-0.6761609925052102 l 18.860529274298123 -4.207306322588403" fill="#fff116" stroke="none" /><path d="M 79.4281124754447 104.21870165774334 l -7.897442943964227 1.6195381002286302 a29.061793144906567,29.061793144906567 0 0,0 -0.09627766175897462,-0.4909177230926769 l 7.924150538698868 -1.4833566500679984" fill="#ff5c08" stroke="none" /><path d="M 79.1416061653843 102.43462659150553 l -58.86642280957652 6.8709872608292 a80.26606280439344,80.26606280439344 0 0,0 -0.14836875360183707,-1.373710390463147 l 58.97597386467941 -5.856680548481272" fill="#48f5ff" stroke="none" /><path d="M 79.07016306316243 101.71520430193888 l -8.216228781220957 0.6733215836221208 a29.24377203350111,29.24377203350111 0 0,0 -0.036796242607655585,-0.5020554956305668 l 8.226601582492947 -0.5317929514947933" fill="#ff5f08" stroke="none" /><path d="M 79.0235259727143 100.99374915477108 l -48.16669363272828 2.281871158297566 a69.22071454771464,69.22071454771464 0 0,0 -0.04614011267542177,-1.1906712891706555 l 48.198835878254904 -1.4524226221129135" fill="#3aff97" stroke="none" /><line stroke="#e1ed5e" stroke-width="0.3" x1="15.007084014347285" x2="10.007500721073583" y1="101.09737516637583" y2="101.16192664675087" /><path d="M 14.007167355692545 101.11028546245083 a86.0,86.0 0 0,1 10.666146001902534,-42.60595125391555" fill="none" id="id142" stroke="none" /><text fill="#e1ed5e" style="font-size:6.75px; font-family:Arial;" text-anchor="middle"><textPath startOffset="22.20632615414155" xlink:href="#id142">October</textPath></text><path d="M 79.00019446554 99.90962569577889 l -31.4043869094213 -0.135151233270827 a52.4046777250219,52.4046777250219 0 0,0 0.011646297997194648,-0.9020186145534023 l 31.39740760430639 0.6757061058847013" fill="#81ff25" stroke="none" /><path d="M 79.01574976396665 99.18683210126434 l -8.16975919313136 -0.31658914860094217 a29.17589101950156,29.17589101950156 0 0,0 0.0237663915198256,-0.5016709619771192 l 8.163099193378036 0.45717121720107057" fill="#ff5e08" stroke="none" /><path d="M 79.05617556472873 98.46500227214037 l -30.910311590500484 -2.2654533896371913 a51.993219285554176,51.993219285554176 0 0,0 0.07310126844247934,-0.8920206337213955 l 30.866735838238508 2.7971879405663653" fill="#86ff25" stroke="none" /><line stroke="#e1ed5e" stroke-width="0.3" x1="26.266209847984243" x2="21.928928074336255" y1="57.711370442889674" y2="55.22380399835377" /><path d="M 25.398753493254645 57.213857153982495 a86.0,86.0 0 0,1 29.58750427330803,-30.492523968695096" fill="none" id="id143" stroke="none" /><text fill="#e1ed5e" style="font-size:6.75px; font-family:Arial;" text-anchor="middle"><textPath startOffset="21.46611528233685" xlink:href="#id143">November</textPath></text><line stroke="#e1ed5e" stroke-width="0.3" x1="56.762969772571076" x2="54.21961505331055" y1="26.818313649435495" y2="22.513508569990535" /><path d="M 56.25429882871897 25.957352633546506 a86.0,86.0 0 0,1 42.265352541879196,-11.944610805530505" fill="none" id="id144" stroke="none" /><text fill="#e1ed5e" style="font-size:6.75px; font-family:Arial;" text-anchor="middle"><textPath startOffset="22.20632615414155" xlink:href="#id144">December</textPath></text></svg>